<svg width="491" height="404" viewBox="0 0 491 404" fill="none" xmlns="http://www.w3.org/2000/svg">
<g clip-path="url(#clip0)">
<path d="M180.284 367.455H191.253V367.77H180.284V367.455Z" fill="#EBEBEB"/>
<path d="M411.237 18.2915H413.118V346.981H411.237V18.2915Z" fill="#E8ECF2"/>
<path d="M77.2968 18.2915H411.237V346.981H77.2968V18.2915Z" fill="white"/>
<path d="M251.651 346.981L251.651 25.7515L396.393 25.7515V346.981H251.651Z" fill="#F3F6FA"/>
<path d="M376.197 346.981L329.772 25.7515H317.44L363.865 346.981H376.197Z" fill="white"/>
<path d="M356.342 346.981L309.904 25.7515H282.274L328.699 346.981H356.342Z" fill="white"/>
<path d="M92.1538 346.981L92.1538 25.7515L236.896 25.7515L236.896 346.981H92.1538Z" fill="#F3F6FA"/>
<path d="M213.304 346.981L166.866 25.7515H138.945L185.371 346.981H213.304Z" fill="white"/>
<path d="M177.848 346.981L131.41 25.7515H103.779L150.204 346.981H177.848Z" fill="white"/>
<path d="M245.214 403.984C110.049 403.984 0.476349 397.587 0.476349 389.696C0.476349 381.804 110.049 375.407 245.214 375.407C380.379 375.407 489.951 381.804 489.951 389.696C489.951 397.587 380.379 403.984 245.214 403.984Z" fill="white"/>
<path d="M447.174 153.756C448.103 153.759 448.994 154.13 449.651 154.788C450.309 155.445 450.679 156.336 450.683 157.265V389.696H443.665V157.265C443.668 156.336 444.039 155.445 444.696 154.788C445.353 154.13 446.244 153.759 447.174 153.756Z" fill="#13254D"/>
<path d="M43.2541 153.756C44.1838 153.759 45.0744 154.13 45.7318 154.788C46.3891 155.445 46.7599 156.336 46.7632 157.265V389.696H39.7451V157.265C39.7484 156.336 40.1192 155.445 40.7765 154.788C41.4339 154.13 42.3245 153.759 43.2541 153.756Z" fill="#13254D"/>
<path d="M124.568 195.751C120.365 201.09 130.425 204.435 136.206 206.808C143.224 208.702 149.914 181.374 196.971 173.132C189.965 163.109 183.351 160.698 183.351 160.698C174.528 159.045 142.681 172.803 124.568 195.751Z" fill="#0098DB"/>
<path d="M161.148 163.45C163.811 168.272 118.85 194.83 136.206 206.783C136.206 206.783 117.272 202.921 115.442 190.942C116.098 177.663 153.852 156.028 143.792 149.49" fill="#006A99"/>
<path d="M46.763 166.215C60.471 157.682 111.971 146.246 143.792 149.515C153.89 151.648 161.148 163.475 161.148 163.475C119.279 162.604 61.3546 174.975 46.763 189.73V166.215Z" fill="#0098DB"/>
<path d="M363.953 167.893C368.157 162.554 360.558 160.825 354.764 158.464C347.746 156.558 331.753 181.93 288.761 182.131C295.767 192.154 302.368 194.565 302.368 194.565C311.166 196.269 345.84 190.841 363.953 167.893Z" fill="#0098DB"/>
<path d="M327.374 200.156C324.71 195.347 372.12 170.405 354.764 158.502C354.764 158.502 371.287 160.736 373.092 172.715C372.423 185.994 334.669 207.629 344.73 214.167" fill="#006A99"/>
<path d="M443.665 192.595C429.957 201.128 376.551 217.399 344.729 214.129C334.631 211.996 327.374 200.156 327.374 200.156C369.242 201.04 429.073 180.957 443.665 166.214V192.595Z" fill="#0098DB"/>
<path d="M210.389 372.592L200.821 369.954L204.38 347.094L213.948 349.733L210.389 372.592Z" fill="#FFC3BD"/>
<path d="M281.011 378.954H271.077L268.616 355.968H278.537L281.011 378.954Z" fill="#FFC3BD"/>
<path d="M270.27 377.805H282.362C282.559 377.806 282.75 377.874 282.904 377.998C283.058 378.122 283.165 378.294 283.208 378.487L285.177 387.323C285.222 387.537 285.219 387.76 285.167 387.973C285.115 388.186 285.015 388.385 284.876 388.555C284.736 388.725 284.561 388.861 284.361 388.953C284.162 389.046 283.945 389.093 283.725 389.09C279.825 389.027 276.985 388.787 272.087 388.787C269.07 388.787 259.97 389.102 255.804 389.102C251.639 389.102 251.096 384.987 252.8 384.609C260.449 382.943 266.205 380.633 268.654 378.436C269.095 378.032 269.671 377.807 270.27 377.805Z" fill="#191919"/>
<path d="M201.199 368.868L211.638 371.721C211.828 371.777 211.994 371.894 212.11 372.053C212.227 372.213 212.287 372.407 212.282 372.605L211.827 381.63C211.817 381.849 211.757 382.063 211.652 382.256C211.547 382.449 211.4 382.615 211.221 382.743C211.043 382.87 210.837 382.955 210.621 382.992C210.405 383.029 210.183 383.016 209.972 382.955C206.185 381.844 200.846 380.128 196.087 378.815C190.546 377.3 185.686 376.29 179.186 374.485C175.26 373.4 175.26 369.134 177.002 369.222C184.942 369.651 191.101 371.166 198.675 368.957C199.492 368.692 200.366 368.661 201.199 368.868Z" fill="#191919"/>
<path d="M228.502 68.7814C228.022 69.2358 227.328 69.8543 226.709 70.397L224.765 72.0758C223.503 73.1866 222.127 74.2721 220.764 75.3198C218.094 77.4022 215.318 79.3445 212.446 81.1388C209.722 82.8676 206.855 84.3584 203.875 85.5945C201.261 86.7022 198.479 87.3635 195.645 87.551C195.04 87.551 194.383 87.551 193.878 87.551C194.749 87.7656 194.711 87.9676 194.497 87.8161C193.557 87.1035 192.732 86.2523 192.048 85.2916C190.075 82.5832 188.307 79.731 186.759 76.7588C183.439 70.5611 180.322 63.8965 177.33 57.3328L170.198 59.5038C171.612 66.9594 173.643 74.2846 176.27 81.4039C177.651 85.2045 179.375 88.8717 181.42 92.3602C182.685 94.5344 184.287 96.4943 186.166 98.1665C187.741 99.5349 189.647 100.466 191.695 100.868C192.947 101.081 194.212 101.212 195.481 101.259C200.035 101.387 204.573 100.663 208.861 99.1258C212.79 97.7702 216.574 96.0282 220.158 93.9254C223.611 91.9288 226.926 89.7022 230.08 87.2607C231.645 86.0616 233.159 84.8119 234.662 83.5371C235.406 82.8933 236.164 82.2748 236.883 81.568C237.603 80.8611 238.297 80.2426 239.13 79.4095L228.502 68.7814Z" fill="#FFC3BD"/>
<path d="M244.974 76.355C243.573 85.7335 215.109 99.1639 215.109 99.1639L203.749 79.6243C203.749 79.6243 215.109 72.0508 225.649 65.7395C232.781 61.5741 246.476 66.1308 244.974 76.355Z" fill="#407BFF"/>
<path d="M244.974 76.355C243.573 85.7335 215.109 99.1639 215.109 99.1639L203.749 79.6243C203.749 79.6243 215.109 72.0508 225.649 65.7395C232.781 61.5741 246.476 66.1308 244.974 76.355Z" fill="#CCEAF8"/>
<path d="M177.557 58.8982L175.601 48.3584L166.5 54.4046C166.775 55.8783 167.358 57.2773 168.211 58.5105C169.063 59.7437 170.166 60.7833 171.448 61.5615L177.557 58.8982Z" fill="#FFC3BD"/>
<path d="M173.695 41.4033L165.705 47.0203L166.5 54.4045L175.601 48.3583L173.695 41.4033Z" fill="#FFC3BD"/>
<path d="M177.052 22.3054L175.79 38.4874V38.9418L175.108 47.8786C175.32 47.655 175.577 47.4795 175.862 47.3641C176.148 47.2487 176.455 47.196 176.762 47.2096C178.251 47.3232 179.287 49.267 179.148 51.5391C179.009 53.8111 177.62 55.5909 176.131 55.4773C174.641 55.3637 173.606 53.4198 173.758 51.1352C173.77 50.9359 173.795 50.7378 173.834 50.5419C174.01 48.9262 174.326 44.3695 172.849 41.6178C172.81 41.5337 172.764 41.4534 172.71 41.378C172.401 40.8349 171.969 40.3722 171.448 40.0274C171.864 34.5871 173.266 25.095 177.052 22.3054ZM175.361 48.8126C175.223 48.9932 175.105 49.1878 175.007 49.3933C174.723 49.9824 174.556 50.6211 174.515 51.274C174.439 52.1423 174.601 53.0149 174.982 53.7985C175.069 54.0539 175.229 54.2781 175.442 54.4433C175.656 54.6085 175.913 54.7073 176.182 54.7275C176.451 54.7477 176.72 54.6883 176.956 54.5568C177.191 54.4253 177.383 54.2274 177.507 53.9878C178.019 53.2645 178.316 52.4114 178.365 51.5265C178.445 50.6566 178.279 49.7818 177.885 49.002C177.771 48.7487 177.596 48.5276 177.376 48.3581C177.156 48.1886 176.897 48.0759 176.623 48.03C176.367 48.0506 176.118 48.1281 175.895 48.2569C175.673 48.3857 175.481 48.5626 175.336 48.7748L175.361 48.8126Z" fill="#0098DB"/>
<path d="M168.507 43.0821C168.696 43.324 168.832 43.603 168.906 43.901C168.98 44.199 168.99 44.5092 168.936 44.8114L188.413 28.074C188.413 32.7569 181.571 39.5099 177.406 43.0821C173.998 41.8199 169.024 46.061 167.535 47.4242L167.106 47.8282C165.364 49.3176 163.168 49.6079 162.196 48.4845C161.224 47.3611 161.855 45.2153 163.584 43.7258C165.313 42.2364 167.535 41.9461 168.507 43.0821ZM162.612 46.4523C162.519 46.7049 162.486 46.9759 162.517 47.2434C162.548 47.5109 162.641 47.7674 162.789 47.9923C162.987 48.1734 163.226 48.3037 163.485 48.3719C163.745 48.44 164.017 48.4441 164.278 48.3835C165.151 48.2378 165.965 47.8484 166.626 47.2601C167.142 46.8431 167.571 46.3284 167.888 45.7455C167.998 45.5403 168.087 45.3246 168.153 45.1017C168.247 44.8513 168.279 44.5823 168.249 44.3168C168.218 44.0513 168.125 43.7969 167.977 43.5744C167.78 43.391 167.542 43.2584 167.282 43.188C167.022 43.1176 166.75 43.1116 166.487 43.1705C165.625 43.3406 164.822 43.7329 164.158 44.3085C163.494 44.884 162.992 45.623 162.701 46.4523H162.612Z" fill="#0098DB"/>
<path d="M173.72 41.2771C173.638 41.3473 173.57 41.4332 173.521 41.5297C173.472 41.6262 173.443 41.7314 173.434 41.8394C173.426 41.9473 173.439 42.0558 173.473 42.1586C173.507 42.2614 173.561 42.3565 173.632 42.4384C173.776 42.6019 173.978 42.7027 174.195 42.7192C174.412 42.7357 174.626 42.6666 174.793 42.5268C174.876 42.4565 174.943 42.3707 174.992 42.2742C175.041 42.1777 175.071 42.0725 175.079 41.9645C175.087 41.8566 175.074 41.7481 175.04 41.6453C175.006 41.5424 174.952 41.4474 174.882 41.3655C174.812 41.2816 174.727 41.2125 174.63 41.1625C174.534 41.1124 174.428 41.0824 174.32 41.0741C174.211 41.0659 174.102 41.0796 173.999 41.1145C173.896 41.1493 173.801 41.2047 173.72 41.2771Z" fill="#006A99"/>
<path opacity="0.2" d="M204.38 347.107L202.55 358.884L212.118 361.522L213.96 349.745L204.38 347.107Z" fill="black"/>
<path opacity="0.2" d="M278.537 355.981H268.616L269.891 367.833H279.812L278.537 355.981Z" fill="black"/>
<path d="M284.344 67.8978C281.433 78.611 279.323 89.5259 278.033 100.552C277.086 108.239 276.53 115.573 276.177 122.238C275.357 137.839 275.697 149.729 275.23 153.794C267.467 153.264 238.221 151.269 222.216 150.108C215.008 93.6477 228.78 64.5655 228.78 64.5655C232.951 63.7826 237.166 63.2556 241.402 62.9877C242.298 62.9877 243.22 62.8993 244.141 62.8867C251.671 62.975 259.19 63.4976 266.66 64.4519C268.073 64.616 269.512 64.8306 270.901 65.0578C278.159 66.1686 284.344 67.8978 284.344 67.8978Z" fill="#407BFF"/>
<path d="M284.344 67.8978C281.433 78.611 279.323 89.5259 278.033 100.552C277.086 108.239 276.53 115.573 276.177 122.238C275.357 137.839 275.697 149.729 275.23 153.794C267.467 153.264 238.221 151.269 222.216 150.108C215.008 93.6477 228.78 64.5655 228.78 64.5655C232.951 63.7826 237.166 63.2556 241.402 62.9877C242.298 62.9877 243.22 62.8993 244.141 62.8867C251.671 62.975 259.19 63.4976 266.66 64.4519C268.073 64.616 269.512 64.8306 270.901 65.0578C278.159 66.1686 284.344 67.8978 284.344 67.8978Z" fill="#CCEAF8"/>
<path d="M271.027 82.1865C270.939 90.3092 273.215 98.2822 277.578 105.134C277.729 103.62 277.906 102.092 278.095 100.552C278.802 94.7711 279.711 88.7881 280.923 82.7419L271.027 82.1865Z" fill="#A8DBF3"/>
<path d="M266.357 38.9041C264.438 46.0484 262.09 59.2263 266.824 64.4141C264.433 66.5823 261.605 68.2123 258.53 69.1944C255.455 70.1764 252.206 70.4876 249.001 70.1069C242.778 69.5388 242.778 65.1588 244.33 62.8489C252.548 61.4857 252.75 55.4774 251.74 49.7468L266.357 38.9041Z" fill="#FFC3BD"/>
<path opacity="0.2" d="M260.361 43.3345L251.702 49.7341C251.953 51.0705 252.088 52.4262 252.106 53.7859C255.224 53.5587 259.679 50.4662 260.26 47.2475C260.535 45.9605 260.569 44.6339 260.361 43.3345Z" fill="black"/>
<path d="M239.673 15.1485C237.577 20.6645 238.07 36.9728 245.239 33.6278C252.409 30.2828 250.755 18.0012 250.755 18.0012C250.755 18.0012 244.595 2.23567 239.673 15.1485Z" fill="#191919"/>
<path d="M267.934 28.0739C266.672 37.831 266.382 43.6121 261.08 48.2698C253.103 55.3258 241.313 49.9865 239.622 40.0273C238.132 31.0654 240.493 16.6 250.364 13.3687C252.543 12.6385 254.873 12.4792 257.131 12.9059C259.389 13.3326 261.5 14.3312 263.262 15.8061C265.025 17.2811 266.38 19.1833 267.198 21.331C268.015 23.4787 268.269 25.8002 267.934 28.0739Z" fill="#FFC3BD"/>
<path d="M260.841 32.4917C258.607 24.4386 259.301 16.1961 266.521 13.6716C273.741 11.1471 278.815 14.5299 279.774 19.6168C280.734 24.7037 264.148 44.2307 260.841 32.4917Z" fill="#191919"/>
<path d="M265.157 18.9605C251.588 20.2227 234.775 21.2956 235.659 9.88491C236.542 -1.52582 252.32 -1.33647 255.211 1.94537C255.211 1.94537 250.074 5.42917 255.425 4.88641C265.763 3.82612 281.87 5.11361 277.06 16.0826C273.513 24.1483 265.157 18.9605 265.157 18.9605Z" fill="#191919"/>
<path d="M271.658 39.1943C270.193 41.1913 267.996 42.5259 265.549 42.9053C262.305 43.3849 261.08 40.3808 262.33 37.5281C263.453 35.0036 266.495 31.6208 269.588 32.4791C272.68 33.3375 273.425 36.7203 271.658 39.1943Z" fill="#FFC3BD"/>
<path d="M199.571 355.691L215.778 360.146C215.778 360.146 227.353 297.955 230.269 267.169C231.152 257.803 233.626 244.752 236.744 230.791C240.67 213.208 245.58 194.186 249.644 179.291C253.898 163.602 257.142 152.506 257.142 152.506L222.329 150.07C222.329 150.07 201.224 232.382 200.202 262.663C199.129 294.143 199.571 355.691 199.571 355.691Z" fill="#13254D"/>
<path d="M236.744 230.791C240.67 213.208 245.58 194.186 249.645 179.291L246.022 171.503C237.388 181.765 235.116 213.536 236.744 230.791Z" fill="#0F1E3E"/>
<path d="M241.112 151.383C241.112 151.383 244.898 236.358 249.064 265.137C253.646 296.693 265.296 365.536 265.296 365.536H283.485C283.485 365.536 283.788 300.227 278.096 269.694C271.608 234.931 275.281 153.769 275.281 153.769L241.112 151.383Z" fill="#13254D"/>
<path d="M263.125 365.927H284.533V359.528L260.6 359.111L263.125 365.927Z" fill="#B3CAFF"/>
<path d="M197.425 355.501L216.737 360.828L218.454 354.592L196.958 348.306L197.425 355.501Z" fill="#B3CAFF"/>
<path d="M252.913 29.7778C252.913 30.5731 252.383 31.1916 251.866 31.1537C251.348 31.1158 250.97 30.4342 251.02 29.639C251.071 28.8438 251.55 28.2253 252.068 28.2631C252.585 28.301 252.964 28.97 252.913 29.7778Z" fill="#191919"/>
<path d="M243.889 29.1467C243.889 29.9419 243.358 30.5604 242.841 30.5226C242.323 30.4847 241.945 29.8031 241.995 29.0079C242.046 28.2127 242.513 27.5942 243.043 27.632C243.573 27.6699 243.952 28.3894 243.889 29.1467Z" fill="#191919"/>
<path d="M246.729 29.74C245.607 32.1153 244.163 34.3241 242.437 36.3037C242.958 36.7341 243.567 37.0453 244.221 37.2154C244.875 37.3855 245.559 37.4103 246.224 37.2882L246.729 29.74Z" fill="#ED847E"/>
<path d="M255.918 27.0515C255.832 27.0575 255.746 27.0408 255.668 27.0032C255.591 26.9655 255.525 26.9082 255.476 26.8369C255.165 26.3341 254.74 25.9113 254.236 25.6022C253.732 25.2932 253.162 25.1065 252.573 25.0571C252.449 25.0571 252.33 25.0079 252.243 24.9203C252.155 24.8327 252.106 24.7139 252.106 24.5901C252.106 24.4662 252.155 24.3474 252.243 24.2598C252.33 24.1722 252.449 24.123 252.573 24.123C253.318 24.1669 254.042 24.3893 254.684 24.7715C255.325 25.1538 255.865 25.6846 256.259 26.3194C256.294 26.3713 256.318 26.4296 256.33 26.4911C256.342 26.5525 256.341 26.6157 256.328 26.6769C256.315 26.7382 256.29 26.7962 256.254 26.8475C256.219 26.8988 256.173 26.9424 256.12 26.9757C256.058 27.0139 255.989 27.0397 255.918 27.0515Z" fill="#191919"/>
<path d="M249.695 41.1888C250.855 41.1661 251.992 40.8653 253.011 40.3118C254.03 39.7583 254.901 38.9682 255.552 38.0079C255.584 37.9508 255.593 37.8832 255.577 37.8196C255.56 37.7559 255.52 37.7012 255.463 37.6671C255.435 37.649 255.402 37.6369 255.369 37.6316C255.335 37.6262 255.301 37.6277 255.268 37.636C255.235 37.6442 255.204 37.659 255.177 37.6796C255.15 37.7001 255.127 37.7259 255.11 37.7555C254.498 38.6351 253.689 39.3586 252.746 39.8673C251.803 40.376 250.753 40.6558 249.682 40.6839C249.649 40.6837 249.615 40.6906 249.584 40.7042C249.554 40.7178 249.526 40.7378 249.503 40.7628C249.481 40.7878 249.463 40.8173 249.453 40.8494C249.443 40.8815 249.439 40.9154 249.443 40.949C249.443 40.9815 249.449 41.0138 249.462 41.0438C249.475 41.0737 249.494 41.1007 249.517 41.1232C249.541 41.1456 249.569 41.163 249.599 41.1743C249.63 41.1856 249.662 41.1905 249.695 41.1888Z" fill="#191919"/>
<path d="M240.165 25.7639C240.075 25.7929 239.978 25.7929 239.887 25.7639C239.833 25.7338 239.785 25.693 239.747 25.6441C239.708 25.5952 239.68 25.5392 239.664 25.4792C239.647 25.4192 239.643 25.3566 239.651 25.295C239.659 25.2333 239.679 25.1739 239.711 25.1202C240.068 24.4643 240.578 23.904 241.198 23.4866C241.817 23.0692 242.528 22.8069 243.27 22.7219C243.332 22.7185 243.393 22.7272 243.451 22.7476C243.509 22.768 243.562 22.7996 243.608 22.8406C243.654 22.8817 243.691 22.9313 243.717 22.9868C243.744 23.0422 243.759 23.1023 243.762 23.1637C243.766 23.2868 243.722 23.4065 243.64 23.4982C243.558 23.5898 243.443 23.6463 243.321 23.656C242.736 23.7401 242.18 23.9597 241.695 24.2972C241.211 24.6347 240.812 25.0808 240.531 25.5998C240.485 25.6507 240.428 25.6916 240.365 25.7198C240.302 25.748 240.234 25.763 240.165 25.7639Z" fill="#191919"/>
<path d="M266.988 379.547C266.31 379.599 265.634 379.421 265.069 379.042C264.89 378.888 264.753 378.692 264.669 378.472C264.585 378.251 264.558 378.013 264.589 377.78C264.586 377.643 264.622 377.508 264.694 377.392C264.766 377.275 264.87 377.182 264.993 377.123C266.091 376.555 269.285 378.525 269.651 378.752C269.689 378.775 269.72 378.809 269.74 378.849C269.76 378.889 269.769 378.934 269.765 378.979C269.756 379.025 269.735 379.068 269.704 379.104C269.673 379.139 269.633 379.166 269.588 379.181C268.737 379.398 267.865 379.52 266.988 379.547ZM265.511 377.489C265.406 377.481 265.301 377.503 265.208 377.553C265.145 377.553 265.069 377.641 265.056 377.83C265.034 377.986 265.052 378.145 265.107 378.293C265.162 378.441 265.253 378.572 265.372 378.676C266.481 379.181 267.74 379.244 268.894 378.853C267.865 378.184 266.716 377.721 265.511 377.489Z" fill="#0098DB"/>
<path d="M269.525 379.194H269.411C268.389 378.638 266.394 376.455 266.609 375.407C266.644 375.234 266.736 375.078 266.872 374.966C267.008 374.853 267.178 374.791 267.354 374.788C267.534 374.763 267.717 374.777 267.892 374.829C268.066 374.882 268.227 374.971 268.364 375.091C269.512 376.025 269.752 378.878 269.765 379.017C269.765 379.059 269.755 379.101 269.735 379.139C269.715 379.176 269.686 379.208 269.651 379.231C269.606 379.232 269.562 379.219 269.525 379.194ZM267.518 375.167H267.417C267.114 375.167 267.089 375.344 267.076 375.407C266.95 376.051 268.212 377.704 269.234 378.474C269.168 377.344 268.759 376.261 268.061 375.369C267.91 375.238 267.717 375.166 267.518 375.167Z" fill="#0098DB"/>
<path d="M199.899 369.929C198.271 369.815 195.418 369.436 194.623 368.212C194.494 368.03 194.416 367.818 194.396 367.596C194.376 367.374 194.415 367.151 194.509 366.95C194.547 366.825 194.617 366.712 194.712 366.624C194.807 366.535 194.925 366.473 195.052 366.445C196.314 366.142 199.697 369.133 200.101 369.474C200.137 369.503 200.163 369.542 200.176 369.585C200.189 369.629 200.189 369.676 200.176 369.719C200.162 369.763 200.136 369.801 200.1 369.83C200.064 369.858 200.02 369.875 199.975 369.878L199.899 369.929ZM195.191 366.95H195.115C195.066 366.962 195.022 366.987 194.986 367.023C194.951 367.058 194.925 367.103 194.913 367.152C194.856 367.282 194.833 367.424 194.846 367.565C194.859 367.707 194.908 367.842 194.989 367.96C195.431 368.641 196.983 369.222 199.192 369.399C197.854 368.25 195.986 366.861 195.191 366.95Z" fill="#0098DB"/>
<path d="M199.899 369.929C199.871 369.94 199.841 369.947 199.811 369.947C199.78 369.947 199.75 369.94 199.722 369.929C198.712 369.096 196.996 366.394 197.463 365.359C197.576 365.119 197.842 364.854 198.485 364.955C198.716 364.995 198.936 365.08 199.134 365.205C199.331 365.331 199.501 365.495 199.634 365.687C200.581 367.025 200.126 369.676 200.101 369.79C200.093 369.83 200.075 369.867 200.048 369.898C200.022 369.929 199.988 369.952 199.949 369.966L199.899 369.929ZM198.132 365.359C198.081 365.356 198.03 365.369 197.987 365.396C197.944 365.423 197.911 365.463 197.892 365.511C197.614 366.129 198.712 368.174 199.697 369.209C199.895 368.092 199.741 366.94 199.255 365.915C199.159 365.771 199.034 365.649 198.889 365.556C198.743 365.462 198.58 365.4 198.41 365.372C198.315 365.366 198.221 365.379 198.132 365.41V365.359Z" fill="#0098DB"/>
<path d="M274.776 83.3478L278.373 87.1345C279.635 88.3968 280.784 89.659 281.971 91.0349C284.344 93.6477 286.641 96.3237 288.875 99.0249C291.109 101.726 293.242 104.478 295.186 107.28C296.184 108.681 297.067 110.107 297.989 111.521L299.251 113.667L299.402 113.932C299.402 113.995 299.402 113.856 299.402 113.831C299.392 113.739 299.392 113.646 299.402 113.553C299.402 113.452 299.402 113.377 299.402 113.452C299.438 114.43 299.275 115.405 298.923 116.318C298.442 117.786 297.851 119.217 297.155 120.597C295.648 123.692 293.962 126.697 292.106 129.597C288.32 135.567 284.104 141.575 279.837 147.382L285.265 152.431C290.978 147.42 296.288 141.967 301.144 136.122C303.671 133.102 305.99 129.913 308.087 126.58C309.209 124.755 310.2 122.852 311.053 120.887C312.195 118.411 312.805 115.724 312.845 112.998C312.835 112.042 312.721 111.089 312.504 110.158C312.38 109.619 312.212 109.091 312 108.58L311.684 107.848L311.52 107.495L310.194 104.756C309.26 102.988 308.326 101.196 307.266 99.5298C305.257 96.1739 303.062 92.9332 300.69 89.8231C298.38 86.718 295.931 83.7517 293.381 80.8738C292.119 79.4474 290.857 78.0337 289.468 76.6452C288.08 75.2567 286.83 73.9314 285.303 72.4924L274.776 83.3478Z" fill="#FFC3BD"/>
<path d="M283.22 145.955L273.122 145.652L278.032 157.328C278.032 157.328 286.666 155.675 286.3 151.017L283.22 145.955Z" fill="#FFC3BD"/>
<path d="M266.432 150.512L270.964 159.979L278.083 157.328L273.148 145.652L266.432 150.512Z" fill="#FFC3BD"/>
<path d="M281.642 67.3804C291.122 67.7717 305.814 87.488 305.814 87.488L290.352 108.467C290.352 108.467 279.37 97.1063 272.605 86.9074C265.233 75.7617 270.156 66.8881 281.642 67.3804Z" fill="#407BFF"/>
<path d="M281.642 67.3804C291.122 67.7717 305.814 87.488 305.814 87.488L290.352 108.467C290.352 108.467 279.37 97.1063 272.605 86.9074C265.233 75.7617 270.156 66.8881 281.642 67.3804Z" fill="#CCEAF8"/>
<circle cx="386.373" cy="45.3726" r="40.5685" transform="rotate(-45 386.373 45.3726)" fill="#FF9500"/>
<g clip-path="url(#clip1)">
<path d="M400.477 39.4865C399.052 38.9023 397.402 38.8885 395.527 39.4454C397.007 37.1645 396.88 34.8165 395.148 32.4005C394.527 31.5203 393.805 30.8633 392.982 30.4288C392.158 29.9942 391.261 29.7803 390.289 29.788C389.317 29.7948 388.338 29.938 387.354 30.2153C386.37 30.4928 385.292 30.9034 384.124 31.447L381.052 26.1262L377.8 28.0033L380.787 33.1763C380.224 33.5013 379.373 34.0111 378.236 34.7056L375.225 29.4904L371.973 31.3678L375.045 36.6886C374.588 36.971 373.91 37.3722 373.009 37.8923L368.521 40.4553L370.52 43.9181L372.863 42.5651C373.933 41.9474 374.836 42.0645 375.572 42.9159L379.07 48.9758C379.211 48.8944 379.328 48.8367 379.42 48.802L379.083 48.9971L383.983 57.4847C384.285 58.2673 384.084 58.8622 383.38 59.2685L381.037 60.6215L382.613 64.8634L386.836 62.4254C387.103 62.2709 387.492 62.0511 388.003 61.7648C388.514 61.4794 388.896 61.2636 389.149 61.1173L392.257 66.5013L395.51 64.6236L392.438 59.3029C393.037 58.9761 393.9 58.4872 395.026 57.8371L398.085 63.1365L401.337 61.2593L398.228 55.8753C399.35 55.1526 400.314 54.4564 401.117 53.7852C401.922 53.1137 402.637 52.3774 403.262 51.5752C403.887 50.7734 404.332 49.9673 404.597 49.1577C404.862 48.3484 404.953 47.4599 404.874 46.4921C404.793 45.5249 404.514 44.5129 404.036 43.4566C403.09 41.3944 401.903 40.0711 400.477 39.4865ZM380.493 38.4691C380.591 38.4122 380.867 38.2482 381.321 37.9769C381.774 37.7054 382.15 37.4791 382.449 37.2973C382.747 37.1156 383.166 36.8975 383.704 36.643C384.242 36.3886 384.708 36.1952 385.1 36.0623C385.492 35.9295 385.947 35.822 386.462 35.7403C386.978 35.658 387.43 35.6602 387.817 35.7463C388.204 35.8321 388.59 36.004 388.973 36.2615C389.356 36.5187 389.682 36.8796 389.95 37.3441C390.177 37.7382 390.321 38.1338 390.382 38.5307C390.443 38.9274 390.409 39.3084 390.281 39.6727C390.154 40.0371 390.003 40.3779 389.829 40.6941C389.655 41.0101 389.389 41.3376 389.031 41.6757C388.672 42.0139 388.355 42.3006 388.078 42.5355C387.8 42.7707 387.436 43.0329 386.983 43.3222C386.531 43.6114 386.187 43.829 385.952 43.974C385.717 44.1192 385.389 44.3081 384.97 44.541C384.551 44.7739 384.306 44.9102 384.235 44.9509L380.493 38.4689L380.493 38.469L380.493 38.4691ZM397.673 47.7215C397.726 48.1228 397.717 48.5039 397.644 48.8651C397.57 49.226 397.414 49.598 397.175 49.9797C396.936 50.362 396.687 50.7027 396.428 51.0021C396.17 51.3022 395.835 51.6258 395.427 51.9744C395.018 52.3234 394.652 52.6143 394.327 52.849C394.002 53.0833 393.607 53.349 393.141 53.6467C392.674 53.9436 392.307 54.1698 392.04 54.3242C391.772 54.4786 391.432 54.6698 391.02 54.8987C390.608 55.1279 390.346 55.2745 390.233 55.3396L386.112 48.2027C386.225 48.1378 386.555 47.9379 387.103 47.6025C387.651 47.2671 388.101 46.9986 388.453 46.7954C388.805 46.5923 389.303 46.3326 389.947 46.0174C390.59 45.7019 391.147 45.4643 391.619 45.3047C392.09 45.1456 392.625 45.0097 393.227 44.8971C393.828 44.7845 394.357 44.7654 394.813 44.8399C395.269 44.9149 395.716 45.0879 396.155 45.3603C396.594 45.6322 396.96 46.0217 397.252 46.5286C397.48 46.9232 397.62 47.3201 397.673 47.7215Z" fill="white"/>
</g>
<g clip-path="url(#clip2)">
<path d="M239.802 114.6C239.967 112.597 240.152 110.578 240.281 108.573C240.311 107.986 240.499 107.895 241.046 108.047C242.81 108.531 242.812 108.513 242.663 110.321C242.441 113.015 242.238 115.693 241.981 118.384C241.929 119.004 242.091 119.232 242.707 119.425C246.399 120.604 249.236 118.357 250.314 115.787C251.723 112.477 250.59 108.922 247.545 107.119C245.861 106.106 243.922 105.768 242.099 105.118C240.647 104.57 240.626 104.604 240.747 103.133C241.134 98.6503 241.521 94.1677 241.856 89.6629C241.922 88.8654 242.211 88.6394 242.943 88.5212C248.212 87.6348 253.069 90.872 253.828 95.8951C254.188 98.3159 253.855 100.608 252.352 102.643C251.865 103.299 251.411 103.565 250.687 102.935C250.35 102.639 249.765 102.52 249.612 102.186C249.412 101.759 250.079 101.546 250.306 101.208C251.671 99.0899 251.837 96.8553 250.722 94.6222C249.625 92.3905 247.717 91.2341 245.202 91.0984C244.574 91.0645 244.202 91.1944 244.154 91.9935C243.934 95.33 243.641 98.6605 243.347 102.009C243.301 102.576 243.406 102.834 244.005 103.009C245.802 103.531 247.592 104.143 249.204 105.168C252.376 107.178 253.973 110.789 253.304 114.534C252.589 118.615 249.981 121.577 246.37 122.261C244.116 122.682 241.907 122.339 239.748 121.608C239.257 121.443 239.246 121.139 239.297 120.733C239.467 118.677 239.634 116.638 239.802 114.6Z" fill="#0098DB"/>
</g>
<circle cx="95.0496" cy="91.0495" r="23.7188" transform="rotate(15 95.0496 91.0495)" fill="#627EEA"/>
<g clip-path="url(#clip3)">
<path d="M93.7784 95.8613L86.1948 89.3977L90.8164 106.916L103.578 94.0555L93.7784 95.8613Z" fill="white"/>
<path d="M103.457 90.7206L99.3164 75.1931L87.9539 86.5831L96.6934 84.9825L103.457 90.7206Z" fill="white"/>
<path d="M88.1583 88.5084L94.3414 93.7604L102.335 92.3012L96.1404 87.0463L88.1583 88.5084Z" fill="white" fill-opacity="0.5"/>
</g>
</g>
<defs>
<clipPath id="clip0">
<rect width="490.428" height="404" fill="white"/>
</clipPath>
<clipPath id="clip1">
<rect width="40.5685" height="40.5685" fill="white" transform="translate(360.576 37.948) rotate(-30)"/>
</clipPath>
<clipPath id="clip2">
<rect width="13.8099" height="34.2691" fill="white" transform="translate(241.813 88) rotate(4.70856)"/>
</clipPath>
<clipPath id="clip3">
<rect width="32.8414" height="32.8414" fill="white" transform="translate(83.438 70.9385) rotate(15)"/>
</clipPath>
</defs>
</svg>
