<svg width="488" height="447" viewBox="0 0 488 447" fill="none" xmlns="http://www.w3.org/2000/svg">
<g clip-path="url(#clip0)">
<path d="M405.619 403.885H362.7V404.197H405.619V403.885Z" fill="#E6E6E6"/>
<path d="M247.594 403.311H198.637V403.623H247.594V403.311Z" fill="#E6E6E6"/>
<path d="M197.39 398.869H175.506V399.181H197.39V398.869Z" fill="#E6E6E6"/>
<path d="M462.223 5.44275H292.197V203.566H462.223V5.44275Z" fill="#E0E0E0"/>
<path d="M466.839 5.44275H294.355V203.566H466.839V5.44275Z" fill="#FAFAFA"/>
<path d="M462.223 203.566H292.197V214.67H462.223V203.566Z" fill="#E0E0E0"/>
<path d="M487.974 203.566H325.596V214.67H487.974V203.566Z" fill="#F3F6FA"/>
<path d="M460.377 195.157V13.8392L300.83 13.8392V195.157H460.377Z" fill="#FAFAFA"/>
<path d="M323.774 195.157L361.752 13.8517H411.532L373.555 195.157H323.774Z" fill="white"/>
<path d="M381.614 195.157L419.58 13.8517H442.062L404.097 195.157H381.614Z" fill="white"/>
<path d="M287.343 5.15578V75.6966H306.058C306.058 75.6966 339.581 53.8257 347.229 8.8238C347.41 7.75206 347.356 6.65374 347.07 5.60516C346.784 4.55657 346.273 3.58289 345.572 2.75178C344.872 1.92068 343.999 1.2521 343.014 0.792504C342.029 0.332909 340.955 0.0933214 339.868 0.0904091H292.459C291.79 0.0854763 291.126 0.212772 290.507 0.464967C289.887 0.717163 289.323 1.08929 288.848 1.55998C288.373 2.03067 287.995 2.59064 287.737 3.20773C287.479 3.82481 287.345 4.48684 287.343 5.15578Z" fill="#E7EAEE"/>
<path d="M287.343 188.769V81.3857H306.058C306.058 81.3857 316.787 103.069 327.479 127.997C330.323 134.629 331.476 141.864 330.835 149.052C330.194 156.24 327.778 163.156 323.804 169.18C319.831 175.203 314.424 180.147 308.069 183.566C301.714 186.985 294.61 188.773 287.393 188.769H287.343Z" fill="#E7EAEE"/>
<path d="M305.459 75.6966H288.03C286.996 75.6966 286.158 76.5345 286.158 77.568V79.5143C286.158 80.5479 286.996 81.3858 288.03 81.3858H305.459C306.493 81.3858 307.33 80.5479 307.33 79.5143V77.568C307.33 76.5345 306.493 75.6966 305.459 75.6966Z" fill="#E2E6EB"/>
<path d="M472.167 5.15576V75.6966H453.453C453.453 75.6966 419.916 53.8257 412.281 8.82378C412.1 7.75308 412.154 6.65582 412.44 5.60813C412.725 4.56043 413.235 3.58739 413.934 2.75651C414.633 1.92562 415.505 1.25679 416.488 0.796411C417.472 0.336028 418.544 0.0951125 419.63 0.0903943H467.039C467.709 0.0838076 468.374 0.209881 468.995 0.461336C469.616 0.71279 470.181 1.08466 470.658 1.55551C471.134 2.02637 471.513 2.58689 471.772 3.2048C472.031 3.8227 472.165 4.48576 472.167 5.15576Z" fill="#E7EAEE"/>
<path d="M472.291 188.794V81.4107H453.577C453.577 81.4107 442.848 103.082 432.143 128.022C429.318 134.656 428.181 141.887 428.832 149.068C429.482 156.249 431.901 163.158 435.872 169.176C439.844 175.195 445.243 180.136 451.59 183.559C457.936 186.983 465.031 188.781 472.242 188.794H472.291Z" fill="#E7EAEE"/>
<path d="M454.014 81.3857H471.443C472.477 81.3857 473.314 80.5479 473.314 79.5143V77.568C473.314 76.5344 472.477 75.6966 471.443 75.6966H454.014C452.98 75.6966 452.142 76.5344 452.142 77.568V79.5143C452.142 80.5479 452.98 81.3857 454.014 81.3857Z" fill="#E2E6EB"/>
<path d="M185.076 92.7267H110.181V174.708H185.076V92.7267Z" fill="#E7EAEE"/>
<path d="M195.606 92.7267H114.235V174.708H195.606V92.7267Z" fill="#F3F6FA"/>
<path d="M187.209 166.337V101.136H122.619V166.337H187.209Z" fill="white"/>
<path d="M137.803 133.724C137.806 129.639 139.431 125.723 142.32 122.837C145.209 119.95 149.127 118.328 153.211 118.328H156.679C160.761 118.331 164.676 119.954 167.562 122.841C170.449 125.727 172.072 129.642 172.075 133.724C172.075 135.745 171.677 137.747 170.903 139.615C170.129 141.483 168.995 143.18 167.566 144.61C166.136 146.04 164.439 147.174 162.571 147.947C160.703 148.721 158.701 149.119 156.679 149.119H153.211C151.188 149.121 149.185 148.724 147.315 147.951C145.446 147.178 143.747 146.044 142.316 144.615C140.886 143.185 139.75 141.487 138.976 139.618C138.201 137.75 137.803 135.747 137.803 133.724Z" fill="#F5F5F5"/>
<path d="M49.5209 112.289C39.0979 112.289 29.1017 108.149 21.7315 100.779C14.3612 93.4085 10.2207 83.4123 10.2207 72.9892C10.2207 62.5661 14.3612 52.57 21.7315 45.1997C29.1017 37.8295 39.0979 33.689 49.5209 33.689H56.6199V112.289H49.5209Z" fill="#E7EAEE"/>
<path d="M56.62 112.289C78.3111 112.289 95.8953 94.7053 95.8953 73.0142C95.8953 51.323 78.3111 33.7389 56.62 33.7389C34.9289 33.7389 17.3447 51.323 17.3447 73.0142C17.3447 94.7053 34.9289 112.289 56.62 112.289Z" fill="#F3F6FA"/>
<path d="M56.6201 102.633C72.9781 102.633 86.2388 89.3721 86.2388 73.0142C86.2388 56.6562 72.9781 43.3955 56.6201 43.3955C40.2622 43.3955 27.0015 56.6562 27.0015 73.0142C27.0015 89.3721 40.2622 102.633 56.6201 102.633Z" fill="white"/>
<path d="M68.8218 84.0931L54.2744 73.9499L58.8906 51.5051L63.0078 52.3535L58.953 72.0785L71.2297 80.6372L68.8218 84.0931Z" fill="#E7EAEE"/>
<path d="M374.029 250.439H320.493V395.089H374.029V250.439Z" fill="#E0E0E0"/>
<path d="M359.731 395.089H374.029V371.135H344.747L359.731 395.089Z" fill="#FAFAFA"/>
<path d="M53.0767 250.439H-0.458984V395.089H53.0767V250.439Z" fill="#F3F6FA"/>
<path d="M374.041 250.439H40.6006V386.842H374.041V250.439Z" fill="white"/>
<path d="M54.8984 395.089H40.6006V371.135H69.8824L54.8984 395.089Z" fill="white"/>
<path d="M362.95 262.167H51.6919V312.371H362.95V262.167Z" fill="#F0F0F0"/>
<path d="M362.95 324.511H51.6919V374.715H362.95V324.511Z" fill="#F0F0F0"/>
<path d="M317.312 262.167H51.6919V312.371H317.312V262.167Z" fill="#F3F6FA"/>
<path d="M133.486 268.941H117.329C117.329 268.941 120.137 278.636 120.137 284.337C120.137 290.039 107.848 312.384 125.414 312.384C142.981 312.384 130.679 290.039 130.679 284.337C130.679 278.636 133.486 268.941 133.486 268.941Z" fill="#FAFAFA"/>
<path d="M69.8823 285.784V294.605C69.8823 304.387 79.3393 312.384 90.8924 312.384H101.31C112.863 312.384 122.32 304.387 122.32 294.605V285.784H69.8823Z" fill="#F0F0F0"/>
<path d="M317.312 324.511H51.6919V374.715H317.312V324.511Z" fill="#F3F6FA"/>
<path d="M200.87 373.817H225.748V332.383H200.87V373.817Z" fill="white"/>
<path d="M221.868 374.453H223.565V333.02H221.868V374.453Z" fill="#E6E6E6"/>
<path d="M223.69 374.765H228.032C228.362 374.765 228.63 374.497 228.63 374.166V333.294C228.63 332.963 228.362 332.695 228.032 332.695H223.69C223.359 332.695 223.091 332.963 223.091 333.294V374.166C223.091 374.497 223.359 374.765 223.69 374.765Z" fill="#EBEBEB"/>
<path d="M223.091 352.133H228.63V342.302H223.091V352.133Z" fill="white"/>
<path d="M223.091 361.241H228.63V355.177H223.091V361.241Z" fill="white"/>
<path d="M199.598 374.765H222.018C222.349 374.765 222.617 374.497 222.617 374.166V333.294C222.617 332.963 222.349 332.695 222.018 332.695H199.598C199.267 332.695 198.999 332.963 198.999 333.294V374.166C198.999 374.497 199.267 374.765 199.598 374.765Z" fill="#EBEBEB"/>
<path d="M188.731 373.705H216.179V327.992H188.731V373.705Z" fill="white"/>
<path d="M211.925 374.428H213.784V328.715H211.925V374.428Z" fill="#E6E6E6"/>
<path d="M213.921 374.778H218.712C219.077 374.778 219.373 374.482 219.373 374.116V329.027C219.373 328.662 219.077 328.366 218.712 328.366H213.921C213.556 328.366 213.26 328.662 213.26 329.027V374.116C213.26 374.482 213.556 374.778 213.921 374.778Z" fill="#F0F0F0"/>
<path d="M213.26 344.735H219.373V343.15H213.26V344.735Z" fill="white"/>
<path d="M213.26 349.314H219.373V347.729H213.26V349.314Z" fill="white"/>
<path d="M213.26 353.892H219.373V352.308H213.26V353.892Z" fill="white"/>
<path d="M187.346 374.778H212.074C212.439 374.778 212.735 374.482 212.735 374.116V329.027C212.735 328.662 212.439 328.366 212.074 328.366H187.346C186.981 328.366 186.685 328.662 186.685 329.027V374.116C186.685 374.482 186.981 374.778 187.346 374.778Z" fill="#F0F0F0"/>
<path d="M154.92 358.845C154.923 360.238 154.512 361.599 153.741 362.758C152.969 363.917 151.871 364.821 150.585 365.355C149.3 365.89 147.884 366.031 146.519 365.761C145.153 365.491 143.898 364.822 142.913 363.838C141.927 362.854 141.256 361.601 140.983 360.235C140.711 358.87 140.849 357.455 141.382 356.168C141.914 354.882 142.816 353.782 143.973 353.008C145.131 352.234 146.492 351.821 147.884 351.821C149.748 351.821 151.536 352.561 152.855 353.878C154.174 355.195 154.917 356.981 154.92 358.845Z" fill="#FAFAFA"/>
<path d="M142.931 362.202C142.931 363.29 142.608 364.353 142.004 365.258C141.399 366.163 140.54 366.868 139.534 367.285C138.529 367.701 137.423 367.81 136.355 367.598C135.288 367.386 134.308 366.862 133.538 366.092C132.769 365.323 132.245 364.342 132.032 363.275C131.82 362.208 131.929 361.101 132.346 360.096C132.762 359.091 133.467 358.231 134.372 357.627C135.277 357.022 136.341 356.7 137.429 356.7C138.887 356.703 140.285 357.284 141.316 358.315C142.347 359.346 142.928 360.743 142.931 362.202Z" fill="#FAFAFA"/>
<path d="M166.96 362.202C166.96 363.593 166.547 364.954 165.774 366.111C165.001 367.268 163.902 368.17 162.616 368.703C161.33 369.235 159.916 369.374 158.551 369.103C157.186 368.831 155.932 368.161 154.948 367.177C153.964 366.193 153.293 364.939 153.022 363.574C152.75 362.209 152.89 360.795 153.422 359.509C153.955 358.223 154.857 357.124 156.014 356.351C157.171 355.578 158.532 355.165 159.923 355.165C161.789 355.168 163.576 355.911 164.895 357.23C166.214 358.549 166.957 360.336 166.96 362.202Z" fill="#FAFAFA"/>
<path d="M178.488 360.143C178.488 361.535 178.076 362.895 177.302 364.052C176.529 365.209 175.43 366.111 174.144 366.644C172.859 367.177 171.444 367.316 170.079 367.044C168.714 366.773 167.46 366.103 166.476 365.119C165.492 364.135 164.822 362.881 164.55 361.516C164.279 360.151 164.418 358.736 164.951 357.45C165.483 356.164 166.385 355.065 167.542 354.292C168.699 353.519 170.06 353.106 171.452 353.106C173.318 353.106 175.108 353.848 176.427 355.167C177.747 356.487 178.488 358.277 178.488 360.143Z" fill="#FAFAFA"/>
<path d="M118.065 361.054C118.065 361.054 119.026 374.778 156.043 374.778C193.06 374.778 194.021 361.054 194.021 361.054H118.065Z" fill="#F5F5F5"/>
<path d="M221.868 298.66C221.868 298.66 223.403 312.384 282.066 312.384C340.73 312.384 342.252 298.66 342.252 298.66H221.868Z" fill="white"/>
<path d="M246.347 447.015C379.946 447.015 488.249 440.692 488.249 432.892C488.249 425.092 379.946 418.769 246.347 418.769C112.748 418.769 4.44434 425.092 4.44434 432.892C4.44434 440.692 112.748 447.015 246.347 447.015Z" fill="#F3F6FA"/>
<path d="M117.743 245.855C144.131 219.466 144.131 176.683 117.743 150.294C91.3547 123.906 48.5709 123.906 22.1826 150.294C-4.20572 176.683 -4.20571 219.466 22.1826 245.855C48.5709 272.243 91.3547 272.243 117.743 245.855Z" fill="#407BFF"/>
<path d="M117.743 245.855C144.131 219.466 144.131 176.683 117.743 150.294C91.3547 123.906 48.5709 123.906 22.1826 150.294C-4.20572 176.683 -4.20571 219.466 22.1826 245.855C48.5709 272.243 91.3547 272.243 117.743 245.855Z" fill="#0098DB"/>
<path d="M125.902 207.616C131.172 176.724 110.401 147.41 79.5091 142.141C48.6176 136.871 19.3034 157.642 14.0341 188.534C8.76477 219.426 29.5357 248.74 60.4273 254.009C91.3189 259.278 120.633 238.507 125.902 207.616Z" fill="#006A99"/>
<path d="M128.614 203.509C130.72 173.425 108.039 147.33 77.9558 145.224C47.8721 143.119 21.7773 165.799 19.6714 195.883C17.5655 225.967 40.2461 252.061 70.3298 254.167C100.413 256.273 126.508 233.593 128.614 203.509Z" fill="#407BFF"/>
<path d="M128.614 203.509C130.72 173.425 108.039 147.33 77.9558 145.224C47.8721 143.119 21.7773 165.799 19.6714 195.883C17.5655 225.967 40.2461 252.061 70.3298 254.167C100.413 256.273 126.508 233.593 128.614 203.509Z" fill="#0098DB"/>
<g clip-path="url(#clip1)">
<path d="M72.1675 222.091C70.2162 218.711 68.2778 215.284 66.266 211.939C65.6659 210.969 65.8647 210.615 66.9058 210.253C70.2583 209.075 70.241 209.046 72.0024 212.096C74.6272 216.643 77.265 221.142 79.8294 225.723C80.4338 226.77 80.9434 226.954 82.1401 226.582C89.3373 224.381 91.3827 217.657 90.2614 212.362C88.8511 205.519 83.1118 201.096 76.2564 201.585C72.4464 201.83 68.9772 203.434 65.3484 204.413C62.4237 205.144 62.428 205.221 60.9947 202.739C56.656 195.154 52.3173 187.569 47.8706 180.007C47.0935 178.661 47.3054 177.981 48.3424 176.983C55.7746 169.741 67.1094 169.538 73.8759 176.718C77.1274 180.184 79.1304 184.212 78.9819 189.124C78.9295 190.709 78.4972 191.637 76.6442 191.43C75.7803 191.331 74.7132 191.788 74.0999 191.424C73.3096 190.963 74.1393 189.886 74.1266 189.095C73.9641 184.204 71.758 180.453 67.5083 178.121C63.2887 175.771 58.9647 176.035 54.7997 178.599C53.7585 179.24 53.309 179.858 54.1164 181.187C57.4536 186.757 60.6699 192.398 63.9034 198.069C64.456 199.026 64.9095 199.322 66.0586 198.938C69.5061 197.785 73.0398 196.782 76.7461 196.636C84.0335 196.337 90.5764 200.336 93.6497 207.056C97.021 214.362 96.1329 221.973 91.1248 227.058C87.992 230.223 84.0864 232.119 79.8312 233.339C78.8635 233.619 78.5094 233.145 78.1425 232.44C76.1393 228.97 74.1534 225.53 72.1675 222.091Z" fill="white"/>
</g>
<path d="M214.156 144.338C230.968 124.445 228.469 94.689 208.575 77.8775C188.681 61.0659 158.926 63.5646 142.114 83.4583C125.303 103.352 127.801 133.108 147.695 149.919C167.589 166.731 197.344 164.232 214.156 144.338Z" fill="#FF9500"/>
<path d="M208.659 139.094C222.594 122.238 220.226 97.2767 203.369 83.3419C186.513 69.4072 161.552 71.7755 147.617 88.6317C133.683 105.488 136.051 130.449 152.907 144.384C169.763 158.318 194.724 155.95 208.659 139.094Z" fill="#F06A0B"/>
<path d="M209.854 139.508C222.603 122.827 219.416 98.9687 202.735 86.2196C186.053 73.4706 162.196 76.6581 149.447 93.3393C136.697 110.02 139.885 133.878 156.566 146.627C173.247 159.376 197.105 156.189 209.854 139.508Z" fill="#407BFF"/>
<path d="M209.854 139.508C222.603 122.827 219.416 98.9687 202.735 86.2196C186.053 73.4706 162.196 76.6581 149.447 93.3393C136.697 110.02 139.885 133.878 156.566 146.627C173.247 159.376 197.105 156.189 209.854 139.508Z" fill="#FF9500"/>
<g clip-path="url(#clip2)">
<path d="M191.243 119.31C190.717 118.052 189.693 117.01 188.171 116.185C190.524 115.684 191.915 114.135 192.343 111.539C192.505 110.599 192.464 109.737 192.221 108.949C191.977 108.162 191.55 107.466 190.937 106.863C190.324 106.259 189.622 105.736 188.832 105.293C188.043 104.851 187.112 104.434 186.04 104.043L187.447 98.7898L184.238 97.9298L182.869 103.037C182.313 102.888 181.462 102.674 180.315 102.397L181.695 97.2485L178.485 96.3883L177.077 101.641C176.615 101.532 175.939 101.359 175.05 101.12L170.636 99.9153L169.72 103.334L172.034 103.954C173.09 104.237 173.582 104.875 173.509 105.868L171.906 111.85C172.046 111.888 172.155 111.925 172.234 111.961L171.901 111.872L169.656 120.251C169.355 120.929 168.857 121.176 168.162 120.99L165.849 120.37L164.18 124.011L168.349 125.128C168.613 125.199 168.994 125.305 169.493 125.445C169.991 125.586 170.365 125.69 170.615 125.757L169.191 131.072L172.402 131.933L173.809 126.68C174.389 126.851 175.235 127.085 176.346 127.382L174.945 132.614L178.154 133.474L179.579 128.159C180.733 128.409 181.772 128.576 182.695 128.659C183.618 128.742 184.527 128.729 185.42 128.618C186.313 128.508 187.096 128.282 187.769 127.94C188.441 127.6 189.054 127.101 189.61 126.446C190.165 125.79 190.624 124.982 190.986 124.021C191.684 122.139 191.77 120.568 191.243 119.31ZM179.372 106.165C179.47 106.191 179.745 106.261 180.199 106.375C180.652 106.489 181.029 106.583 181.33 106.656C181.631 106.729 182.029 106.854 182.525 107.032C183.021 107.21 183.434 107.38 183.762 107.542C184.091 107.705 184.443 107.922 184.816 108.193C185.191 108.465 185.472 108.749 185.66 109.045C185.849 109.341 185.983 109.69 186.061 110.091C186.14 110.492 186.118 110.921 185.995 111.38C185.891 111.769 185.734 112.107 185.523 112.393C185.313 112.679 185.053 112.896 184.746 113.045C184.438 113.193 184.13 113.312 183.823 113.401C183.517 113.49 183.145 113.528 182.709 113.515C182.273 113.503 181.895 113.484 181.575 113.457C181.254 113.431 180.862 113.367 180.397 113.265C179.933 113.162 179.582 113.084 179.344 113.027C179.106 112.971 178.783 112.884 178.374 112.767C177.966 112.651 177.728 112.583 177.658 112.564L179.373 106.165L179.373 106.165L179.372 106.165ZM184.334 122.708C184.116 122.993 183.872 123.225 183.6 123.406C183.328 123.586 182.998 123.721 182.609 123.81C182.221 123.9 181.851 123.957 181.502 123.982C181.152 124.008 180.741 124.002 180.267 123.965C179.792 123.927 179.381 123.88 179.031 123.823C178.681 123.767 178.267 123.686 177.789 123.58C177.311 123.474 176.94 123.386 176.676 123.315C176.412 123.244 176.08 123.151 175.678 123.036C175.277 122.922 175.021 122.849 174.91 122.82L176.798 115.774C176.909 115.804 177.241 115.885 177.793 116.018C178.346 116.152 178.796 116.265 179.143 116.358C179.491 116.451 179.965 116.6 180.565 116.806C181.165 117.011 181.663 117.211 182.058 117.406C182.452 117.602 182.872 117.852 183.319 118.158C183.766 118.464 184.109 118.783 184.348 119.115C184.586 119.447 184.758 119.835 184.862 120.28C184.966 120.725 184.951 121.198 184.817 121.698C184.713 122.088 184.552 122.424 184.334 122.708Z" fill="white"/>
</g>
<path d="M407.54 203.578H85.1654C74.7953 203.578 66.3887 211.985 66.3887 222.355V411.059C66.3887 421.429 74.7953 429.836 85.1654 429.836H407.54C417.91 429.836 426.316 421.429 426.316 411.059V222.355C426.316 211.985 417.91 203.578 407.54 203.578Z" fill="#CCEAF8"/>
<path opacity="0.2" d="M368.052 282.366C380.917 282.366 391.346 271.937 391.346 259.073C391.346 246.208 380.917 235.78 368.052 235.78C355.188 235.78 344.759 246.208 344.759 259.073C344.759 271.937 355.188 282.366 368.052 282.366Z" fill="#18A1DE"/>
<path d="M337.985 282.366C350.849 282.366 361.278 271.937 361.278 259.073C361.278 246.208 350.849 235.78 337.985 235.78C325.12 235.78 314.691 246.208 314.691 259.073C314.691 271.937 325.12 282.366 337.985 282.366Z" fill="#0098DB"/>
<path d="M164.926 282.366H109.444C104.979 282.366 101.359 285.986 101.359 290.451V326.719C101.359 331.184 104.979 334.804 109.444 334.804H164.926C169.391 334.804 173.011 331.184 173.011 326.719V290.451C173.011 285.986 169.391 282.366 164.926 282.366Z" fill="#0098DB"/>
<path d="M203.315 230.065H107.086C103.923 230.065 101.359 232.627 101.359 235.786C101.359 238.945 103.923 241.506 107.086 241.506H203.315C206.478 241.506 209.042 238.945 209.042 235.786C209.042 232.627 206.478 230.065 203.315 230.065Z" fill="#A8DBF3"/>
<path d="M153.036 360.829H109.756C105.119 360.829 101.359 364.588 101.359 369.226V377.073C101.359 381.711 105.119 385.47 109.756 385.47H153.036C157.673 385.47 161.433 381.711 161.433 377.073V369.226C161.433 364.588 157.673 360.829 153.036 360.829Z" fill="#0098DB"/>
<path d="M229.665 360.829H186.385C181.748 360.829 177.989 364.588 177.989 369.226V377.073C177.989 381.711 181.748 385.47 186.385 385.47H229.665C234.303 385.47 238.062 381.711 238.062 377.073V369.226C238.062 364.588 234.303 360.829 229.665 360.829Z" fill="#0098DB"/>
<path d="M306.307 360.829H263.027C258.39 360.829 254.63 364.588 254.63 369.226V377.073C254.63 381.711 258.39 385.47 263.027 385.47H306.307C310.944 385.47 314.704 381.711 314.704 377.073V369.226C314.704 364.588 310.944 360.829 306.307 360.829Z" fill="#0098DB"/>
<path d="M382.936 360.829H339.656C335.019 360.829 331.26 364.588 331.26 369.226V377.073C331.26 381.711 335.019 385.47 339.656 385.47H382.936C387.574 385.47 391.333 381.711 391.333 377.073V369.226C391.333 364.588 387.574 360.829 382.936 360.829Z" fill="#0098DB"/>
<path d="M299.995 121.709C297.038 130.056 293.756 138.128 290.276 146.2C286.753 154.409 282.71 162.385 278.174 170.08C277.562 171.065 276.926 172.051 276.265 173.036L275.778 173.773L275.117 174.683C274.668 175.257 274.244 175.756 273.869 176.243C272.297 177.995 270.631 179.661 268.879 181.233C265.548 184.315 262.154 187.11 258.723 189.867C251.836 195.331 244.8 200.447 237.513 205.3L233.159 199.898L251.499 181.82C254.531 178.813 257.538 175.781 260.345 172.749C261.73 171.24 263.077 169.693 264.188 168.27C264.462 167.921 264.699 167.572 264.911 167.272L265.173 166.848L265.535 166.199C266.022 165.339 266.533 164.503 267.007 163.617C270.825 156.443 274.194 148.645 277.437 140.735C280.681 132.825 283.8 124.853 286.795 116.943L299.995 121.709Z" fill="#E4897B"/>
<path d="M303.5 115.696C306.333 123.98 289.689 148.346 289.689 148.346L273.794 139.5C276.503 131.897 279.704 124.479 283.376 117.292C288.941 106.762 300.394 106.6 303.5 115.696Z" fill="#407BFF"/>
<path d="M303.5 115.696C306.333 123.98 289.689 148.346 289.689 148.346L273.794 139.5C276.503 131.897 279.704 124.479 283.376 117.292C288.941 106.762 300.394 106.6 303.5 115.696Z" fill="#CCEAF8"/>
<path d="M303.738 116.731C300.17 115.022 296.065 116.457 291.736 123.294C287.406 130.131 283.726 141.546 283.327 144.803L289.702 148.333C289.702 148.333 305.06 125.826 303.738 116.731Z" fill="#A8DBF3"/>
<path d="M292.734 109.358C292.734 109.358 280.856 137.292 289.415 189.305H338.884C339.495 181.707 336.002 144.665 344.573 108.883C339.127 107.823 333.617 107.123 328.079 106.787C321.077 106.388 314.058 106.388 307.057 106.787C302.224 107.278 297.436 108.137 292.734 109.358Z" fill="#407BFF"/>
<path d="M292.734 109.358C292.734 109.358 280.856 137.292 289.415 189.305H338.884C339.495 181.707 336.002 144.665 344.573 108.883C339.127 107.823 333.617 107.123 328.079 106.787C321.077 106.388 314.058 106.388 307.057 106.787C302.224 107.278 297.436 108.137 292.734 109.358Z" fill="#CCEAF8"/>
<path d="M356.4 410.921L349.076 417.484L335.115 402.949L342.451 396.387L356.4 410.921Z" fill="#E4897B"/>
<path d="M331.285 424.57H322.041L320.843 403.161H330.088L331.285 424.57Z" fill="#E4897B"/>
<path d="M335.128 402.949L342.314 410.447L349.65 403.872L342.464 396.387L335.128 402.949Z" fill="#CE6F64"/>
<path d="M330.088 403.161H320.843L321.467 414.203H330.712L330.088 403.161Z" fill="#CE6F64"/>
<path d="M289.415 189.305C289.415 189.305 279.671 256.752 276.352 293.457C273.682 322.914 337.374 410.734 337.374 410.734L349.688 399.144C349.688 399.144 303.176 320.406 306.757 287.618C310.225 255.866 321.978 189.268 321.978 189.268L289.415 189.305Z" fill="#407BFF"/>
<path opacity="0.7" d="M289.415 189.305C289.415 189.305 279.671 256.752 276.352 293.457C273.682 322.914 337.374 410.734 337.374 410.734L349.688 399.144C349.688 399.144 303.176 320.406 306.757 287.618C310.225 255.866 321.978 189.268 321.978 189.268L289.415 189.305Z" fill="black"/>
<path opacity="0.2" d="M306.757 287.656C308.541 271.299 312.534 245.673 315.965 224.688C314.168 221.17 309.128 214.046 309.128 214.046C304.611 229.654 294.792 288.492 308.803 367.953C323.4 391.483 337.374 410.772 337.374 410.772L339.283 380.429C325.796 355.053 304.274 310.325 306.757 287.656Z" fill="black"/>
<path d="M307.007 189.305C307.007 189.305 306.133 259.983 307.63 286.471C309.265 315.465 317.499 411.545 317.499 411.545H334.442C334.442 411.545 333.93 317.811 334.928 289.116C336.039 257.925 338.908 189.305 338.908 189.305H307.007Z" fill="#407BFF"/>
<path opacity="0.7" d="M307.007 189.305C307.007 189.305 306.133 259.983 307.63 286.471C309.265 315.465 317.499 411.545 317.499 411.545H334.442C334.442 411.545 333.93 317.811 334.928 289.116C336.039 257.925 338.908 189.305 338.908 189.305H307.007Z" fill="black"/>
<path d="M321.554 423.51H331.946C332.12 423.503 332.289 423.565 332.417 423.681C332.545 423.798 332.623 423.961 332.632 424.134L333.144 432.356C333.146 432.57 333.105 432.783 333.024 432.982C332.944 433.181 332.825 433.362 332.674 433.515C332.524 433.668 332.344 433.79 332.147 433.873C331.949 433.957 331.737 434.001 331.522 434.003C327.904 433.94 326.17 433.728 321.603 433.728C318.796 433.728 306.844 434.027 302.964 434.027C299.084 434.027 299.221 430.185 300.831 429.835C308.204 428.276 317.349 426.093 319.969 424.071C320.421 423.715 320.978 423.517 321.554 423.51Z" fill="black"/>
<path d="M347.055 414.851L355.963 408.85C356.109 408.735 356.289 408.672 356.475 408.672C356.66 408.672 356.841 408.735 356.986 408.85L363.798 415.725C363.931 415.876 364.029 416.054 364.086 416.247C364.142 416.441 364.155 416.644 364.124 416.842C364.093 417.041 364.019 417.231 363.907 417.398C363.794 417.565 363.646 417.705 363.474 417.808C357.785 422.187 353.68 425.494 350.436 429.137C346.693 433.391 344.672 434.003 335.939 434.003C331.897 434.003 329.613 430.597 331.26 430.073C345.808 425.469 341.915 423.46 345.458 416.71C345.828 415.968 346.377 415.329 347.055 414.851Z" fill="black"/>
<path d="M235.255 198.738L225.611 199.074L227.632 206.635C227.632 206.635 237.713 207.533 238.612 204.489L235.255 198.738Z" fill="#E4897B"/>
<path d="M215.206 203.578L221.968 207.521L227.632 206.635L225.611 199.074L215.206 203.578Z" fill="#E4897B"/>
<path d="M333.519 117.717C332.496 123.605 333.856 137.679 338.908 153.973C339.304 140.013 340.928 126.114 343.762 112.439V112.364C340.518 112.04 334.504 112.19 333.519 117.717Z" fill="#A8DBF3"/>
<path d="M326.819 83.1075C325.259 89.8696 323.5 102.271 328.067 106.812C328.067 106.812 326.095 112.414 313.519 112.414C299.696 112.414 307.044 106.812 307.044 106.812C314.655 105.016 314.655 99.414 313.519 94.1615L326.819 83.1075Z" fill="#E4897B"/>
<path d="M313.17 112.389L309.427 116.369L311.261 120.212L314.243 120.349L316.788 116.681L313.17 112.389Z" fill="#0098DB"/>
<path d="M321.404 87.6115L313.532 94.1241C313.815 95.354 313.991 96.6064 314.056 97.8669C316.95 97.4552 321.017 94.2862 321.429 91.267C321.649 90.0576 321.641 88.8177 321.404 87.6115Z" fill="#CE6F64"/>
<path d="M310.412 60.1761C305.684 61.7855 301.903 74.3242 307.418 77.6429C312.932 80.9615 319.395 57.1194 310.412 60.1761Z" fill="#191919"/>
<path d="M329.776 76.021C326.956 84.7544 325.758 90.0319 320.069 93.6125C318.234 94.7921 316.111 95.4475 313.93 95.5076C311.749 95.5678 309.593 95.0305 307.696 93.9539C305.798 92.8773 304.231 91.3023 303.164 89.3994C302.097 87.4965 301.57 85.338 301.642 83.1574C301.754 74.7609 306.345 61.8355 316.014 60.2135C318.098 59.8113 320.251 59.9636 322.258 60.6551C324.264 61.3467 326.054 62.5532 327.447 64.154C328.841 65.7548 329.79 67.6935 330.198 69.7762C330.607 71.8589 330.461 74.0123 329.776 76.021Z" fill="#E4897B"/>
<path d="M336.763 61.4237C333.943 68.2358 340.505 62.5466 338.809 70.6312C337.711 75.8962 328.204 88.5097 324.536 87.3619C320.868 86.2141 320.905 77.2686 325.584 70.9431C328.279 67.3125 322.452 63.1954 309.365 63.632C296.277 64.0687 288.367 56.7077 305.759 51.3055C305.759 51.3055 299.346 55.0484 303.152 56.296C308.541 58.3047 342.414 47.7747 336.763 61.4237Z" fill="#191919"/>
<path d="M334.267 64.5428C334.13 64.5428 337.199 63.7818 338.833 58.3047C338.833 58.392 338.297 66.4642 334.267 64.5428Z" fill="#191919"/>
<path d="M309.776 52.5157C301.729 55.0109 305.06 57.8181 308.391 58.5168L316.027 55.5225C304.424 57.0571 309.776 52.5157 309.776 52.5157Z" fill="#191919"/>
<path d="M331.323 86.6882C329.65 88.3143 327.418 89.2383 325.085 89.2708C322.003 89.2708 321.342 86.3513 323.001 83.906C324.473 81.7101 327.842 79.0652 330.562 80.2504C333.282 81.4356 333.369 84.6795 331.323 86.6882Z" fill="#E4897B"/>
<path d="M315.565 75.5344C315.378 76.258 314.841 76.782 314.317 76.6572C313.793 76.5325 313.606 75.8712 313.793 75.1476C313.981 74.424 314.517 73.9 315.041 74.0372C315.565 74.1745 315.752 74.8107 315.565 75.5344Z" fill="#191919"/>
<path d="M307.331 73.7254C307.144 74.449 306.607 74.973 306.083 74.8482C305.559 74.7235 305.372 74.0747 305.559 73.3511C305.746 72.6274 306.27 72.1034 306.807 72.2282C307.343 72.353 307.481 73.0017 307.331 73.7254Z" fill="#191919"/>
<path d="M309.851 74.6611C308.432 76.681 306.755 78.5057 304.86 80.0882C305.277 80.5512 305.79 80.9174 306.363 81.1609C306.937 81.4045 307.556 81.5196 308.179 81.4981L309.851 74.6611Z" fill="#DE5753"/>
<path d="M311.223 84.1305C310.707 84.1299 310.192 84.0714 309.689 83.9559C309.633 83.9411 309.586 83.9058 309.556 83.8571C309.525 83.8084 309.515 83.75 309.527 83.6939C309.541 83.6385 309.577 83.5909 309.625 83.5608C309.674 83.5306 309.732 83.5202 309.789 83.5317C310.707 83.7363 311.66 83.7303 312.576 83.5143C313.493 83.2982 314.348 82.8776 315.078 82.284C315.12 82.2436 315.176 82.2211 315.234 82.2211C315.293 82.2211 315.348 82.2436 315.39 82.284C315.431 82.3259 315.453 82.3818 315.453 82.44C315.453 82.4982 315.431 82.5541 315.39 82.596C314.232 83.5933 312.752 84.1383 311.223 84.1305Z" fill="#191919"/>
<path d="M318.834 73.4509C318.749 73.4523 318.665 73.4281 318.594 73.3814C318.523 73.3347 318.467 73.2676 318.435 73.1889C318.23 72.6884 317.908 72.2445 317.495 71.8949C317.082 71.5453 316.592 71.3001 316.064 71.1802C316.007 71.1726 315.951 71.1535 315.901 71.1242C315.851 71.0948 315.807 71.0558 315.772 71.0093C315.738 70.9628 315.712 70.9099 315.698 70.8535C315.684 70.7972 315.681 70.7386 315.69 70.6811C315.709 70.5663 315.771 70.4631 315.864 70.3932C315.957 70.3234 316.074 70.2925 316.189 70.3069C316.861 70.4438 317.49 70.7427 318.02 71.1775C318.551 71.6123 318.967 72.17 319.233 72.8021C319.258 72.8543 319.272 72.9109 319.274 72.9686C319.276 73.0262 319.266 73.0837 319.245 73.1374C319.224 73.1911 319.192 73.24 319.151 73.281C319.111 73.322 319.062 73.3544 319.009 73.376C318.957 73.4135 318.897 73.439 318.834 73.4509Z" fill="#191919"/>
<path d="M304.548 70.1446C304.448 70.1438 304.351 70.1086 304.274 70.0448C304.184 69.9695 304.128 69.8621 304.116 69.7456C304.104 69.6291 304.139 69.5126 304.212 69.421C304.651 68.8741 305.211 68.4355 305.847 68.1392C306.483 67.8428 307.178 67.6966 307.88 67.7118C307.937 67.7165 307.993 67.7325 308.044 67.7589C308.095 67.7853 308.141 67.8216 308.178 67.8657C308.215 67.9098 308.243 67.9607 308.26 68.0157C308.278 68.0706 308.284 68.1285 308.279 68.1859C308.276 68.2439 308.261 68.3007 308.235 68.3527C308.209 68.4048 308.173 68.451 308.129 68.4884C308.084 68.5258 308.032 68.5537 307.977 68.5704C307.921 68.587 307.863 68.592 307.805 68.5851C307.244 68.5792 306.689 68.7021 306.183 68.9443C305.676 69.1866 305.233 69.5417 304.885 69.9824C304.845 70.0334 304.794 70.0745 304.736 70.1026C304.677 70.1308 304.613 70.1451 304.548 70.1446Z" fill="#191919"/>
<path d="M346.968 115.259C347.941 116.768 348.752 118.103 349.576 119.551C350.399 120.998 351.185 122.395 351.959 123.843C353.481 126.725 354.916 129.669 356.226 132.676C358.973 138.831 361.036 145.27 362.376 151.877L362.501 152.513L362.563 152.825L362.651 153.349C362.757 154.047 362.811 154.751 362.813 155.457C362.801 156.639 362.675 157.818 362.439 158.976C362.016 160.886 361.406 162.75 360.617 164.54C359.216 167.677 357.547 170.687 355.627 173.535C351.998 178.953 347.871 184.019 343.3 188.669L337.873 184.315C340.892 179.05 343.899 173.585 346.419 168.233C347.658 165.673 348.717 163.03 349.588 160.323C349.944 159.194 350.187 158.032 350.312 156.855C350.355 156.469 350.355 156.08 350.312 155.694C350.312 155.582 350.312 155.482 350.237 155.47C350.162 155.457 350.237 155.47 350.237 155.407L350.162 155.158L350.012 154.646C349.224 151.894 348.287 149.187 347.205 146.537C346.107 143.83 344.885 141.135 343.6 138.452C342.314 135.77 340.93 133.125 339.507 130.48C338.809 129.157 338.073 127.847 337.336 126.55L335.141 122.807L346.968 115.259Z" fill="#E4897B"/>
<path d="M318.285 425.107C317.662 425.169 317.039 424.996 316.538 424.62C316.397 424.464 316.298 424.274 316.25 424.069C316.202 423.864 316.207 423.65 316.264 423.448C316.291 423.311 316.353 423.184 316.442 423.077C316.531 422.97 316.646 422.887 316.775 422.836C317.911 422.387 320.518 424.184 320.818 424.383C320.855 424.406 320.883 424.44 320.899 424.481C320.915 424.521 320.917 424.566 320.905 424.608C320.899 424.65 320.88 424.689 320.851 424.72C320.822 424.751 320.784 424.773 320.743 424.783C319.937 424.976 319.113 425.085 318.285 425.107ZM317.199 423.198C317.113 423.184 317.024 423.184 316.937 423.198C316.874 423.221 316.818 423.261 316.776 423.314C316.734 423.367 316.708 423.43 316.7 423.497C316.655 423.628 316.645 423.769 316.671 423.904C316.698 424.04 316.759 424.167 316.85 424.271C317.274 424.695 318.485 424.745 320.144 424.421C319.262 423.809 318.257 423.396 317.199 423.211V423.198Z" fill="white"/>
<path d="M320.693 424.795H320.581C319.657 424.246 318.285 422.3 318.497 421.302C318.534 421.119 318.632 420.954 318.774 420.833C318.917 420.713 319.096 420.645 319.283 420.64C319.448 420.619 319.615 420.635 319.772 420.687C319.93 420.739 320.074 420.825 320.194 420.94C321.13 421.851 320.917 424.508 320.917 424.62C320.913 424.658 320.899 424.693 320.877 424.724C320.855 424.754 320.826 424.779 320.793 424.795H320.693ZM319.445 421.052H319.345C319.034 421.052 318.959 421.239 318.934 421.364C318.796 422.025 319.707 423.485 320.506 424.159C320.621 423.147 320.411 422.124 319.907 421.239C319.844 421.178 319.77 421.13 319.689 421.098C319.607 421.066 319.52 421.05 319.433 421.052H319.445Z" fill="white"/>
<path d="M341.067 419.867C340.836 419.874 340.606 419.831 340.393 419.742C340.229 419.676 340.083 419.571 339.967 419.437C339.852 419.302 339.771 419.141 339.732 418.969C339.7 418.864 339.696 418.752 339.72 418.645C339.744 418.538 339.795 418.439 339.869 418.357C340.705 417.347 345.084 417.646 345.583 417.684C345.63 417.685 345.674 417.702 345.71 417.731C345.747 417.76 345.772 417.801 345.783 417.846C345.793 417.891 345.788 417.938 345.77 417.98C345.752 418.022 345.722 418.058 345.683 418.083C344.29 419.001 342.716 419.61 341.067 419.867ZM343.712 418.045C342.177 418.045 340.568 418.195 340.206 418.632C340.185 418.665 340.174 418.704 340.174 418.744C340.174 418.784 340.185 418.823 340.206 418.856C340.227 418.964 340.274 419.065 340.344 419.15C340.414 419.235 340.503 419.301 340.605 419.343C341.304 419.63 342.876 419.156 344.86 418.095L343.712 418.045Z" fill="white"/>
<path d="M345.571 418.12C344.323 418.12 341.516 417.16 341.304 416.161C341.304 415.912 341.304 415.563 341.903 415.276C344.048 414.265 345.708 417.659 345.783 417.771C345.798 417.806 345.806 417.845 345.806 417.883C345.806 417.922 345.798 417.96 345.783 417.995C345.762 418.034 345.731 418.066 345.694 418.088C345.657 418.11 345.614 418.121 345.571 418.12ZM342.689 415.538C342.477 415.535 342.268 415.582 342.077 415.675C341.815 415.8 341.69 415.937 341.715 416.062C341.84 416.648 343.861 417.471 345.184 417.646C344.785 416.972 343.824 415.538 342.689 415.538Z" fill="white"/>
<path d="M340.343 182.294L331.186 180.684L335.914 191.352C335.914 191.352 344.311 191.352 343.936 186.96L340.343 182.294Z" fill="#E4897B"/>
<path d="M324.261 186.049L328.591 194.658L335.864 191.352L331.136 180.684L324.261 186.049Z" fill="#E4897B"/>
<path d="M350.436 398.483L336.625 411.483L332.171 406.704L347.978 392.307L350.436 398.483Z" fill="#407BFF"/>
<path opacity="0.6" d="M350.436 398.483L336.625 411.483L332.171 406.704L347.978 392.307L350.436 398.483Z" fill="white"/>
<path d="M335.116 411.545H316.813L315.802 405.107L336.001 406.118L335.116 411.545Z" fill="#407BFF"/>
<path opacity="0.6" d="M335.116 411.545H316.813L315.802 405.107L336.001 406.118L335.116 411.545Z" fill="white"/>
<path d="M344.572 108.883C353.306 110.131 362.251 140.473 362.251 140.473L343.537 150.854C343.537 150.854 335.939 136.431 332.308 125.726C328.503 114.51 335.228 107.511 344.572 108.883Z" fill="#407BFF"/>
<path d="M344.572 108.883C353.306 110.131 362.251 140.473 362.251 140.473L343.537 150.854C343.537 150.854 335.939 136.431 332.308 125.726C328.503 114.51 335.228 107.511 344.572 108.883Z" fill="#CCEAF8"/>
<path d="M311.585 119.526C311.585 119.526 304.486 148.932 304.212 155.046C303.825 163.455 307.343 177.815 307.343 177.815C307.343 177.815 312.334 165.875 313.357 154.784C314.38 143.692 313.619 125.751 314.081 119.526H311.585Z" fill="#0098DB"/>
<path d="M313.17 112.389C314.592 114.691 315.415 117.311 315.565 120.012C315.565 120.012 331.136 114.523 330.4 106.476C330.4 106.476 328.191 105.166 326.794 104.105C326.794 104.105 326.27 109.17 313.17 112.389Z" fill="#407BFF"/>
<path d="M313.17 112.389C314.592 114.691 315.415 117.311 315.565 120.012C315.565 120.012 331.136 114.523 330.4 106.476C330.4 106.476 328.191 105.166 326.794 104.105C326.794 104.105 326.27 109.17 313.17 112.389Z" fill="#A8DBF3"/>
<path d="M313.17 112.389C311.738 114.568 310.707 116.985 310.125 119.526C310.125 119.526 303.076 114.76 305.197 106.812C306.489 106.292 307.82 105.875 309.177 105.565C309.177 105.565 308.254 110.705 313.17 112.389Z" fill="#407BFF"/>
<path d="M313.17 112.389C311.738 114.568 310.707 116.985 310.125 119.526C310.125 119.526 303.076 114.76 305.197 106.812C306.489 106.292 307.82 105.875 309.177 105.565C309.177 105.565 308.254 110.705 313.17 112.389Z" fill="#A8DBF3"/>
</g>
<defs>
<clipPath id="clip0">
<rect width="487.727" height="447" fill="white"/>
</clipPath>
<clipPath id="clip1">
<rect width="26.82" height="66.5533" fill="white" transform="translate(45.9609 177.4) rotate(-30)"/>
</clipPath>
<clipPath id="clip2">
<rect width="35.9074" height="35.9074" fill="white" transform="translate(167.233 93.3734) rotate(15)"/>
</clipPath>
</defs>
</svg>
