<svg width="30" height="30" viewBox="0 0 30 30" fill="none" xmlns="http://www.w3.org/2000/svg">
<path d="M25.5187 13.1251H4.48125C4.2392 13.1251 4.04297 13.3349 4.04297 13.5938V25.7813C4.04297 26.0402 4.2392 26.2501 4.48125 26.2501H25.5187C25.7608 26.2501 25.957 26.0402 25.957 25.7813V13.5938C25.957 13.3349 25.7608 13.1251 25.5187 13.1251Z" fill="#6B7B8B"/>
<path d="M26.25 13.5938H23.9062C23.6474 13.5938 23.4375 13.8037 23.4375 14.0626V25.7813C23.4375 26.0402 23.6474 26.2501 23.9062 26.2501H26.25C26.5089 26.2501 26.7188 26.0402 26.7188 25.7813V14.0626C26.7188 13.8037 26.5089 13.5938 26.25 13.5938Z" fill="#D5D9DE"/>
<path d="M6.09375 13.5938H3.75C3.49113 13.5938 3.28125 13.8037 3.28125 14.0626V25.7813C3.28125 26.0402 3.49113 26.2501 3.75 26.2501H6.09375C6.35262 26.2501 6.5625 26.0402 6.5625 25.7813V14.0626C6.5625 13.8037 6.35268 13.5938 6.09375 13.5938Z" fill="#D5D9DE"/>
<path d="M10.7812 13.5938H8.4375C8.17863 13.5938 7.96875 13.8037 7.96875 14.0626V25.7813C7.96875 26.0402 8.17863 26.2501 8.4375 26.2501H10.7812C11.0401 26.2501 11.25 26.0402 11.25 25.7813V14.0626C11.25 13.8037 11.0402 13.5938 10.7812 13.5938Z" fill="#D5D9DE"/>
<path d="M21.5625 13.5938H19.2188C18.9599 13.5938 18.75 13.8037 18.75 14.0626V25.7813C18.75 26.0402 18.9599 26.2501 19.2188 26.2501H21.5625C21.8214 26.2501 22.0312 26.0402 22.0312 25.7813V14.0626C22.0312 13.8037 21.8214 13.5938 21.5625 13.5938Z" fill="#D5D9DE"/>
<path d="M26.7188 13.5938C26.7188 13.3349 26.5089 13.1251 26.25 13.1251H23.9062C23.6474 13.1251 23.4375 13.3349 23.4375 13.5938V15.0294H26.7188V13.5938Z" fill="#BFC7CD"/>
<path d="M6.5625 13.5938C6.5625 13.3349 6.35262 13.1251 6.09375 13.1251H3.75C3.49113 13.1251 3.28125 13.3349 3.28125 13.5938V15.0294H6.5625V13.5938Z" fill="#BFC7CD"/>
<path d="M11.25 13.5938C11.25 13.3349 11.0401 13.1251 10.7812 13.1251H8.4375C8.17863 13.1251 7.96875 13.3349 7.96875 13.5938V15.0294H11.25V13.5938Z" fill="#BFC7CD"/>
<path d="M22.0312 13.5938C22.0312 13.3349 21.8214 13.1251 21.5625 13.1251H19.2188C18.9599 13.1251 18.75 13.3349 18.75 13.5938V15.0294H22.0312V13.5938Z" fill="#BFC7CD"/>
<path d="M26.5743 10.9116L15.3243 0.130368C15.143 -0.0434215 14.8569 -0.0434215 14.6757 0.130368L3.42568 10.9116C3.28752 11.044 3.24369 11.2472 3.31506 11.4248C3.38643 11.6024 3.55863 11.7188 3.75 11.7188H26.25C26.4414 11.7188 26.6136 11.6024 26.6849 11.4248C26.7563 11.2472 26.7125 11.0441 26.5743 10.9116Z" fill="#F4F6F7"/>
<path d="M28.125 10.7813H1.875C1.61613 10.7813 1.40625 10.9912 1.40625 11.2501V13.5938C1.40625 13.8527 1.61613 14.0626 1.875 14.0626H28.125C28.3839 14.0626 28.5938 13.8527 28.5938 13.5938V11.2501C28.5938 10.9912 28.3839 10.7813 28.125 10.7813Z" fill="#EAECEE"/>
<path d="M2.8125 13.1251C2.55363 13.1251 2.34375 12.9152 2.34375 12.6563V10.7813H1.875C1.61613 10.7813 1.40625 10.9912 1.40625 11.2501V13.5938C1.40625 13.8527 1.61613 14.0626 1.875 14.0626H28.125C28.3839 14.0626 28.5938 13.8527 28.5938 13.5938V13.1251H2.8125Z" fill="#D5D9DE"/>
<path d="M27.6562 25.3125H2.34375C2.08488 25.3125 1.875 25.5224 1.875 25.7812V29.5312C1.875 29.7901 2.08488 30 2.34375 30H27.6562C27.9151 30 28.125 29.7901 28.125 29.5312V25.7812C28.125 25.5224 27.9152 25.3125 27.6562 25.3125Z" fill="#EAECEE"/>
<path d="M29.0625 27.6562H0.9375C0.678633 27.6562 0.46875 27.8661 0.46875 28.125V29.5312C0.46875 29.7901 0.678633 30 0.9375 30H29.0625C29.3214 30 29.5312 29.7901 29.5312 29.5312V28.125C29.5312 27.8661 29.3214 27.6562 29.0625 27.6562Z" fill="#D5D9DE"/>
<path d="M15 8.43756C16.2944 8.43756 17.3438 7.38823 17.3438 6.09381C17.3438 4.79939 16.2944 3.75006 15 3.75006C13.7056 3.75006 12.6562 4.79939 12.6562 6.09381C12.6562 7.38823 13.7056 8.43756 15 8.43756Z" fill="#49DFE5"/>
</svg>
