<svg xmlns="http://www.w3.org/2000/svg" width="30" height="30" viewBox="0 0 30 30"><g><g><path fill="#ff9500" d="M30 15c0 8.284-6.716 15-15 15-8.284 0-15-6.716-15-15C0 6.716 6.716 0 15 0c8.284 0 15 6.716 15 15z"/></g><g transform="rotate(15 15.5 15.5)"><g/><g><g><path fill="#fff" d="M20.897 17.798a3.41 3.41 0 0 1-.292 1.127 2.489 2.489 0 0 1-.582.803c-.234.21-.526.386-.874.527a5.337 5.337 0 0 1-1.096.311 10.78 10.78 0 0 1-1.311.135v2.3h-1.388v-2.264c-.481 0-.848-.002-1.1-.009V23h-1.388v-2.299c-.109 0-.27-.001-.487-.004a41.806 41.806 0 0 0-.496-.004H10.08l.28-1.65h1c.3 0 .475-.153.523-.46V14.96h.144a.916.916 0 0 0-.144-.009v-2.587c-.078-.409-.346-.613-.802-.613H10.08v-1.478l1.911.009c.385 0 .676-.003.874-.01V8h1.389v2.227c.493-.012.86-.018 1.1-.018V8h1.388v2.272c.474.042.895.11 1.262.202.366.094.706.229 1.018.406.313.177.56.412.744.703.184.292.293.635.33 1.032.107 1.094-.286 1.87-1.182 2.326.704.168 1.23.478 1.578.928.348.451.484 1.094.405 1.93zm-6.616-5.949zm0 0v2.767l.31.005a9.686 9.686 0 0 0 .87-.018 3.8 3.8 0 0 0 .497-.05 9.02 9.02 0 0 0 .464-.099c.177-.042.323-.097.437-.167.114-.069.226-.15.334-.243a.866.866 0 0 0 .243-.347c.054-.138.081-.292.081-.46 0-.198-.038-.374-.113-.527a1.252 1.252 0 0 0-.275-.379 1.344 1.344 0 0 0-.432-.252 3.089 3.089 0 0 0-.496-.149 4.973 4.973 0 0 0-.554-.072 5.257 5.257 0 0 0-.523-.023 66.491 66.491 0 0 1-.843.014zm3.876 5.68a1.2 1.2 0 0 0-.135-.578 1.353 1.353 0 0 0-.334-.415 1.712 1.712 0 0 0-.518-.275 4.385 4.385 0 0 0-.59-.166 5.316 5.316 0 0 0-.667-.081 9.627 9.627 0 0 0-1.204-.018c-.238.006-.38.009-.428.009v3.047l.333.004a11.714 11.714 0 0 0 1.438-.045c.147-.015.319-.04.514-.077.195-.036.362-.078.5-.126a3.06 3.06 0 0 0 .429-.19c.147-.077.265-.167.356-.27.09-.102.163-.222.22-.36.058-.138.086-.291.086-.46z"/></g></g></g></g></svg>