<svg width="30" height="30" viewBox="0 0 30 30" fill="none" xmlns="http://www.w3.org/2000/svg">
<path d="M28.2145 20.3339L29.9732 9.10451C30.1561 7.96498 29.3807 6.89278 28.2411 6.70938L4.51005 2.90044C3.37052 2.71757 2.29837 3.49294 2.1155 4.63247L1.27222 9.88404V20.2686L28.2145 20.3339Z" fill="#146AA8"/>
<path d="M28.2413 6.70938L21.5011 5.62786C16.9742 12.5545 9.65617 17.352 4.04407 20.2754L28.2146 20.3339L29.9733 9.10451C30.1562 7.96493 29.3808 6.89278 28.2413 6.70938Z" fill="#126099"/>
<path d="M2.08998 9.36156H26.1246C27.2788 9.36156 28.2146 10.2974 28.2146 11.4515V25.0364C28.2146 26.1905 27.2788 27.1263 26.1246 27.1263H2.08998C0.935799 27.1263 0 26.1905 0 25.0364V11.4515C0 10.2974 0.935799 9.36156 2.08998 9.36156Z" fill="#4398D1"/>
<path d="M26.1245 9.36156H25.7065C20.7742 18.118 11.558 24.1246 5.93176 27.1263H26.1245C27.2787 27.1263 28.2145 26.1905 28.2145 25.0363V11.4515C28.2145 10.2974 27.2787 9.36156 26.1245 9.36156Z" fill="#3E8CC7"/>
<path d="M7.83746 11.974H2.61255V16.154H7.83746V11.974Z" fill="#FDB62F"/>
<path d="M4.18005 13.5415H2.61255V14.5865H4.18005V13.5415Z" fill="#FD7B2F"/>
<path d="M7.83764 13.5415H6.27014V14.5865H7.83764V13.5415Z" fill="#FD7B2F"/>
<path d="M22.9897 24.5138C24.4325 24.5138 25.6021 23.3442 25.6021 21.9014C25.6021 20.4585 24.4325 19.2889 22.9897 19.2889C21.5468 19.2889 20.3772 20.4585 20.3772 21.9014C20.3772 23.3442 21.5468 24.5138 22.9897 24.5138Z" fill="#FDB62F"/>
<path d="M19.8546 24.5138C21.2975 24.5138 22.4671 23.3442 22.4671 21.9014C22.4671 20.4585 21.2975 19.2889 19.8546 19.2889C18.4118 19.2889 17.2422 20.4585 17.2422 21.9014C17.2422 23.3442 18.4118 24.5138 19.8546 24.5138Z" fill="#DE4C3C"/>
<path d="M5.2249 19.8114H2.08997V20.8563H5.2249V19.8114Z" fill="#87CED9"/>
<path d="M10.4498 19.8114H7.31482V20.8563H10.4498V19.8114Z" fill="#87CED9"/>
<path d="M15.6747 19.8114H12.5398V20.8563H15.6747V19.8114Z" fill="#87CED9"/>
<path d="M15.6748 22.9464H2.08997V23.9913H15.6748V22.9464Z" fill="#87CED9"/>
<path d="M19.3321 11.974H18.2871V14.064H19.3321V11.974Z" fill="#87CED9"/>
<path d="M21.4222 11.974H20.3772V14.064H21.4222V11.974Z" fill="#87CED9"/>
<path d="M23.5121 11.974H22.4672V14.064H23.5121V11.974Z" fill="#87CED9"/>
<path d="M25.6021 11.974H24.5571V14.064H25.6021V11.974Z" fill="#87CED9"/>
</svg>
