<svg xmlns="http://www.w3.org/2000/svg" width="26" height="26" viewBox="0 0 26 26"><g><g><g/><g><path fill="#f0f0f0" d="M13 26c7.18 0 13-5.82 13-13S20.18 0 13 0 0 5.82 0 13s5.82 13 13 13z"/></g><g><g><path fill="#d80027" d="M12.43 13.001h13.565c0-1.173-.156-2.31-.448-3.391H12.43z"/></g><g><path fill="#d80027" d="M12.43 6.221h11.657a13.069 13.069 0 0 0-3-3.391H12.43z"/></g><g><path fill="#d80027" d="M13.002 25.996c3.06 0 5.872-1.057 8.093-2.826H4.91a12.944 12.944 0 0 0 8.092 2.826z"/></g><g><path fill="#d80027" d="M1.91 19.781h22.184a12.92 12.92 0 0 0 1.46-3.391H.45c.326 1.21.821 2.349 1.46 3.391z"/></g></g><g><path fill="#0052b4" d="M6.022 2.03A12.939 12.939 0 0 1 13 0v13H0c0-.549.034-1.09.1-1.621l.66-.48 1.102.801-.42-1.295 1.101-.8H1.181L.812 8.467c.128-.343.27-.68.426-1.009l.624.454-.334-1.03c.1-.189.205-.374.314-.556l.701-.51h-.38a13.071 13.071 0 0 1 2.522-2.81l-.363 1.12 1.102-.801 1.102.8-.421-1.295 1.102-.8zm.083 8.375l1.102-.8H5.844l-.42-1.296-.421 1.295H3.64l1.102.8-.421 1.296 1.102-.8 1.101.8zm1.102-4.588H5.844l-.42-1.295-.421 1.295H3.64l1.102.8-.421 1.296 1.102-.8 1.101.8-.42-1.295zm3.56 4.588l1.103-.8h-1.362l-.421-1.296-.421 1.295H8.304l1.102.8-.421 1.296 1.102-.8 1.102.8zm1.103-4.588h-1.362l-.421-1.295-.421 1.295H8.304l1.102.8-.421 1.296 1.102-.8 1.102.8-.421-1.295zm0-3.787h-1.362L10.087.735 9.666 2.03H8.304l1.102.8-.421 1.296 1.102-.8 1.102.8-.421-1.295z"/></g></g></g></svg>