<svg width="185" height="46" viewBox="0 0 185 46" fill="none" xmlns="http://www.w3.org/2000/svg">
<path d="M34.7102 33.611C33.2368 33.611 31.9107 33.3077 30.732 32.701C29.5532 32.0943 28.6865 31.2882 28.1318 30.2828L30.524 28.3847C31.5467 29.9622 32.9768 30.7509 34.8142 30.7509C35.6982 30.7509 36.4176 30.5429 36.9723 30.1268C37.527 29.6935 37.8044 29.1388 37.8044 28.4628C37.8044 27.232 36.929 26.296 35.1782 25.6546L33.1501 24.9266C31.6594 24.3892 30.5586 23.7045 29.8479 22.8725C29.1372 22.0231 28.7819 20.9743 28.7819 19.7263C28.7819 18.1489 29.3452 16.8921 30.472 15.9561C31.5987 15.0027 33.0374 14.526 34.7882 14.526C37.1283 14.526 38.9918 15.3667 40.3785 17.0481L38.2724 19.1022C37.319 17.9582 36.1489 17.3862 34.7622 17.3862C33.9475 17.3862 33.2541 17.5768 32.6821 17.9582C32.1274 18.3395 31.85 18.8596 31.85 19.5183C31.85 20.1596 32.058 20.671 32.4741 21.0524C32.9074 21.4164 33.6355 21.7891 34.6582 22.1704L36.5303 22.8725C37.9517 23.4098 39.0351 24.1119 39.7805 24.9786C40.5258 25.8453 40.8899 26.946 40.8725 28.2807C40.8725 29.8755 40.3005 31.1669 39.1564 32.1549C38.0124 33.1257 36.5303 33.611 34.7102 33.611Z" fill="black"/>
<path d="M56.149 33.299L47.1785 24.6665V33.299H44.1623V14.838H47.1785V22.7944L54.5889 14.838H58.4371L50.2206 23.6785L60.2572 33.299H56.149Z" fill="black"/>
<path d="M66.9562 33.299V25.4986L59.9618 14.838H63.524L68.4643 22.4824L73.4305 14.838H77.0187L69.9984 25.5246V33.299H66.9562Z" fill="black"/>
<path d="M93.2635 33.611C90.6114 33.611 88.3579 32.6923 86.5032 30.8549C84.6484 29.0001 83.721 26.738 83.721 24.0685C83.721 21.399 84.6484 19.1456 86.5032 17.3082C88.3579 15.4534 90.6114 14.526 93.2635 14.526C95.0489 14.526 96.6697 14.9507 98.1258 15.8001C99.5819 16.6321 100.735 17.7675 101.584 19.2063L98.9578 20.7143C97.6231 18.5476 95.725 17.4642 93.2635 17.4642C91.4434 17.4642 89.9093 18.1055 88.6613 19.3883C87.4132 20.671 86.7892 22.2311 86.7892 24.0685C86.7892 25.9059 87.4132 27.466 88.6613 28.7488C89.9093 30.0315 91.4434 30.6729 93.2635 30.6729C95.725 30.6729 97.6231 29.5895 98.9578 27.4227L101.584 28.9308C100.735 30.3695 99.5819 31.5136 98.1258 32.363C96.6697 33.195 95.0489 33.611 93.2635 33.611Z" fill="black"/>
<path d="M104.494 33.299V14.838H111.15C112.849 14.838 114.201 15.332 115.206 16.3201C116.229 17.2908 116.74 18.5476 116.74 20.0903C116.74 21.3904 116.376 22.4651 115.648 23.3145C114.938 24.1465 113.906 24.7099 112.554 25.0046L119.418 33.299H115.674L108.914 25.1866H107.536V33.299H104.494ZM107.536 22.5344H110.786C111.687 22.5344 112.398 22.3264 112.918 21.9104C113.438 21.477 113.698 20.8703 113.698 20.0903C113.698 19.3103 113.438 18.7122 112.918 18.2962C112.398 17.8628 111.687 17.6462 110.786 17.6462H107.536V22.5344Z" fill="black"/>
<path d="M125.282 33.299V25.4986L118.287 14.838H121.849L126.79 22.4824L131.756 14.838H135.344L128.324 25.5246V33.299H125.282Z" fill="black"/>
<path d="M148.388 16.5801C149.584 17.7242 150.182 19.1543 150.182 20.8703C150.182 22.5864 149.584 24.0252 148.388 25.1866C147.192 26.3306 145.658 26.9027 143.786 26.9027H140.952V33.299H137.91V14.838H143.786C145.658 14.838 147.192 15.4187 148.388 16.5801ZM146.256 23.1585C146.88 22.5518 147.192 21.7891 147.192 20.8703C147.192 19.9516 146.88 19.1976 146.256 18.6082C145.649 18.0015 144.817 17.6982 143.76 17.6982H140.952V24.0425H143.76C144.817 24.0425 145.649 23.7478 146.256 23.1585Z" fill="black"/>
<path d="M156.784 33.299V17.7502H151.427V14.838H165.208V17.7502H159.826V33.299H156.784Z" fill="black"/>
<path d="M175.457 30.6729C177.26 30.6729 178.786 30.0315 180.034 28.7488C181.282 27.466 181.906 25.9059 181.906 24.0685C181.906 22.2311 181.282 20.671 180.034 19.3883C178.786 18.1055 177.26 17.4642 175.457 17.4642C173.637 17.4642 172.103 18.1055 170.855 19.3883C169.607 20.671 168.983 22.2311 168.983 24.0685C168.983 25.9059 169.607 27.466 170.855 28.7488C172.103 30.0315 173.637 30.6729 175.457 30.6729ZM182.218 30.8289C180.363 32.6836 178.11 33.611 175.457 33.611C172.805 33.611 170.552 32.6923 168.697 30.8549C166.842 29.0001 165.915 26.738 165.915 24.0685C165.915 21.399 166.842 19.1456 168.697 17.3082C170.552 15.4534 172.805 14.526 175.457 14.526C178.11 14.526 180.363 15.4534 182.218 17.3082C184.073 19.1629 185 21.4164 185 24.0685C185 26.7207 184.073 28.9741 182.218 30.8289Z" fill="black"/>
<path d="M0.236089 35.1221C0.236089 32.4762 0.259656 29.807 0.212523 27.1611C0.188956 26.3884 0.424621 26.2479 1.15518 26.3884C3.51182 26.8333 3.51182 26.8099 3.51182 29.1982C3.51182 32.7572 3.53539 36.2928 3.48826 39.8518C3.48826 40.6714 3.72392 40.9523 4.54874 41.1396C9.49769 42.287 12.962 39.0323 14.0931 35.5435C15.5778 31.0479 13.7161 26.5055 9.54483 24.4684C7.23532 23.3211 4.66658 23.0869 2.21567 22.4313C0.259655 21.8694 0.236089 21.9162 0.236089 19.9728C0.259656 14.0489 0.283222 8.12496 0.236089 2.17764C0.236089 1.12398 0.589586 0.796172 1.53224 0.562026C8.31937 -1.17066 15.0122 2.55227 16.5441 9.06155C17.2746 12.1991 17.0861 15.243 15.3422 18.0762C14.7766 18.9894 14.211 19.3874 13.1976 18.6382C12.7263 18.2869 11.9486 18.1933 11.7129 17.7718C11.4066 17.2333 12.255 16.8821 12.5142 16.4138C14.0696 13.4869 14.046 10.5367 12.3492 7.72691C10.676 4.91715 8.06014 3.60593 4.76084 3.69959C3.93602 3.72301 3.46469 3.93374 3.48826 4.9874C3.55895 9.38936 3.53539 13.7913 3.51182 18.2167C3.51182 18.966 3.67679 19.2938 4.47805 19.4577C6.88182 19.9494 9.2856 20.5582 11.5008 21.7289C15.8606 24.0235 18.3351 28.5894 17.8638 33.5767C17.3689 39.0089 14.2817 43.1767 9.63909 44.4645C6.74042 45.2606 3.81819 45.0499 0.919516 44.324C0.259656 44.1601 0.212523 43.7621 0.236089 43.2236C0.236089 40.5075 0.236089 37.8148 0.236089 35.1221Z" fill="#0499DB"/>
</svg>
