<svg width="157" height="78" viewBox="0 0 157 78" fill="none" xmlns="http://www.w3.org/2000/svg">
<path d="M6.57835 77.085C5.10494 77.085 3.77887 76.7817 2.60014 76.175C1.42141 75.5683 0.554697 74.7622 0 73.7568L2.39213 71.8587C3.41485 73.4362 4.84493 74.2249 6.68236 74.2249C7.56641 74.2249 8.28578 74.0169 8.84048 73.6008C9.39517 73.1675 9.67252 72.6128 9.67252 71.9367C9.67252 70.706 8.79714 69.77 7.04638 69.1286L5.01827 68.4006C3.52752 67.8632 2.4268 67.1785 1.71609 66.3464C1.00539 65.4971 0.650035 64.4483 0.650035 63.2003C0.650035 61.6229 1.2134 60.3661 2.34013 59.4301C3.46685 58.4767 4.9056 58 6.65636 58C8.99648 58 10.8599 58.8407 12.2467 60.5221L10.1405 62.5762C9.18716 61.4322 8.0171 60.8602 6.63036 60.8602C5.81565 60.8602 5.12228 61.0508 4.55025 61.4322C3.99555 61.8135 3.7182 62.3336 3.7182 62.9923C3.7182 63.6336 3.92621 64.145 4.34223 64.5264C4.77559 64.8904 5.50363 65.2631 6.52635 65.6444L8.39845 66.3464C9.81986 66.8838 10.9033 67.5859 11.6486 68.4526C12.394 69.3193 12.758 70.42 12.7407 71.7547C12.7407 73.3495 12.1687 74.6409 11.0246 75.6289C9.88053 76.5997 8.39845 77.085 6.57835 77.085Z" fill="black"/>
<path d="M28.0171 76.773L19.0466 68.1405V76.773H16.0305V58.312H19.0466V66.2684L26.457 58.312H30.3052L22.0888 67.1525L32.1253 76.773H28.0171Z" fill="black"/>
<path d="M38.8244 76.773V68.9726L31.83 58.312H35.3922L40.3324 65.9564L45.2987 58.312H48.8869L41.8665 68.9986V76.773H38.8244Z" fill="black"/>
<path d="M65.1317 77.085C62.4795 77.085 60.2261 76.1663 58.3713 74.3289C56.5165 72.4741 55.5892 70.212 55.5892 67.5425C55.5892 64.873 56.5165 62.6196 58.3713 60.7822C60.2261 58.9274 62.4795 58 65.1317 58C66.9171 58 68.5379 58.4247 69.9939 59.2741C71.45 60.1061 72.6027 61.2415 73.4521 62.6803L70.826 64.1883C69.4912 62.0216 67.5931 60.9382 65.1317 60.9382C63.3116 60.9382 61.7775 61.5795 60.5294 62.8623C59.2814 64.145 58.6573 65.7051 58.6573 67.5425C58.6573 69.3799 59.2814 70.94 60.5294 72.2228C61.7775 73.5055 63.3116 74.1469 65.1317 74.1469C67.5931 74.1469 69.4912 73.0635 70.826 70.8967L73.4521 72.4048C72.6027 73.8435 71.45 74.9876 69.9939 75.837C68.5379 76.669 66.9171 77.085 65.1317 77.085Z" fill="black"/>
<path d="M76.3618 76.773V58.312H83.0182C84.717 58.312 86.069 58.806 87.0744 59.7941C88.0971 60.7648 88.6085 62.0216 88.6085 63.5643C88.6085 64.8644 88.2445 65.9391 87.5164 66.7885C86.8057 67.6205 85.7744 68.1839 84.4223 68.4786L91.2866 76.773H87.5424L80.7821 68.6606H79.404V76.773H76.3618ZM79.404 66.0084H82.6542C83.5556 66.0084 84.2663 65.8004 84.7863 65.3844C85.3063 64.951 85.5663 64.3443 85.5663 63.5643C85.5663 62.7843 85.3063 62.1862 84.7863 61.7702C84.2663 61.3368 83.5556 61.1202 82.6542 61.1202H79.404V66.0084Z" fill="black"/>
<path d="M97.1498 76.773V68.9726L90.1554 58.312H93.7176L98.6578 65.9564L103.624 58.312H107.212L100.192 68.9986V76.773H97.1498Z" fill="black"/>
<path d="M120.256 60.0541C121.452 61.1982 122.05 62.6282 122.05 64.3443C122.05 66.0604 121.452 67.4992 120.256 68.6606C119.06 69.8046 117.526 70.3767 115.654 70.3767H112.82V76.773H109.778V58.312H115.654C117.526 58.312 119.06 58.8927 120.256 60.0541ZM118.124 66.6325C118.748 66.0258 119.06 65.2631 119.06 64.3443C119.06 63.4256 118.748 62.6716 118.124 62.0822C117.517 61.4755 116.685 61.1722 115.628 61.1722H112.82V67.5165H115.628C116.685 67.5165 117.517 67.2218 118.124 66.6325Z" fill="black"/>
<path d="M128.652 76.773V61.2242H123.296V58.312H137.076V61.2242H131.694V76.773H128.652Z" fill="black"/>
<path d="M147.326 74.1469C149.128 74.1469 150.654 73.5055 151.902 72.2228C153.15 70.94 153.774 69.3799 153.774 67.5425C153.774 65.7051 153.15 64.145 151.902 62.8623C150.654 61.5795 149.128 60.9382 147.326 60.9382C145.505 60.9382 143.971 61.5795 142.723 62.8623C141.475 64.145 140.851 65.7051 140.851 67.5425C140.851 69.3799 141.475 70.94 142.723 72.2228C143.971 73.5055 145.505 74.1469 147.326 74.1469ZM154.086 74.3029C152.231 76.1576 149.978 77.085 147.326 77.085C144.673 77.085 142.42 76.1663 140.565 74.3289C138.71 72.4741 137.783 70.212 137.783 67.5425C137.783 64.873 138.71 62.6196 140.565 60.7822C142.42 58.9274 144.673 58 147.326 58C149.978 58 152.231 58.9274 154.086 60.7822C155.941 62.6369 156.868 64.8904 156.868 67.5425C156.868 70.1947 155.941 72.4481 154.086 74.3029Z" fill="black"/>
<path d="M72.2361 35.1221C72.2361 32.4762 72.2597 29.807 72.2125 27.1611C72.189 26.3884 72.4246 26.2479 73.1552 26.3884C75.5118 26.8333 75.5118 26.8099 75.5118 29.1982C75.5118 32.7572 75.5354 36.2928 75.4883 39.8518C75.4883 40.6714 75.7239 40.9523 76.5487 41.1396C81.4977 42.287 84.962 39.0323 86.0931 35.5435C87.5778 31.0479 85.7161 26.5055 81.5448 24.4684C79.2353 23.3211 76.6666 23.0869 74.2157 22.4313C72.2597 21.8694 72.2361 21.9162 72.2361 19.9728C72.2597 14.0489 72.2832 8.12496 72.2361 2.17764C72.2361 1.12398 72.5896 0.796172 73.5322 0.562026C80.3194 -1.17066 87.0122 2.55227 88.5441 9.06155C89.2746 12.1991 89.0861 15.243 87.3422 18.0762C86.7766 18.9894 86.211 19.3874 85.1976 18.6382C84.7263 18.2869 83.9486 18.1933 83.7129 17.7718C83.4066 17.2333 84.255 16.8821 84.5142 16.4138C86.0696 13.4869 86.046 10.5367 84.3492 7.72691C82.676 4.91715 80.0601 3.60593 76.7608 3.69959C75.936 3.72301 75.4647 3.93374 75.4883 4.9874C75.559 9.38936 75.5354 13.7913 75.5118 18.2167C75.5118 18.966 75.6768 19.2938 76.478 19.4577C78.8818 19.9494 81.2856 20.5582 83.5008 21.7289C87.8606 24.0235 90.3351 28.5894 89.8638 33.5767C89.3689 39.0089 86.2817 43.1767 81.6391 44.4645C78.7404 45.2606 75.8182 45.0499 72.9195 44.324C72.2597 44.1601 72.2125 43.7621 72.2361 43.2236C72.2361 40.5075 72.2361 37.8148 72.2361 35.1221Z" fill="#0499DB"/>
</svg>
