<svg width="31" height="77" viewBox="0 0 31 77" fill="none" xmlns="http://www.w3.org/2000/svg">
<path d="M0.404408 59.9378C0.404408 55.4225 0.444773 50.8672 0.364043 46.3519C0.323679 45.0333 0.727325 44.7935 1.97863 45.0333C6.01509 45.7925 6.01508 45.7525 6.01508 49.8283C6.01508 55.902 6.05545 61.9357 5.97472 68.0094C5.97472 69.408 6.37837 69.8875 7.79113 70.2071C16.2677 72.1651 22.2013 66.6109 24.1388 60.6571C26.6818 52.985 23.493 45.2331 16.3484 41.7567C12.3927 39.7987 7.99295 39.3991 3.79503 38.2803C0.444772 37.3213 0.404408 37.4012 0.404408 34.0847C0.444773 23.9752 0.485137 13.8657 0.404408 3.71621C0.404408 1.91808 1.00988 1.35866 2.62446 0.959079C14.2495 -1.99785 25.713 4.35555 28.3367 15.464C29.588 20.8184 29.2651 26.013 26.2781 30.848C25.3094 32.4064 24.3406 33.0857 22.6049 31.807C21.7976 31.2077 20.4656 31.0478 20.062 30.3286C19.5372 29.4095 20.9903 28.8101 21.4344 28.011C24.0984 23.0162 24.0581 17.9814 21.1518 13.1864C18.2859 8.39136 13.8055 6.15368 8.15441 6.31352C6.74165 6.35347 5.93436 6.7131 5.97472 8.51123C6.09581 16.0234 6.05545 23.5356 6.01508 31.0878C6.01508 32.3665 6.29764 32.9259 7.67003 33.2056C11.7872 34.0447 15.9044 35.0836 19.6987 37.0816C27.1661 40.9975 31.4044 48.7894 30.5971 57.3005C29.7495 66.5709 24.4617 73.6835 16.5099 75.8812C11.545 77.2398 6.53983 76.8802 1.57498 75.6415C0.444773 75.3618 0.364043 74.6825 0.404408 73.7634C0.404408 69.1283 0.404408 64.533 0.404408 59.9378Z" fill="#0499DB"/>
</svg>
