<svg width="30" height="19" viewBox="0 0 30 19" fill="none" xmlns="http://www.w3.org/2000/svg">
<path d="M19.0559 1.98239H10.9443V16.554H19.0559V1.98239Z" fill="#FF5F00"/>
<path d="M11.4593 9.26813C11.4593 6.30747 12.8499 3.6815 14.9872 1.98234C13.4164 0.746588 11.4336 -1.52588e-05 9.2705 -1.52588e-05C4.14604 -1.52588e-05 0.00012207 4.1449 0.00012207 9.26813C0.00012207 14.3913 4.14604 18.5363 9.2705 18.5363C11.4336 18.5363 13.4164 17.7897 14.9872 16.5539C12.8499 14.8805 11.4593 12.2288 11.4593 9.26813Z" fill="#EB001B"/>
<path d="M30.0002 9.26813C30.0002 14.3913 25.8543 18.5363 20.7298 18.5363C18.5667 18.5363 16.5839 17.7897 15.0131 16.5539C17.1762 14.8548 18.541 12.2288 18.541 9.26813C18.541 6.30747 17.1504 3.6815 15.0131 1.98234C16.5839 0.746588 18.5667 -1.52588e-05 20.7298 -1.52588e-05C25.8543 -1.52588e-05 30.0002 4.17065 30.0002 9.26813Z" fill="#F79E1B"/>
</svg>
