<svg width="30" height="30" viewBox="0 0 30 30" fill="none" xmlns="http://www.w3.org/2000/svg">
<path d="M29.204 29.496C26.1565 25.6859 23.3392 24.9611 20.5291 24.3468C17.0916 23.5968 15.3227 21.6813 14.0907 19.5782C13.8463 19.1584 13.7361 19.234 13.7135 19.7713C13.6892 20.5678 13.7455 21.3647 13.8816 22.15C13.7403 22.15 13.599 22.15 13.4577 22.15C11.6623 22.1407 9.91191 21.5919 8.4381 20.5763C6.96429 19.5606 5.83642 18.1259 5.20358 16.4618C4.57075 14.7977 4.46277 12.9826 4.8939 11.2564C5.32503 9.53022 6.27498 7.97426 7.61816 6.79423C8.96134 5.6142 10.6345 4.86566 12.4164 4.64757C14.1984 4.42949 16.0052 4.75212 17.598 5.57282C19.1909 6.39353 20.4947 7.67365 21.3372 9.24396C22.1796 10.8143 22.5211 12.6008 22.3163 14.3674C21.6664 14.2513 20.3864 14.2387 19.4906 14.3157C19.1515 14.3436 19.1996 14.5004 19.4553 14.5451C22.3983 15.0726 24.4215 16.8791 24.8835 20.1575C24.8852 20.1743 24.8922 20.1901 24.9035 20.2027C24.9148 20.2153 24.9299 20.224 24.9465 20.2275C24.9632 20.2311 24.9805 20.2294 24.9961 20.2226C25.0117 20.2158 25.0247 20.2043 25.0332 20.1897C26.5599 17.6616 27.1988 14.7042 26.8503 11.7787C26.5019 8.8533 25.1856 6.12432 23.1069 4.01744C21.0281 1.91055 18.3038 0.544232 15.3587 0.131578C12.4137 -0.281076 9.41354 0.283139 6.82623 1.73622C4.23892 3.1893 2.20992 5.44955 1.05569 8.16444C-0.0985318 10.8793 -0.313081 13.8962 0.445508 16.7445C1.2041 19.5928 2.89317 22.1124 5.24928 23.9103C7.6054 25.7082 10.4961 26.6833 13.4704 26.6836C15.4484 26.6836 17.401 26.303 20.2747 26.303C22.856 26.303 25.6577 27.1803 28.7519 29.9004C29.0613 30.1733 29.4738 29.8346 29.204 29.496Z" fill="#FF8C00"/>
<path d="M20.3003 21.074C20.1812 21.068 20.0623 21.0885 19.9523 21.1341C19.8422 21.1796 19.7439 21.2489 19.6645 21.337C19.3099 21.7722 19.4695 22.5362 20.0149 23.0077C20.2715 23.2206 20.5957 23.337 20.9304 23.3365C21.0836 23.3438 21.2364 23.3151 21.3764 23.2529C21.5163 23.1906 21.6394 23.0966 21.7357 22.9783C22.0522 22.5586 21.877 21.9611 21.2709 21.4601C21.0033 21.2224 20.6596 21.0856 20.3003 21.074Z" fill="#FF8C00"/>
<path d="M23.2871 18.8911C23.0285 18.7946 22.8236 18.8716 22.7219 19.0479C22.5806 19.3165 22.6838 19.8454 22.9819 20.3072C23.28 20.7689 23.547 21.0068 23.7462 21.0068C23.9455 21.0068 24.1192 20.7647 24.0288 20.1798C23.9836 19.8356 23.7872 19.0786 23.2871 18.8911Z" fill="#FF8C00"/>
</svg>
