<svg width="30" height="30" viewBox="0 0 30 30" fill="none" xmlns="http://www.w3.org/2000/svg">
<path fill-rule="evenodd" clip-rule="evenodd" d="M16.3399 0C17.0359 0.13308 17.7379 0.24114 18.4271 0.40308C25.4389 2.05086 30.3589 8.54676 29.9789 15.642C29.5814 23.0616 24.0896 29 16.8015 29.8943C16.6459 29.9214 16.4918 29.9566 16.3399 30H13.6699C13.5172 29.9577 13.3625 29.9231 13.2063 29.8964C6.8928 29.1187 1.80834 24.539 0.37302 18.324C0.2256 17.6856 0.12318 17.0368 0 16.3928V13.6072C0.0451655 13.4566 0.0818037 13.3037 0.10974 13.1491C0.8988 6.92106 5.44512 1.84278 11.5301 0.41106C12.2364 0.2445 12.9563 0.13554 13.67 0H16.34H16.3399Z" fill="#E47636"/>
<path fill-rule="evenodd" clip-rule="evenodd" d="M15.2484 24.3404C15.467 24.0324 15.6536 23.8496 15.7464 23.6274C17.8025 18.687 19.8485 13.7423 21.8844 8.7934C21.9769 8.56816 21.8975 8.27182 21.8981 8.0086C21.6482 8.01652 21.3695 7.9537 21.1528 8.04274C16.1981 10.0794 11.2493 12.1305 6.30641 14.196C6.08993 14.2865 5.95373 14.57 5.78015 14.7637C5.99567 14.9118 6.19235 15.1392 6.42965 15.1963C10.6876 16.22 13.4249 18.8281 14.6243 23.0543C14.6924 23.2943 14.7004 23.5555 14.7957 23.7817C14.8681 23.9531 15.0346 24.0845 15.2484 24.3404Z" fill="white"/>
</svg>
