<svg width="60" height="60" viewBox="0 0 60 60" fill="none" xmlns="http://www.w3.org/2000/svg">
<path d="M36.7812 5.65344L39.9454 2.48926L41.2052 3.74903L38.041 6.91321L36.7812 5.65344Z" fill="#0098DB" fill-opacity="0.3"/>
<path d="M31.7387 2.74811L24.8887 9.5981H27.4082L32.9984 4.00788L31.7387 2.74811Z" fill="#0098DB" fill-opacity="0.3"/>
<path d="M42.6428 11.1098H42.6191L42.631 11.1216L42.6428 11.1098Z" fill="#0098DB" fill-opacity="0.3"/>
<path d="M25.8967 11.1098H25.873L25.8849 11.1216L25.8967 11.1098Z" fill="#0098DB" fill-opacity="0.3"/>
<path d="M16.8477 11.1098C14.4831 11.1128 12.5669 13.0285 12.5645 15.393V28.2368L15.084 27.8446V15.393C15.0865 13.0285 17.0027 11.1128 19.3672 11.1098H16.8477Z" fill="#0098DB" fill-opacity="0.3"/>
<path d="M47.9992 23.3527C46.5189 23.3517 45.1233 24.0431 44.2262 25.2207C43.3296 26.3983 43.0349 27.9278 43.4291 29.3544C43.9984 27.2998 45.8669 25.8762 47.9992 25.8728H58.4897V23.3532L47.9992 23.3527Z" fill="#0098DB" fill-opacity="0.3"/>
<path d="M59.2434 21.967H57.9142V15.3931C57.9108 12.1945 55.3184 9.60209 52.1193 9.59815H49.1903L40.4782 0.886053C40.183 0.591286 39.7046 0.591286 39.4094 0.886053L35.7108 4.58466L32.271 1.1449C31.9758 0.849638 31.4974 0.849638 31.2022 1.1449L22.7494 9.59815H16.8457C13.6466 9.60159 11.0542 12.194 11.0508 15.3931V28.9592H12.5625V15.3931C12.565 13.0286 14.4812 11.1128 16.8457 11.1099H23.3513L23.3631 11.1217L23.3749 11.1099H40.0983L40.1101 11.1217L40.1219 11.1099H52.1193C54.4838 11.1128 56.3995 13.0286 56.4025 15.3931V21.967H47.997C44.5548 21.9823 41.7719 24.7774 41.7719 28.2201C41.7719 31.6628 44.5548 34.4574 47.997 34.4732H56.4025V41.0466C56.3995 43.4112 54.4838 45.3274 52.1193 45.3298H30.5772V46.8416H52.1193C55.3184 46.8381 57.9108 44.2458 57.9142 41.0466V34.4732H59.2434C59.6607 34.4732 59.9992 34.1346 59.9992 33.7173V22.7229C59.9992 22.3056 59.6607 21.967 59.2434 21.967ZM39.9438 2.4898L47.0526 9.59815H40.7248L36.7796 5.65349L39.9438 2.4898ZM24.8866 9.59815L31.7366 2.74815L38.5866 9.59815H24.8866ZM58.4875 32.9615H47.997C45.3879 32.9477 43.2802 30.8292 43.2802 28.2201C43.2802 25.611 45.3879 23.492 47.997 23.4787H58.4875V32.9615Z" fill="#0098DB"/>
<path d="M45.3867 28.2206C45.3872 29.7766 46.6485 31.0378 48.2045 31.0374C49.7605 31.0374 51.0217 29.7756 51.0212 28.2196C51.0212 26.6636 49.76 25.4028 48.204 25.4028C46.6485 25.4043 45.3882 26.6651 45.3867 28.2206ZM48.204 26.9146C48.9249 26.9146 49.5095 27.4987 49.5095 28.2196C49.51 28.9405 48.9254 29.5256 48.2045 29.5256C47.4835 29.5261 46.8989 28.9415 46.8984 28.2206C46.8989 27.4997 47.4831 26.9155 48.204 26.9146Z" fill="#0098DB"/>
<path d="M15.8723 31.8517C9.49129 31.8517 4.31836 37.0247 4.31836 43.4057C4.31836 49.7867 9.49129 54.9597 15.8723 54.9597C22.2533 54.9597 27.4263 49.7867 27.4263 43.4057C27.4189 37.0276 22.2504 31.8591 15.8723 31.8517ZM15.8723 53.4479C10.3264 53.4479 5.83008 48.9516 5.83008 43.4057C5.83008 37.8593 10.3264 33.3635 15.8723 33.3635C21.4188 33.3635 25.9146 37.8593 25.9146 43.4057C25.9082 48.9492 21.4158 53.4415 15.8723 53.4479Z" fill="#FF9500"/>
<path d="M27.1501 32.2465C27.1191 32.1997 27.0793 32.1598 27.0325 32.1288C20.8552 26.0008 10.8917 26.0008 4.71442 32.1288C4.69178 32.1451 4.67013 32.1628 4.64946 32.1815C4.63076 32.2022 4.61305 32.2238 4.59681 32.2465C-1.53227 38.4238 -1.53227 48.3877 4.59681 54.565C4.61305 54.5877 4.63027 54.6088 4.64946 54.6295C4.66964 54.6482 4.69129 54.6659 4.71344 54.6822C10.8912 60.8108 20.8552 60.8108 27.0325 54.6822C27.0788 54.6517 27.1186 54.6118 27.1497 54.565C33.2782 48.3877 33.2782 38.4238 27.1497 32.2465H27.1501ZM29.4207 44.1616H30.2154C30.0447 47.4444 28.748 50.5682 26.5444 53.0071L25.9878 52.45C25.6925 52.1548 25.2137 52.1548 24.9185 52.45C24.6232 52.7453 24.6232 53.2236 24.9185 53.5189L25.4755 54.0759C23.0362 56.28 19.9129 57.5762 16.6301 57.7474V56.9522C16.6301 56.5349 16.2915 56.1964 15.8742 56.1964C15.4564 56.1964 15.1184 56.5349 15.1184 56.9522V57.7474C11.8356 57.5762 8.71173 56.28 6.27289 54.0759L6.82946 53.5189C7.12472 53.2241 7.12472 52.7453 6.82946 52.45C6.5342 52.1548 6.05588 52.1548 5.76062 52.45L5.20357 53.0071C2.99995 50.5682 1.70327 47.4444 1.53202 44.1616H2.32676C2.74455 44.1616 3.08262 43.8231 3.08262 43.4058C3.08262 42.9885 2.74455 42.6499 2.32676 42.6499H1.53202C1.70278 39.3671 2.99946 36.2433 5.20307 33.8044L5.76013 34.361C6.05539 34.6563 6.53371 34.6563 6.82896 34.3615C7.12422 34.0662 7.12422 33.5874 6.82896 33.2922L6.27191 32.7356C8.71124 30.532 11.8351 29.2358 15.1174 29.0646V29.8598C15.1174 30.2771 15.4559 30.6156 15.8732 30.6156C16.291 30.6156 16.6291 30.2771 16.6291 29.8598V29.0646C19.9119 29.2358 23.0357 30.5325 25.4746 32.7361L24.918 33.2931C24.6227 33.5884 24.6227 34.0667 24.918 34.362C25.2132 34.6572 25.6916 34.6572 25.9868 34.362L26.5439 33.8049C28.7475 36.2443 30.0442 39.3676 30.2149 42.6504H29.4207C29.0034 42.6504 28.6648 42.9889 28.6648 43.4062C28.6648 43.824 29.0034 44.1621 29.4207 44.1621V44.1616Z" fill="#FF9500"/>
<path d="M17.5922 37.7599V36.7388C17.5922 36.3215 17.2536 35.983 16.8363 35.983C16.4185 35.983 16.0805 36.3215 16.0805 36.7388V37.7048H15.2331V36.7388C15.2331 36.3215 14.8945 35.983 14.4772 35.983C14.0594 35.983 13.7213 36.3215 13.7213 36.7388V37.7048H12.6328C12.2155 37.7048 11.877 38.0434 11.877 38.4607V48.4281C11.877 48.8454 12.2155 49.184 12.6328 49.184H13.7213V50.0722C13.7213 50.49 14.0594 50.8281 14.4772 50.8281C14.8945 50.8281 15.2331 50.49 15.2331 50.0722V49.184H16.0805V50.0722C16.0805 50.49 16.4185 50.8281 16.8363 50.8281C17.2536 50.8281 17.5922 50.49 17.5922 50.0722V49.1289C18.9144 48.8617 19.8662 47.7008 19.8676 46.3515V45.5208C19.8681 44.7325 19.5384 43.9796 18.9587 43.4447C19.5384 42.9092 19.8681 42.1563 19.8676 41.368V40.5373C19.8662 39.188 18.9144 38.0267 17.5922 37.7599ZM18.3559 45.5208V46.3515C18.3549 47.0803 17.7644 47.6713 17.0356 47.6723H13.3887V44.2005H17.0356C17.7644 44.2015 18.3549 44.792 18.3559 45.5208ZM13.3887 42.6888V39.2165H17.0356C17.7644 39.2175 18.3549 39.8085 18.3559 40.5373V41.368C18.3549 42.0968 17.7644 42.6873 17.0356 42.6888H13.3887Z" fill="#FF9500"/>
<path d="M45.377 28.134C45.377 29.69 46.6382 30.9517 48.1942 30.9517C49.7502 30.9517 51.012 29.6905 51.012 28.1345C51.012 26.5784 49.7507 25.3167 48.1947 25.3167C46.6392 25.3187 45.3789 26.5789 45.377 28.134ZM48.1947 26.8284C48.9156 26.8284 49.5002 27.413 49.5002 28.1345C49.5002 28.8554 48.9156 29.44 48.1942 29.44C47.4733 29.44 46.8887 28.8554 46.8887 28.134C46.8897 27.4135 47.4738 26.8294 48.1947 26.8284Z" fill="#0098DB"/>
</svg>
