<svg width="60" height="60" viewBox="0 0 60 60" fill="none" xmlns="http://www.w3.org/2000/svg">
<g clip-path="url(#clip0)">
<path d="M12.1733 24.244C12.2162 24.3198 12.2586 24.396 12.2981 24.4732C12.3191 24.4327 12.341 24.3931 12.3629 24.3531C12.3001 24.3155 12.2372 24.2793 12.1733 24.244Z" fill="#BFE5F6"/>
<path d="M10.4491 13.5186C14.6364 9.30316 20.3362 6.93845 26.2779 6.95131H26.3189C31.6638 6.93607 36.8348 8.84823 40.8845 12.3367C40.5076 11.898 40.1127 11.4721 39.6992 11.0591C35.511 6.85318 29.815 4.49609 23.8799 4.51229H23.8389C13.0048 4.52039 3.72935 12.281 1.80957 22.9436C1.8291 22.9217 1.84911 22.8998 1.86912 22.8783C1.8796 22.8674 1.89008 22.8569 1.90103 22.8469C2.88331 21.9013 4.13093 21.2777 5.47716 21.0591C6.60378 18.2332 8.29537 15.6675 10.4491 13.5186Z" fill="#BFE5F6"/>
<path d="M35.3071 24.245C35.35 24.3207 35.3919 24.397 35.4319 24.4741C35.4524 24.4341 35.4748 24.3941 35.4963 24.3546C35.4338 24.316 35.3705 24.2802 35.3071 24.245Z" fill="#BFE5F6"/>
<path d="M23.7402 24.244C23.7831 24.3198 23.825 24.396 23.865 24.4732C23.8855 24.4327 23.9079 24.3931 23.9298 24.3531C23.8674 24.3155 23.8036 24.2797 23.7402 24.244Z" fill="#BFE5F6"/>
<path d="M23.8805 3.04883H23.8348C10.6626 3.0574 -0.00856953 13.7429 5.16393e-06 26.9151C0.000481536 27.2823 0.273443 27.5925 0.637867 27.6396C1.00229 27.6868 1.3448 27.4562 1.43912 27.1013C1.60443 26.4749 2.19179 24.6866 2.92064 23.8968C3.8872 22.9655 5.17626 22.4434 6.5182 22.4405H6.5425C7.87396 22.4376 9.15349 22.9588 10.1034 23.892C11.038 24.8581 11.562 26.1486 11.5658 27.4924C11.5658 27.8964 11.8931 28.2241 12.2975 28.2241C12.7015 28.2241 13.0293 27.8964 13.0293 27.4924C13.0083 26.1452 13.5342 24.8476 14.4874 23.8953C15.4402 22.9431 16.7383 22.4181 18.0855 22.44H18.1098C19.4412 22.4372 20.7208 22.9583 21.6706 23.8915C22.6053 24.8576 23.1293 26.1481 23.1326 27.4919V48.2475C23.1417 50.0548 22.1827 51.7283 20.6193 52.6344C19.0558 53.5404 17.127 53.5404 15.5636 52.6344C14.0001 51.7283 13.0412 50.0548 13.0502 48.2475C13.0502 47.8435 12.7225 47.5158 12.3185 47.5158C11.9145 47.5158 11.5868 47.8435 11.5868 48.2475C11.5768 50.5784 12.8144 52.7363 14.8309 53.9044C16.8479 55.0725 19.3355 55.0725 21.3519 53.9044C23.3689 52.7363 24.6065 50.5784 24.596 48.2475V27.4924C24.5756 26.1457 25.1019 24.8486 26.0542 23.8963C27.007 22.9445 28.3046 22.4195 29.6513 22.441H29.6756C31.0075 22.4381 32.2866 22.9593 33.237 23.8925C34.1711 24.8586 34.6951 26.1491 34.6989 27.4929C34.6989 27.8973 35.0262 28.2246 35.4306 28.2246C35.8346 28.2246 36.1624 27.8973 36.1624 27.4929C36.1414 26.1419 36.6711 24.84 37.6296 23.8872C38.588 22.9345 39.8928 22.4124 41.2438 22.441C42.5757 22.4381 43.8548 22.9593 44.8047 23.8925C45.5364 24.6799 46.1257 26.4739 46.2915 27.1013C46.3858 27.4562 46.7283 27.6868 47.0927 27.6396C47.4571 27.5925 47.7301 27.2823 47.7306 26.9151V26.8846C47.7225 13.7181 37.047 3.04883 23.8805 3.04883V3.04883ZM45.8608 22.8792L45.8408 22.8588C44.6175 21.6507 42.9664 20.9747 41.2471 20.978H41.2152C39.4927 20.9795 37.8382 21.6497 36.6011 22.8478C36.5906 22.8578 36.5797 22.8683 36.5696 22.8792C36.1185 23.3556 35.7355 23.8925 35.4321 24.4741C35.1281 23.8925 34.7451 23.3556 34.294 22.8792C34.2874 22.8726 34.2807 22.8654 34.274 22.8588C33.0507 21.6507 31.3996 20.9747 29.6804 20.978H29.6484C27.9264 20.9795 26.2719 21.6497 25.0343 22.8478C25.0238 22.8578 25.0133 22.8683 25.0033 22.8788C24.5517 23.3551 24.1687 23.892 23.8653 24.4737C23.5618 23.8915 23.1788 23.3551 22.7272 22.8788C22.7206 22.8716 22.7139 22.8649 22.7072 22.8583C21.4839 21.6497 19.8328 20.9733 18.1136 20.9766H18.0817C16.3596 20.978 14.7051 21.6483 13.468 22.8464C13.457 22.8569 13.4466 22.8669 13.4366 22.8778C12.985 23.3542 12.6019 23.8911 12.2985 24.4727C11.9951 23.8911 11.612 23.3542 11.1604 22.8778C11.1538 22.8707 11.1471 22.864 11.1404 22.8573C9.90997 21.6411 8.24553 20.9642 6.51534 20.9766C4.79278 20.978 3.13834 21.6483 1.90121 22.8464C1.89025 22.8569 1.87977 22.8673 1.86929 22.8778C1.84928 22.8992 1.82927 22.9212 1.80974 22.9436C3.72952 12.2809 13.0054 4.52034 23.8396 4.51224H23.8801C34.7185 4.5151 44.0001 12.2771 45.9208 22.944C45.9008 22.9221 45.8808 22.9002 45.8608 22.8792Z" fill="#0098DB"/>
<path d="M45.667 32.1246C39.8972 32.1246 35.2197 36.8021 35.2197 42.5715C35.2197 48.3413 39.8972 53.0188 45.667 53.0188C51.4369 53.0188 56.1139 48.3413 56.1139 42.5715C56.1077 36.8045 51.434 32.1308 45.667 32.1246ZM45.667 51.5554C40.7056 51.5554 36.6831 47.5329 36.6831 42.5715C36.6831 37.6101 40.7056 33.588 45.667 33.588C50.6285 33.588 54.6505 37.6101 54.6505 42.5715C54.6452 47.5305 50.6261 51.5496 45.667 51.5554Z" fill="#FF9500"/>
<path d="M55.85 32.4953C55.8347 32.4748 55.819 32.4552 55.8019 32.4367C55.7833 32.4195 55.7638 32.4033 55.7433 32.3886C50.1654 26.855 41.1687 26.855 35.5904 32.3886C35.5484 32.4167 35.5122 32.4524 35.4841 32.4948C29.9506 38.0726 29.9506 47.0699 35.4841 52.6482C35.4994 52.6682 35.5151 52.6877 35.5318 52.7063C35.5508 52.7234 35.5699 52.7392 35.5904 52.7539C41.1687 58.2879 50.1654 58.2879 55.7438 52.7539C55.7638 52.7392 55.7833 52.7234 55.8019 52.7063C55.819 52.6877 55.8352 52.6682 55.85 52.6477C61.3835 47.0699 61.3835 38.0726 55.85 32.4948V32.4953ZM57.855 43.3032H58.5153C58.3519 46.2072 57.2057 48.9687 55.2655 51.1347L54.8029 50.6727C54.5171 50.3868 54.0541 50.3868 53.7682 50.6727C53.4824 50.958 53.4824 51.4215 53.7678 51.7073L54.2303 52.1699C52.0643 54.1102 49.3023 55.2563 46.3988 55.4202V54.7599C46.3988 54.3555 46.071 54.0282 45.6671 54.0282C45.2631 54.0282 44.9354 54.3555 44.9354 54.7599V55.4202C42.0314 55.2563 39.2699 54.1102 37.1033 52.1699L37.5659 51.7073C37.8517 51.4215 37.8517 50.9585 37.5659 50.6727C37.2801 50.3868 36.817 50.3868 36.5312 50.6727L36.0686 51.1347C34.1284 48.9687 32.9822 46.2072 32.8184 43.3032H33.4786C33.8826 43.3032 34.2103 42.9754 34.2103 42.5715C34.2103 42.1675 33.8826 41.8398 33.4786 41.8398H32.8184C32.9822 38.9363 34.1284 36.1743 36.0686 34.0082L36.5312 34.4708C36.817 34.7561 37.2801 34.7561 37.5659 34.4708C37.8517 34.185 37.8517 33.7214 37.5659 33.4356L37.1033 32.9735C39.2699 31.0328 42.0314 29.8867 44.9354 29.7233V30.383C44.9354 30.7875 45.2631 31.1147 45.6671 31.1147C46.071 31.1147 46.3988 30.7875 46.3988 30.383V29.7233C49.3023 29.8867 52.0643 31.0328 54.2303 32.9735L53.7678 33.4356C53.4824 33.7214 53.4824 34.185 53.7682 34.4708C54.0541 34.7566 54.5171 34.7561 54.8029 34.4708L55.2655 34.0082C57.2057 36.1743 58.3519 38.9363 58.5153 41.8398H57.855C57.4511 41.8398 57.1233 42.1675 57.1233 42.5715C57.1233 42.9754 57.4511 43.3032 57.855 43.3032Z" fill="#FF9500"/>
<path d="M47.2659 37.4799V36.5734C47.2659 36.1689 46.9381 35.8417 46.5341 35.8417C46.1297 35.8417 45.8024 36.1689 45.8024 36.5734V37.3904H45.1436V36.5734C45.1436 36.1689 44.8163 35.8417 44.4119 35.8417C44.0079 35.8417 43.6802 36.1689 43.6802 36.5734V37.3904H42.7527C42.3487 37.3904 42.021 37.7181 42.021 38.1221V47.0902C42.021 47.4942 42.3487 47.822 42.7527 47.822H43.6802V48.5694C43.6802 48.9733 44.0079 49.3011 44.4119 49.3011C44.8163 49.3011 45.1436 48.9733 45.1436 48.5694V47.822H45.8024V48.5694C45.8024 48.9733 46.1297 49.3011 46.5341 49.3011C46.9381 49.3011 47.2659 48.9733 47.2659 48.5694V47.7329C48.4711 47.4156 49.3119 46.3266 49.3133 45.08V44.6164C49.3138 43.8533 48.9946 43.1245 48.4334 42.6066C48.9946 42.0888 49.3138 41.36 49.3133 40.5963V40.1328C49.3119 38.8866 48.4711 37.7972 47.2659 37.4799ZM47.8499 44.6164V45.08C47.8489 45.7855 47.2773 46.3571 46.5718 46.3585H43.4839V43.3379H46.5718C47.2773 43.3393 47.8489 43.9109 47.8499 44.6164ZM43.4839 41.8745V38.8538H46.5718C47.2773 38.8552 47.8489 39.4269 47.8499 40.1324V40.5959C47.8489 41.3014 47.2773 41.873 46.5718 41.8745H43.4839Z" fill="#FF9500"/>
</g>
<defs>
<clipPath id="clip0">
<rect width="60" height="60" fill="white"/>
</clipPath>
</defs>
</svg>
