<svg width="60" height="60" viewBox="0 0 60 60" fill="none" xmlns="http://www.w3.org/2000/svg">
<g clip-path="url(#clip0)">
<path d="M36.7803 5.65351L39.9445 2.48932L41.2042 3.74909L38.04 6.91328L36.7803 5.65351Z" fill="#0098DB" fill-opacity="0.25"/>
<path d="M31.7372 2.74817L24.8872 9.59817H27.4067L32.997 4.00794L31.7372 2.74817Z" fill="#0098DB" fill-opacity="0.25"/>
<path d="M42.6418 11.1099H42.6182L42.63 11.1217L42.6418 11.1099Z" fill="#0098DB" fill-opacity="0.25"/>
<path d="M25.8947 11.1099H25.8711L25.8829 11.1217L25.8947 11.1099Z" fill="#0098DB" fill-opacity="0.25"/>
<path d="M16.8462 11.1099C14.4817 11.1128 12.5654 13.0286 12.563 15.3931V28.2368L15.0825 27.8446V15.3931C15.085 13.0286 17.0012 11.1128 19.3657 11.1099H16.8462Z" fill="#0098DB" fill-opacity="0.25"/>
<path d="M47.9977 23.3528C46.5175 23.3518 45.1219 24.0432 44.2248 25.2208C43.3282 26.3984 43.0334 27.9278 43.4276 29.3544C43.9969 27.2999 45.8654 25.8763 47.9977 25.8728H58.4882V23.3533L47.9977 23.3528Z" fill="#0098DB" fill-opacity="0.25"/>
<path d="M59.2439 21.967H57.9147V15.3931C57.9113 12.1945 55.3189 9.60209 52.1198 9.59815H49.1908L40.4787 0.886053C40.1834 0.591286 39.7051 0.591286 39.4099 0.886053L35.7113 4.58466L32.2715 1.1449C31.9762 0.849638 31.4979 0.849638 31.2027 1.1449L22.7499 9.59815H16.8462C13.6471 9.60159 11.0547 12.194 11.0513 15.3931V28.9592H12.563V15.3931C12.5655 13.0286 14.4817 11.1128 16.8462 11.1099H23.3517L23.3636 11.1217L23.3754 11.1099H40.0988L40.1106 11.1217L40.1224 11.1099H52.1198C54.4843 11.1128 56.4 13.0286 56.403 15.3931V21.967H47.9975C44.5552 21.9823 41.7724 24.7774 41.7724 28.2201C41.7724 31.6628 44.5552 34.4574 47.9975 34.4732H56.403V41.0466C56.4 43.4112 54.4843 45.3274 52.1198 45.3298H30.5777V46.8416H52.1198C55.3189 46.8381 57.9113 44.2458 57.9147 41.0466V34.4732H59.2439C59.6612 34.4732 59.9997 34.1346 59.9997 33.7173V22.7229C59.9997 22.3056 59.6612 21.967 59.2439 21.967ZM39.9443 2.4898L47.0531 9.59815H40.7252L36.7801 5.65349L39.9443 2.4898ZM24.8871 9.59815L31.7371 2.74815L38.5871 9.59815H24.8871ZM58.488 32.9615H47.9975C45.3884 32.9477 43.2807 30.8292 43.2807 28.2201C43.2807 25.611 45.3884 23.492 47.9975 23.4787H58.488V32.9615Z" fill="#0098DB"/>
<path d="M45.3867 28.2206C45.3872 29.7766 46.6485 31.0378 48.2045 31.0374C49.7605 31.0374 51.0217 29.7756 51.0212 28.2196C51.0212 26.6636 49.76 25.4028 48.204 25.4028C46.6485 25.4043 45.3882 26.6651 45.3867 28.2206ZM48.204 26.9146C48.9249 26.9146 49.5095 27.4987 49.5095 28.2196C49.51 28.9405 48.9254 29.5256 48.2045 29.5256C47.4835 29.5261 46.8989 28.9415 46.8984 28.2206C46.8989 27.4997 47.4831 26.9155 48.204 26.9146Z" fill="#0098DB"/>
<path d="M15.8733 31.8517C9.49227 31.8517 4.31934 37.0247 4.31934 43.4057C4.31934 49.7867 9.49227 54.9597 15.8733 54.9597C22.2543 54.9597 27.4273 49.7867 27.4273 43.4057C27.4199 37.0276 22.2514 31.8591 15.8733 31.8517ZM15.8733 53.4479C10.3274 53.4479 5.83106 48.9516 5.83106 43.4057C5.83106 37.8593 10.3274 33.3635 15.8733 33.3635C21.4197 33.3635 25.9155 37.8593 25.9155 43.4057C25.9091 48.9492 21.4168 53.4415 15.8733 53.4479Z" fill="#FF9500"/>
<path d="M27.1499 32.2464C27.1189 32.1996 27.079 32.1598 27.0323 32.1288C20.855 26.0007 10.8915 26.0007 4.71417 32.1288C4.69154 32.145 4.66988 32.1627 4.64922 32.1814C4.63052 32.2021 4.6128 32.2238 4.59656 32.2464C-1.53251 38.4237 -1.53251 48.3877 4.59656 54.565C4.6128 54.5876 4.63002 54.6088 4.64922 54.6295C4.66939 54.6482 4.69105 54.6659 4.71319 54.6821C10.891 60.8107 20.855 60.8107 27.0323 54.6821C27.0785 54.6516 27.1184 54.6117 27.1494 54.565C33.278 48.3877 33.278 38.4237 27.1494 32.2464H27.1499ZM29.4204 44.1616H30.2152C30.0444 47.4443 28.7477 50.5682 26.5441 53.007L25.9876 52.45C25.6923 52.1547 25.2135 52.1547 24.9182 52.45C24.623 52.7452 24.623 53.2235 24.9182 53.5188L25.4753 54.0758C23.036 56.2799 19.9126 57.5761 16.6298 57.7474V56.9522C16.6298 56.5349 16.2913 56.1963 15.874 56.1963C15.4562 56.1963 15.1181 56.5349 15.1181 56.9522V57.7474C11.8353 57.5761 8.71148 56.2799 6.27265 54.0758L6.82921 53.5188C7.12447 53.224 7.12447 52.7452 6.82921 52.45C6.53395 52.1547 6.05563 52.1547 5.76037 52.45L5.20332 53.007C2.99971 50.5682 1.70303 47.4443 1.53178 44.1616H2.32652C2.74431 44.1616 3.08238 43.823 3.08238 43.4057C3.08238 42.9884 2.74431 42.6498 2.32652 42.6498H1.53178C1.70254 39.367 2.99921 36.2432 5.20283 33.8044L5.75988 34.3609C6.05514 34.6562 6.53346 34.6562 6.82872 34.3614C7.12398 34.0662 7.12398 33.5874 6.82872 33.2921L6.27166 32.7355C8.71099 30.5319 11.8348 29.2357 15.1171 29.0645V29.8597C15.1171 30.277 15.4557 30.6156 15.873 30.6156C16.2908 30.6156 16.6288 30.277 16.6288 29.8597V29.0645C19.9116 29.2357 23.0355 30.5324 25.4743 32.736L24.9177 33.2931C24.6225 33.5883 24.6225 34.0667 24.9177 34.3619C25.213 34.6572 25.6913 34.6572 25.9866 34.3619L26.5436 33.8049C28.7472 36.2442 30.0439 39.3675 30.2147 42.6503H29.4204C29.0031 42.6503 28.6646 42.9889 28.6646 43.4062C28.6646 43.824 29.0031 44.162 29.4204 44.162V44.1616Z" fill="#FF9500"/>
<path d="M17.5932 37.7599V36.7388C17.5932 36.3215 17.2546 35.9829 16.8373 35.9829C16.4195 35.9829 16.0814 36.3215 16.0814 36.7388V37.7048H15.234V36.7388C15.234 36.3215 14.8955 35.9829 14.4782 35.9829C14.0604 35.9829 13.7223 36.3215 13.7223 36.7388V37.7048H12.6338C12.2165 37.7048 11.8779 38.0433 11.8779 38.4606V48.4281C11.8779 48.8454 12.2165 49.1839 12.6338 49.1839H13.7223V50.0722C13.7223 50.49 14.0604 50.828 14.4782 50.828C14.8955 50.828 15.234 50.49 15.234 50.0722V49.1839H16.0814V50.0722C16.0814 50.49 16.4195 50.828 16.8373 50.828C17.2546 50.828 17.5932 50.49 17.5932 50.0722V49.1288C18.9154 48.8616 19.8671 47.7007 19.8686 46.3514V45.5208C19.8691 44.7324 19.5394 43.9795 18.9597 43.4446C19.5394 42.9092 19.8691 42.1563 19.8686 41.3679V40.5373C19.8671 39.1879 18.9154 38.0266 17.5932 37.7599ZM18.3569 45.5208V46.3514C18.3559 47.0802 17.7654 47.6712 17.0366 47.6722H13.3897V44.2005H17.0366C17.7654 44.2014 18.3559 44.792 18.3569 45.5208ZM13.3897 42.6887V39.2165H17.0366C17.7654 39.2175 18.3559 39.8085 18.3569 40.5373V41.3679C18.3559 42.0967 17.7654 42.6873 17.0366 42.6887H13.3897Z" fill="#FF9500"/>
<path d="M45.3779 28.134C45.3779 29.69 46.6392 30.9517 48.1952 30.9517C49.7512 30.9517 51.013 29.6905 51.013 28.1345C51.013 26.5784 49.7517 25.3167 48.1957 25.3167C46.6402 25.3187 45.3799 26.5789 45.3779 28.134ZM48.1957 26.8284C48.9166 26.8284 49.5012 27.413 49.5012 28.1345C49.5012 28.8554 48.9166 29.44 48.1952 29.44C47.4743 29.44 46.8897 28.8554 46.8897 28.134C46.8906 27.4135 47.4748 26.8294 48.1957 26.8284Z" fill="#0098DB"/>
</g>
<defs>
<clipPath id="clip0">
<rect width="60" height="60" fill="white"/>
</clipPath>
</defs>
</svg>
