<svg width="60" height="60" viewBox="0 0 60 60" fill="none" xmlns="http://www.w3.org/2000/svg">
<path d="M6.59009 12.8278H4.15107C2.66765 12.8297 1.46528 14.032 1.46338 15.5154V36.211H3.9024V15.5154C3.90431 14.032 5.10667 12.8297 6.59009 12.8278Z" fill="#8FD2EF"/>
<path d="M3.9024 38.7247V37.6733H1.46338V38.7247C1.46528 40.2086 2.66765 41.411 4.15107 41.4124H6.59009C5.10667 41.411 3.90431 40.2086 3.9024 38.7247Z" fill="#8FD2EF"/>
<path d="M37.7048 13.6271C37.8891 13.8162 38.1602 13.8915 38.4155 13.8243C38.6704 13.7571 38.87 13.558 38.9367 13.3027C39.0038 13.0478 38.9286 12.7763 38.7394 12.5924L37.9439 11.7969H44.3268C44.7312 11.7969 45.0585 11.4691 45.0585 11.0652C45.0585 10.6607 44.7312 10.3335 44.3268 10.3335H37.9439L38.7394 9.53744C39.0214 9.25114 39.0195 8.79096 38.7356 8.50704C38.4512 8.22312 37.9915 8.22122 37.7048 8.50275L35.6602 10.5478C35.3743 10.8332 35.3743 11.2967 35.6602 11.5825L37.7048 13.6271Z" fill="#FF9500"/>
<path d="M50.6004 11.7969H50.6909C51.0948 11.7969 51.4226 11.4692 51.4226 11.0652C51.4226 10.6608 51.0948 10.3335 50.6909 10.3335H50.6004C50.1964 10.3335 49.8687 10.6608 49.8687 11.0652C49.8687 11.4692 50.1964 11.7969 50.6004 11.7969Z" fill="#FF9500"/>
<path d="M48.929 11.7969H48.988C49.392 11.7969 49.7197 11.4692 49.7197 11.0652C49.7197 10.6608 49.392 10.3335 48.988 10.3335H48.929C48.5245 10.3335 48.1973 10.6608 48.1973 11.0652C48.1973 11.4692 48.5245 11.7969 48.929 11.7969Z" fill="#FF9500"/>
<path d="M46.5901 11.7969H46.6177C47.0217 11.7969 47.3494 11.4692 47.3494 11.0652C47.3494 10.6608 47.0217 10.3335 46.6177 10.3335H46.5901C46.1857 10.3335 45.8584 10.6608 45.8584 11.0652C45.8584 11.4692 46.1857 11.7969 46.5901 11.7969Z" fill="#FF9500"/>
<path d="M53.8315 43.7634H53.7415C53.3375 43.7634 53.0098 44.0907 53.0098 44.4951C53.0098 44.8991 53.3375 45.2268 53.7415 45.2268H53.8315C54.2359 45.2268 54.5632 44.8991 54.5632 44.4951C54.5632 44.0907 54.2359 43.7634 53.8315 43.7634Z" fill="#FF9500"/>
<path d="M52.1287 43.7634H52.0696C51.6656 43.7634 51.3379 44.0907 51.3379 44.4951C51.3379 44.8991 51.6656 45.2268 52.0696 45.2268H52.1287C52.5331 45.2268 52.8604 44.8991 52.8604 44.4951C52.8604 44.0907 52.5331 43.7634 52.1287 43.7634Z" fill="#FF9500"/>
<path d="M49.7588 43.7634H49.7312C49.3273 43.7634 48.9995 44.0907 48.9995 44.4951C48.9995 44.8991 49.3273 45.2268 49.7312 45.2268H49.7588C50.1633 45.2268 50.4906 44.8991 50.4906 44.4951C50.4906 44.0907 50.1633 43.7634 49.7588 43.7634Z" fill="#FF9500"/>
<path d="M47.4677 43.7633H36.9952L37.7907 42.9673C38.0765 42.682 38.0765 42.2185 37.7907 41.9326C37.5049 41.6468 37.0418 41.6468 36.756 41.9326L34.7114 43.9777C34.4256 44.263 34.4256 44.7265 34.7114 45.0124L36.756 47.057C36.9404 47.2442 37.2114 47.3185 37.4653 47.2513C37.7192 47.1837 37.9179 46.9855 37.9851 46.7311C38.0522 46.4772 37.9784 46.2066 37.7912 46.0223L36.9952 45.2267H47.4677C47.8717 45.2267 48.1994 44.899 48.1994 44.495C48.1994 44.0906 47.8717 43.7633 47.4677 43.7633Z" fill="#FF9500"/>
<path d="M49.6358 22.7259L51.6803 24.7705C51.9662 25.0563 52.4297 25.0563 52.7155 24.7705C53.0013 24.4846 53.0013 24.0216 52.7155 23.7358L51.9195 22.9402H53.3953C53.7992 22.9402 54.127 22.6125 54.127 22.2085C54.127 21.8041 53.7992 21.4768 53.3953 21.4768H51.9195L52.7155 20.6808C53.0013 20.395 53.0013 19.932 52.7155 19.6461C52.4297 19.3603 51.9662 19.3603 51.6803 19.6461L49.6358 21.6912C49.3499 21.9765 49.3499 22.4401 49.6358 22.7259Z" fill="#FF9500"/>
<path d="M59.2685 21.4768H59.1785C58.774 21.4768 58.4468 21.8041 58.4468 22.2085C58.4468 22.6125 58.774 22.9402 59.1785 22.9402H59.2685C59.6725 22.9402 60.0002 22.6125 60.0002 22.2085C60.0002 21.8041 59.6725 21.4768 59.2685 21.4768Z" fill="#FF9500"/>
<path d="M57.5652 21.4768H57.5061C57.1017 21.4768 56.7744 21.8041 56.7744 22.2085C56.7744 22.6125 57.1017 22.9402 57.5061 22.9402H57.5652C57.9692 22.9402 58.2969 22.6125 58.2969 22.2085C58.2969 21.8041 57.9692 21.4768 57.5652 21.4768Z" fill="#FF9500"/>
<path d="M55.1954 21.4768H55.1673C54.7633 21.4768 54.4355 21.8041 54.4355 22.2085C54.4355 22.6125 54.7633 22.9402 55.1673 22.9402H55.1954C55.5993 22.9402 55.9271 22.6125 55.9271 22.2085C55.9271 21.8041 55.5993 21.4768 55.1954 21.4768Z" fill="#FF9500"/>
<path d="M58.9251 32.6201H58.866C58.462 32.6201 58.1343 32.9474 58.1343 33.3518C58.1343 33.7558 58.462 34.0835 58.866 34.0835H58.9255C59.3295 34.0835 59.6572 33.7558 59.6572 33.3518C59.6572 32.9474 59.3295 32.6201 58.9255 32.6201H58.9251Z" fill="#FF9500"/>
<path d="M56.5552 32.6201H56.5276C56.1232 32.6201 55.7959 32.9474 55.7959 33.3518C55.7959 33.7558 56.1232 34.0835 56.5276 34.0835H56.5552C56.9592 34.0835 57.2869 33.7558 57.2869 33.3518C57.2869 32.9474 56.9592 32.6201 56.5552 32.6201Z" fill="#FF9500"/>
<path d="M54.7541 32.6201H50.2691L51.0646 31.8241C51.3505 31.5383 51.3505 31.0753 51.0646 30.7894C50.7788 30.5036 50.3158 30.5036 50.03 30.7894L47.9854 32.8345C47.6995 33.1198 47.6995 33.5834 47.9854 33.8692L50.03 35.9138C50.3158 36.1996 50.7788 36.1996 51.0646 35.9138C51.3505 35.6279 51.3505 35.1649 51.0646 34.8791L50.2691 34.0835H54.7541C55.1586 34.0835 55.4858 33.7558 55.4858 33.3518C55.4858 32.9474 55.1586 32.6201 54.7541 32.6201Z" fill="#FF9500"/>
<path d="M27.6361 32.4151C27.4751 32.2065 27.2145 32.1002 26.9535 32.1369C26.6924 32.1741 26.4719 32.3484 26.3752 32.5938C26.2785 32.8391 26.3213 33.1173 26.4876 33.3221C28.9781 36.481 33.1959 37.7148 36.9963 36.3971C40.7968 35.079 43.3449 31.4981 43.3449 27.4756C43.3449 23.4531 40.7968 19.8723 36.9963 18.5546C33.1959 17.2365 28.9781 18.4708 26.4876 21.6296C26.3213 21.8344 26.2785 22.1126 26.3752 22.3575C26.4719 22.6028 26.6924 22.7772 26.9535 22.8143C27.2145 22.851 27.4751 22.7448 27.6361 22.5361C29.7403 19.8665 33.3049 18.8233 36.5162 19.937C39.7279 21.0503 41.8815 24.0767 41.8815 27.4756C41.8815 30.875 39.7279 33.9009 36.5162 35.0147C33.3049 36.128 29.7403 35.0847 27.6361 32.4151Z" fill="#FF9500"/>
<path d="M27.7924 16.0819V17.7745C27.6843 17.8431 27.5781 17.9126 27.4719 17.9845C27.1374 18.2113 26.6825 18.1241 26.4553 17.7897C26.2285 17.4553 26.3157 17.0004 26.6501 16.7736C27.0188 16.5235 27.3999 16.2925 27.7924 16.0819Z" fill="#FF9500"/>
<path d="M27.7931 37.177V38.8696C27.4091 38.6638 27.0361 38.438 26.675 38.1941C26.4535 38.0497 26.3273 37.7973 26.3449 37.5334C26.362 37.2699 26.5202 37.036 26.7584 36.9217C26.9966 36.8074 27.2781 36.8302 27.4944 36.9817C27.5935 37.0489 27.6921 37.1137 27.7931 37.177Z" fill="#FF9500"/>
<path d="M32.777 21.3663C32.3731 21.3663 32.0453 21.6936 32.0453 22.098V22.755H31.2893C30.8854 22.755 30.5576 23.0827 30.5576 23.4867V31.5273C30.5576 31.9318 30.8854 32.2591 31.2893 32.2591H32.0453V32.854C32.0453 33.258 32.3731 33.5857 32.777 33.5857C33.181 33.5857 33.5087 33.258 33.5087 32.854V32.2591H33.948V32.854C33.948 33.258 34.2752 33.5857 34.6797 33.5857C35.0836 33.5857 35.4114 33.258 35.4114 32.854V32.1047C36.3189 31.7874 36.9939 31.0176 37.1897 30.0763C37.3855 29.135 37.0734 28.1599 36.3674 27.5072C37.0734 26.8546 37.3855 25.8795 37.1897 24.9377C36.9939 23.9964 36.3189 23.2266 35.4114 22.9098V22.098C35.4114 21.6936 35.0836 21.3663 34.6797 21.3663C34.2752 21.3663 33.948 21.6936 33.948 22.098V22.755H33.5087V22.098C33.5087 21.6936 33.181 21.3663 32.777 21.3663ZM35.7844 29.5175C35.7829 30.223 35.2113 30.7947 34.5058 30.7956H32.021V28.239H34.5058C35.2113 28.2399 35.7834 28.8115 35.7844 29.5175ZM34.5058 26.7755H32.021V24.2184H34.5058C34.9655 24.2141 35.3923 24.4566 35.6234 24.8539C35.8544 25.2516 35.8544 25.7423 35.6234 26.1396C35.3923 26.5374 34.9655 26.7798 34.5058 26.7755Z" fill="#FF9500"/>
<path d="M31.6244 50.322H23.8767V42.8758H26.3291V43.3893C26.3291 43.7933 26.6568 44.121 27.0608 44.121H29.3864C29.7909 44.121 30.1181 43.7933 30.1181 43.3893V39.8404C29.6199 39.6874 29.1311 39.505 28.6547 39.293V42.6576H27.7925V11.5929H28.6547V15.6597C29.1306 15.4468 29.6194 15.2639 30.1181 15.1124V10.8612C30.1181 10.4568 29.7909 10.1295 29.3864 10.1295H27.0608C26.6568 10.1295 26.3291 10.4568 26.3291 10.8612V11.3647H4.15111C1.85976 11.3671 0.00238185 13.2245 0 15.5159V38.7247C0.00238185 41.016 1.85976 42.8729 4.15111 42.8758H22.4133V50.322H14.6661C14.2616 50.322 13.9344 50.6497 13.9344 51.0537C13.9344 51.4581 14.2616 51.7854 14.6661 51.7854H31.6244C32.0284 51.7854 32.3561 51.4581 32.3561 51.0537C32.3561 50.6497 32.0284 50.322 31.6244 50.322ZM1.46341 15.5159C1.46484 14.032 2.66721 12.8296 4.15111 12.8282H26.3291V36.2099H1.46341V15.5159ZM4.15111 41.4124C2.66768 41.4105 1.46532 40.2081 1.46341 38.7247V37.6733H26.3291V41.4124H4.15111Z" fill="#0098DB"/>
<path d="M46.8293 27.4757C46.8312 30.8804 45.4859 34.1478 43.0864 36.5635C43.0602 36.6011 43.0278 36.634 42.9902 36.6602C39.2126 40.4111 33.519 41.4573 28.6547 39.2931C28.3622 39.1635 28.0754 39.022 27.7925 38.8696V37.1771C29.4107 38.1994 31.2605 38.7972 33.1707 38.9149V38.4037C33.1707 37.9998 33.4985 37.672 33.9024 37.672C34.3064 37.672 34.6341 37.9998 34.6341 38.4037V38.9149C37.1651 38.7553 39.5703 37.7573 41.4706 36.0781L41.1123 35.7208C40.8265 35.435 40.8265 34.9715 41.1123 34.6856C41.3982 34.3998 41.8617 34.3998 42.1475 34.6856L42.5048 35.0443C44.184 33.1436 45.182 30.7384 45.3416 28.2074H44.8304C44.4264 28.2074 44.0987 27.8797 44.0987 27.4757C44.0987 27.0718 44.4264 26.744 44.8304 26.744H45.3416C45.182 24.2135 44.184 21.8079 42.5048 19.9076L42.1475 20.2658C41.8617 20.5521 41.3982 20.5521 41.1123 20.2658C40.8265 19.98 40.8265 19.5165 41.1123 19.2307L41.4706 18.8734C39.5703 17.1947 37.1651 16.1967 34.6341 16.0366V16.5478C34.6341 16.9517 34.3064 17.2795 33.9024 17.2795C33.4985 17.2795 33.1707 16.9517 33.1707 16.5478V16.0366C31.2605 16.1547 29.4107 16.7526 27.7925 17.7744V16.0819C28.0754 15.9294 28.3632 15.7889 28.6547 15.6598C29.1306 15.4469 29.6194 15.2639 30.1181 15.1124C34.667 13.7233 39.6113 14.9448 42.9902 18.2918C43.0278 18.318 43.0602 18.3503 43.0864 18.388C45.4859 20.8041 46.8312 24.0711 46.8293 27.4757Z" fill="#FF9500"/>
</svg>
