<svg width="60" height="60" viewBox="0 0 60 60" fill="none" xmlns="http://www.w3.org/2000/svg">
<g clip-path="url(#clip0)">
<path d="M16.7434 38.3963C16.5474 38.2017 16.437 37.9363 16.4375 37.6598V29.7361C16.4375 29.7115 16.4366 29.6864 16.4342 29.6614C16.3595 28.9254 16.6003 28.1922 17.096 27.6436C17.5921 27.0945 18.2973 26.7814 19.0372 26.7814H17.8041C17.0642 26.7809 16.3585 27.094 15.8624 27.6431C15.3662 28.1918 15.1259 28.9254 15.201 29.6614C15.2034 29.686 15.2044 29.711 15.2044 29.7361V37.6598C15.2049 38.2355 15.6716 38.7013 16.2468 38.7013H16.267C16.4809 38.6979 16.688 38.6247 16.8566 38.4936C16.8166 38.4638 16.7786 38.4315 16.7434 38.3963Z" fill="#0098DB" fill-opacity="0.3"/>
<path d="M20.4891 53.5768L20.0117 37.4999C20.0031 37.1772 19.7853 36.8978 19.4751 36.8097C19.1649 36.722 18.833 36.8453 18.6562 37.1155C18.7319 37.2297 18.7743 37.3626 18.7786 37.4999L19.256 53.5768C19.2767 53.7039 19.387 53.7974 19.5156 53.7974H20.7487C20.6201 53.7974 20.5098 53.7039 20.4891 53.5768Z" fill="#0098DB" fill-opacity="0.3"/>
<path d="M21.1023 20.3937V19.1018C21.1042 17.965 21.8754 16.9737 22.9765 16.6914C22.7752 16.6389 22.5681 16.6119 22.36 16.6115C20.9848 16.6124 19.8706 17.727 19.8692 19.1023V20.3942C19.8663 21.1644 20.2208 21.8922 20.8296 22.3643C21.438 22.8363 22.2314 22.9991 22.9765 22.8045C21.8749 22.5223 21.1042 21.5309 21.1023 20.3937Z" fill="#0098DB" fill-opacity="0.3"/>
<path d="M44.9584 2.99074e-07C38.1434 -0.00144477 32.4711 5.23403 31.9267 12.0273C31.3824 18.8205 36.1488 24.8922 42.8775 25.976L29.1951 48.3423C29.0631 48.5586 29.0506 48.8274 29.1623 49.0547C29.2741 49.2821 29.4942 49.4362 29.7461 49.4642C37.4084 50.3018 41.5427 52.3196 41.5427 53.7931V53.8056C41.548 54.0913 41.3895 54.3995 41.0721 54.7223C40.0596 55.7521 37.7114 56.702 34.4595 57.3956C31.0125 58.1312 26.8758 58.5199 22.4972 58.5199C10.6645 58.5199 3.39919 55.7671 3.39919 53.7931C3.39919 52.6168 6.37458 50.5032 14.572 49.4998C14.9756 49.4478 15.2617 49.0798 15.2121 48.6761C15.163 48.2725 14.7964 47.9839 14.3923 48.0311C10.8533 48.4642 7.83892 49.1698 5.67421 50.0725C3.18339 51.111 1.91992 52.3625 1.91992 53.7931C1.91992 55.6428 4.1198 57.2261 8.28159 58.372C12.0932 59.4216 17.1418 60.0001 22.4972 60.0001C31.7456 60.0001 39.6347 58.2959 42.1275 55.7598C42.732 55.1452 43.0331 54.4814 43.0229 53.7868C43.0191 52.3331 41.6911 51.0648 39.0769 50.0176C37.0221 49.1944 34.2678 48.5475 31.0602 48.1308L44.5162 26.134C44.6636 26.1393 44.811 26.1427 44.9603 26.1427C52.1789 26.1427 58.0314 20.2902 58.0314 13.0716C58.0314 5.85252 52.1789 0.000481988 44.9603 0.000481988L44.9584 2.99074e-07ZM44.9584 24.6625C38.5567 24.6625 33.367 19.4728 33.367 13.0711C33.367 6.66946 38.5567 1.47975 44.9584 1.47975C51.3605 1.47975 56.5497 6.66946 56.5497 13.0711C56.543 19.4699 51.3571 24.6552 44.9584 24.6625Z" fill="#FF9500"/>
<path d="M46.1383 6.17525H45.9783V4.77161C45.9783 4.36314 45.6469 4.03174 45.2385 4.03174C44.8295 4.03174 44.4986 4.36314 44.4986 4.77161V6.17525H44.1171V4.77161C44.1171 4.36314 43.7857 4.03174 43.3772 4.03174C42.9683 4.03174 42.6373 4.36314 42.6373 4.77161V6.17525H40.9254C40.5169 6.17525 40.1855 6.50666 40.1855 6.91513V19.3234C40.1855 19.7324 40.5169 20.0633 40.9254 20.0633H42.6373V21.3706C42.6373 21.7791 42.9683 22.1105 43.3772 22.1105C43.7857 22.1105 44.1171 21.7791 44.1171 21.3706V20.0633H44.4986V21.3706C44.4986 21.7791 44.8295 22.1105 45.2385 22.1105C45.6469 22.1105 45.9783 21.7791 45.9783 21.3706V20.0633H46.1383C48.1219 20.0609 49.7288 18.454 49.7307 16.4704V15.9718C49.7307 14.8524 49.2086 13.7975 48.3184 13.1193C49.2086 12.4406 49.7307 11.3857 49.7307 10.2662V9.76769C49.7288 7.78458 48.1214 6.17766 46.1383 6.17525ZM48.251 15.9718V16.4704C48.25 17.637 47.3049 18.5821 46.1383 18.5836H41.6653V13.8592H46.1383C47.3049 13.8606 48.25 14.8057 48.251 15.9718ZM41.6653 12.3794V7.655H46.1383C47.3049 7.65645 48.25 8.60152 48.251 9.76769V10.2667C48.25 11.4329 47.3049 12.378 46.1383 12.3794H41.6653Z" fill="#FF9500"/>
<path d="M18.3892 20.3937C18.3665 21.8273 19.1184 23.1615 20.3559 23.8846C21.5934 24.608 23.1251 24.608 24.3626 23.8846C25.6005 23.1615 26.352 21.8273 26.3293 20.3937V19.1019C26.2951 16.9333 24.5278 15.1934 22.3593 15.1934C20.1907 15.1934 18.4234 16.9333 18.3892 19.1019V20.3937ZM19.8689 19.1019C19.8704 17.7266 20.9845 16.612 22.3597 16.6106C23.7345 16.6125 24.8486 17.7266 24.8501 19.1019V20.3937C24.8231 21.7502 23.7162 22.8354 22.3597 22.8354C21.0033 22.8354 19.8964 21.7502 19.8694 20.3937L19.8689 19.1019Z" fill="#0098DB"/>
<path d="M17.8033 25.3017C15.5413 25.3017 13.7075 27.1355 13.707 29.3975C13.707 29.5223 13.7128 29.648 13.7244 29.7718V37.6604C13.7249 39.0525 14.8535 40.1811 16.246 40.1811H16.2749C16.6559 40.1763 17.0307 40.0823 17.3693 39.907L17.7773 53.6539C17.7773 53.6708 17.7792 53.6876 17.7807 53.7045C17.8654 54.598 18.6178 55.2801 19.5152 55.2772H25.4752C26.3745 55.2801 27.1274 54.5961 27.2102 53.7006C27.2117 53.6838 27.2131 53.6674 27.2136 53.6505L27.5941 39.9258C28.3749 40.3078 29.2978 40.2591 30.0348 39.7981C30.7723 39.3367 31.2188 38.5274 31.2169 37.658V29.7718C31.3219 28.6254 30.9394 27.4876 30.1634 26.6369C29.3874 25.7868 28.2892 25.3022 27.138 25.3017H25.4371C25.2493 25.3017 25.0681 25.3735 24.9309 25.5021L22.48 27.8021L20.1246 25.5112C19.9868 25.3768 19.8014 25.3017 19.6087 25.3017H17.8033ZM21.9545 29.3556C21.9685 29.3691 21.9844 29.3787 21.9988 29.3908C22.0181 29.4076 22.0383 29.424 22.0595 29.4389C22.0793 29.4524 22.1 29.4625 22.1212 29.4741C22.1424 29.4861 22.1645 29.4972 22.1872 29.5073C22.2088 29.5165 22.2315 29.5227 22.2536 29.5295C22.2763 29.5367 22.2999 29.5444 22.3235 29.5492C22.3471 29.554 22.3692 29.5555 22.3919 29.5579C22.416 29.5613 22.4405 29.5632 22.4646 29.5637C22.4873 29.5637 22.5094 29.5613 22.5321 29.5598C22.5566 29.5584 22.5812 29.5555 22.6057 29.5516C22.6279 29.5473 22.6491 29.5406 22.6708 29.5343C22.6953 29.528 22.7194 29.5208 22.743 29.5121C22.7642 29.5035 22.7849 29.4919 22.8056 29.4813C22.8509 29.4611 22.8928 29.4341 22.9299 29.4009C22.9453 29.3888 22.9622 29.3787 22.9766 29.3652L25.73 26.7814H27.138C27.8778 26.7819 28.583 27.095 29.0787 27.6437C29.5748 28.1923 29.8152 28.9254 29.741 29.6615C29.7381 29.686 29.7372 29.7106 29.7372 29.7361V37.6585C29.7367 38.2172 29.2964 38.6763 28.7386 38.7004C28.1808 38.7244 27.7025 38.3049 27.6543 37.7485L27.6601 37.5424C27.6712 37.1339 27.3489 36.7934 26.9405 36.7818C26.532 36.7707 26.1914 37.093 26.1804 37.5014L26.1789 37.5453C26.1727 37.5828 26.1698 37.6204 26.1693 37.6585C26.1693 37.6864 26.1727 37.7134 26.1736 37.7408L25.7343 53.5764C25.7141 53.7035 25.6043 53.7975 25.4752 53.7975H19.5152C19.3866 53.7975 19.2763 53.704 19.2556 53.5769L18.7782 37.5C18.7185 37.1137 18.3722 36.8382 17.9825 36.8666C17.5928 36.8955 17.2903 37.2192 17.2884 37.6098C17.3004 38.1907 16.8472 38.6748 16.2667 38.7013H16.2465C15.6714 38.7013 15.2046 38.2351 15.2041 37.6599V29.7361C15.2041 29.7116 15.2032 29.6865 15.2007 29.6615C15.1261 28.9254 15.3669 28.1923 15.8626 27.6437C16.3587 27.0945 17.0639 26.7814 17.8038 26.7814H19.3081L21.9545 29.3556Z" fill="#0098DB"/>
</g>
<defs>
<clipPath id="clip0">
<rect width="60" height="60" fill="white"/>
</clipPath>
</defs>
</svg>
