<svg width="60" height="60" viewBox="0 0 60 60" fill="none" xmlns="http://www.w3.org/2000/svg">
<g clip-path="url(#clip0)">
<path d="M33.1818 53.9681H27.0192C26.6145 53.9681 26.2861 54.296 26.2861 54.7012C26.2861 55.106 26.6145 55.4343 27.0192 55.4343H33.1818C33.5871 55.4343 33.9149 55.106 33.9149 54.7012C33.9149 54.296 33.5871 53.9681 33.1818 53.9681Z" fill="#BFE5F6"/>
<path d="M54.7525 11.2709L47.3972 6.92483V5.787C47.3934 2.59257 44.8046 0.00381822 41.6102 0H18.5906C15.3962 0.00334095 12.807 2.59257 12.8036 5.787V6.89905L5.14332 11.2652C4.89991 11.4041 4.7572 11.6699 4.77581 11.9496H4.77295V17.3314C4.77343 17.4493 4.80159 17.5653 4.856 17.6698C6.35131 20.5525 9.80585 21.8083 12.8032 20.5592V54.2126C12.807 57.4075 15.3957 59.9962 18.5906 60H41.6097C44.8046 59.9962 47.3934 57.4075 47.3972 54.2126V20.6819C50.3372 21.7247 53.5961 20.438 55.0303 17.6679C55.0843 17.5638 55.1124 17.4483 55.1124 17.3314V11.9024H55.11C55.111 11.6432 54.975 11.4031 54.7525 11.2709ZM18.5906 1.4662H41.6097C43.9952 1.46906 45.9282 3.40204 45.931 5.787V6.59169H14.2693V5.787C14.2722 3.40204 16.2052 1.46906 18.5906 1.4662ZM13.7305 8.05788H46.4326L51.698 11.1693H8.27283L13.7305 8.05788ZM41.6102 58.5339H18.5906C16.2057 58.531 14.2727 56.598 14.2698 54.2126V50.7848H45.931V54.2126C45.9286 56.598 43.9957 58.531 41.6102 58.5339ZM45.931 49.3186H14.2693V19.693C14.645 19.3951 14.9848 19.0548 15.2817 18.6788C16.4624 20.1726 18.2632 21.0422 20.1671 21.0379C22.0719 21.0422 23.8731 20.1722 25.0539 18.6778C26.2366 20.1698 28.0369 21.0394 29.9408 21.0394C31.8451 21.0394 33.6444 20.1693 34.8276 18.6768C36.0108 20.1693 37.8106 21.0394 39.7149 21.0398C41.6193 21.0398 43.4196 20.1702 44.6028 18.6778C44.9817 19.1575 45.4294 19.5779 45.931 19.9268V49.3186ZM49.4915 19.5751C47.7027 19.5927 46.0594 18.5919 45.2547 16.9944C45.1282 16.7515 44.8767 16.5988 44.6028 16.5993C44.3288 16.5997 44.0773 16.7529 43.9513 16.9963C43.1313 18.5809 41.4957 19.5756 39.7121 19.5736C37.928 19.5722 36.2938 18.5752 35.4767 16.9892C35.3498 16.7486 35.1001 16.5988 34.8281 16.5988H34.8252C34.5518 16.6002 34.3021 16.7534 34.1766 16.9959C33.3576 18.5795 31.7239 19.5736 29.9412 19.5736C28.1586 19.5736 26.5249 18.5795 25.7059 16.9959C25.7006 16.9858 25.6944 16.9749 25.6892 16.9648C25.5551 16.7329 25.305 16.5921 25.0372 16.5983C24.769 16.6045 24.5261 16.7563 24.4029 16.9944C23.5839 18.578 21.9502 19.5722 20.1676 19.5722C18.3849 19.5722 16.7512 18.578 15.9322 16.9944C15.8071 16.7529 15.559 16.6007 15.2869 16.5983C15.0153 16.5959 14.7643 16.7443 14.6354 16.9839C14.6335 16.9873 14.6306 16.9925 14.6287 16.9959C13.824 18.5518 12.2304 19.5412 10.4788 19.5727C8.7272 19.6042 7.09968 18.6725 6.23915 17.1462V12.6355H53.6462V17.1462C52.8148 18.6597 51.2183 19.5927 49.4915 19.5751Z" fill="#0098DB"/>
<path d="M29.9428 27.4167C25.6821 27.4167 22.228 30.8708 22.228 35.1315C22.228 39.3926 25.6821 42.8467 29.9428 42.8467C34.2039 42.8467 37.658 39.3926 37.658 35.1315C37.6532 30.8727 34.202 27.4215 29.9428 27.4167ZM29.9428 41.3805C26.492 41.3805 23.6942 38.5827 23.6942 35.1315C23.6942 31.6807 26.492 28.8829 29.9428 28.8829C33.394 28.8829 36.1918 31.6807 36.1918 35.1315C36.188 38.5812 33.3925 41.3766 29.9428 41.3805Z" fill="#FF9500"/>
<path d="M37.4135 27.7519C37.3997 27.7352 37.3892 27.7175 37.373 27.7022C37.3567 27.687 37.34 27.6755 37.3233 27.6617C33.2364 23.612 26.6495 23.612 22.5625 27.6617C22.5458 27.6755 22.5282 27.6865 22.5129 27.7022C22.4976 27.7185 22.4862 27.7352 22.4723 27.7519C18.4226 31.8388 18.4226 38.4257 22.4723 42.5127C22.4862 42.5294 22.4972 42.547 22.5129 42.5623C22.5282 42.578 22.5458 42.589 22.5625 42.6029C26.6495 46.6526 33.2364 46.6526 37.3233 42.6029C37.34 42.589 37.3577 42.5785 37.373 42.5623C37.3882 42.5465 37.3997 42.5294 37.4135 42.5127C41.4632 38.4257 41.4632 31.8388 37.4135 27.7519ZM38.7022 35.8647H38.9523C38.8 37.7513 38.0574 39.5416 36.8293 40.9811L36.6551 40.8069C36.3678 40.5248 35.9072 40.5267 35.6223 40.8112C35.3379 41.0961 35.3359 41.5567 35.618 41.844L35.7922 42.0182C34.3527 43.2462 32.5625 43.9889 30.6758 44.1411V43.891C30.6758 43.4858 30.3479 43.1579 29.9427 43.1579C29.538 43.1579 29.2096 43.4858 29.2096 43.891V44.1411C27.3234 43.9889 25.5331 43.2462 24.0932 42.0182L24.2679 41.844C24.5499 41.5567 24.548 41.0961 24.2636 40.8112C23.9786 40.5267 23.5181 40.5248 23.2307 40.8069L23.0565 40.9811C21.8285 39.5416 21.0858 37.7513 20.9336 35.8647H21.1837C21.5889 35.8647 21.9168 35.5368 21.9168 35.1316C21.9168 34.7268 21.5889 34.3985 21.1837 34.3985H20.9336C21.0858 32.5122 21.8285 30.722 23.0565 29.282L23.2307 29.4567C23.5181 29.7388 23.9786 29.7369 24.2636 29.4524C24.548 29.1675 24.5499 28.7069 24.2679 28.4196L24.0932 28.2454C25.5331 27.0173 27.3234 26.2747 29.2096 26.1224V26.3725C29.2096 26.7778 29.538 27.1056 29.9427 27.1056C30.3479 27.1056 30.6758 26.7778 30.6758 26.3725V26.1224C32.5625 26.2747 34.3527 27.0173 35.7922 28.2454L35.618 28.4196C35.4304 28.6043 35.3565 28.8754 35.4238 29.1303C35.4911 29.3846 35.6901 29.5837 35.9445 29.651C36.1989 29.7183 36.4704 29.6443 36.6551 29.4567L36.8293 29.282C38.0574 30.722 38.8 32.5122 38.9523 34.3985H38.7022C38.297 34.3985 37.9691 34.7268 37.9691 35.1316C37.9691 35.5368 38.297 35.8647 38.7022 35.8647Z" fill="#FF9500"/>
<path d="M33.1196 33.2812C33.1177 32.1848 32.4323 31.2064 31.4029 30.8299V30.1025C31.4029 29.6978 31.075 29.3694 30.6698 29.3694C30.265 29.3694 29.9367 29.6978 29.9367 30.1025V30.6685H29.6236V30.1025C29.6236 29.6978 29.2952 29.3694 28.8905 29.3694C28.4857 29.3694 28.1574 29.6978 28.1574 30.1025V30.6685H27.4992C27.0945 30.6685 26.7661 30.9964 26.7661 31.4016V38.9202C26.7661 39.3254 27.0945 39.6533 27.4992 39.6533H28.1574V40.1606C28.1574 40.5658 28.4857 40.8937 28.8905 40.8937C29.2952 40.8937 29.6236 40.5658 29.6236 40.1606V39.6533H29.9367V40.1606C29.9367 40.5658 30.265 40.8937 30.6698 40.8937C31.075 40.8937 31.4029 40.5658 31.4029 40.1606V39.492C32.2495 39.1846 32.8776 38.4615 33.0638 37.5805C33.2494 36.6994 32.9674 35.7845 32.3173 35.1611C32.8299 34.67 33.1196 33.9909 33.1196 33.2812ZM31.6534 37.0407C31.6525 37.6735 31.1399 38.1861 30.507 38.1871H28.2323V35.8942H30.507C31.1399 35.8952 31.6525 36.4078 31.6534 37.0407ZM28.2323 34.428V32.1347H30.507C30.9194 32.1304 31.3026 32.3481 31.5098 32.7046C31.7174 33.0611 31.7174 33.5017 31.5098 33.8582C31.3026 34.2147 30.9194 34.4323 30.507 34.428H28.2323Z" fill="#FF9500"/>
</g>
<defs>
<clipPath id="clip0">
<rect width="60" height="60" fill="white"/>
</clipPath>
</defs>
</svg>
