<svg width="60" height="60" viewBox="0 0 60 60" fill="none" xmlns="http://www.w3.org/2000/svg">
<g clip-path="url(#clip0)">
<path d="M4.19234 34.323C4.19234 21.4703 14.3042 10.9353 26.9901 10.2541C26.5546 10.2311 26.1165 10.2193 25.677 10.2183C12.3857 10.2183 1.57227 21.0318 1.57227 34.323C1.57227 47.6143 12.3857 58.4277 25.677 58.4277C26.1165 58.4277 26.5531 58.416 26.987 58.3919C14.3027 57.7092 4.19234 47.1747 4.19234 34.323Z" fill="#0098DB" fill-opacity="0.3"/>
<path d="M39.0071 23.6954C38.656 23.9503 38.5777 24.4415 38.8326 24.7931C43.803 31.6554 42.6624 41.1855 36.2135 46.681C29.7646 52.177 20.1742 51.7916 14.187 45.7967C8.19968 39.8012 7.82765 30.2103 13.3319 23.7686C18.8366 17.3274 28.3681 16.2001 35.2238 21.1792C35.45 21.3517 35.7524 21.388 36.0134 21.2744C36.2749 21.1608 36.454 20.9147 36.4817 20.6312C36.5098 20.3477 36.3824 20.0713 36.1485 19.9086C33.1088 17.6887 29.4397 16.4974 25.6759 16.5066C15.8521 16.5066 7.85938 24.4994 7.85938 34.3231C7.85938 44.1474 15.8521 52.1396 25.6759 52.1396C35.4996 52.1396 43.4924 44.1474 43.4924 34.3231C43.5016 30.5675 42.3154 26.906 40.1052 23.8699C39.8499 23.5184 39.3586 23.4406 39.0071 23.6954Z" fill="#0098DB"/>
<path d="M59.291 9.26808L51.5029 8.49741L50.7328 0.709333C50.7026 0.406898 50.5009 0.148984 50.2149 0.0466376C49.9288 -0.0557091 49.6095 0.0159337 49.3946 0.230862L39.2049 10.4205C39.0095 10.616 38.9312 10.8995 38.9982 11.1671L39.3528 12.5872C35.262 9.99934 30.5177 8.6325 25.6767 8.64683C11.5186 8.64683 0 20.1654 0 34.3236C0 48.4817 11.5186 60.0003 25.6767 60.0003C39.8349 60.0003 51.3535 48.4817 51.3535 34.3236C51.3678 29.4826 50.001 24.7383 47.4131 20.647L48.8332 21.0021C49.1013 21.0692 49.3848 20.9904 49.5803 20.7954L59.77 10.6052C59.9844 10.3908 60.0565 10.071 59.9542 9.78493C59.8518 9.49887 59.5939 9.29725 59.2915 9.26756L59.291 9.26808ZM49.3316 2.51678L49.9652 8.92317L42.0394 16.8489L41.387 14.2391C41.3854 14.2329 41.3839 14.2273 41.3829 14.2211L40.6316 11.2168L49.3316 2.51678ZM49.7814 34.3236C49.7814 47.6148 38.968 58.4283 25.6767 58.4283C12.3855 58.4283 1.57205 47.6148 1.57205 34.3236C1.57205 21.0323 12.3855 10.2189 25.6767 10.2189C30.8038 10.204 35.7999 11.8385 39.9265 14.8813L40.7427 18.1461L30.5945 28.2948C30.3913 28.4924 30.3105 28.7841 30.3821 29.0578C30.4543 29.3321 30.6687 29.546 30.9425 29.6182C31.2168 29.6903 31.5079 29.6095 31.706 29.4063L41.8542 19.2581L45.119 20.0744C48.1618 24.201 49.7963 29.1965 49.7814 34.3236ZM48.7831 19.3692L45.77 18.6159H45.7674L43.1509 17.9614L51.0766 10.0357L57.4825 10.6692L48.7831 19.3692Z" fill="#0098DB"/>
<path d="M20.0341 43.8578H22.4597V45.936C22.4597 46.3699 22.8118 46.722 23.2457 46.722C23.6797 46.722 24.0318 46.3699 24.0318 45.936V43.8578H26.5689V45.936C26.5689 46.3699 26.921 46.722 27.355 46.722C27.7889 46.722 28.141 46.3699 28.141 45.936V43.7232C30.1572 43.255 31.6935 41.6195 32.0348 39.5777C32.3761 37.5364 31.4555 35.4894 29.7018 34.3907C31.4555 33.292 32.3761 31.2456 32.0348 29.2038C31.6935 27.1619 30.1572 25.5264 28.141 25.0582V22.7103C28.141 22.2764 27.7889 21.9243 27.355 21.9243C26.921 21.9243 26.5689 22.2764 26.5689 22.7103V24.9236H24.0318V22.7103C24.0318 22.2764 23.6797 21.9243 23.2457 21.9243C22.8118 21.9243 22.4597 22.2764 22.4597 22.7103V24.9236H20.0341C19.5996 24.9236 19.248 25.2757 19.248 25.7096V43.0718C19.248 43.5058 19.5996 43.8578 20.0341 43.8578ZM30.5329 38.7313C30.5308 40.6933 28.9408 42.2837 26.9783 42.2858H20.8201V35.1767H26.9783C28.9408 35.1788 30.5308 36.7693 30.5329 38.7313ZM20.8201 26.4951H26.9783C28.9419 26.4951 30.5329 28.0866 30.5329 30.0497C30.5329 32.0132 28.9419 33.6047 26.9783 33.6047H20.8201V26.4951Z" fill="#FF9500"/>
</g>
<defs>
<clipPath id="clip0">
<rect width="60" height="60" fill="white"/>
</clipPath>
</defs>
</svg>
