<svg width="60" height="60" viewBox="0 0 60 60" fill="none" xmlns="http://www.w3.org/2000/svg">
<g clip-path="url(#clip0)">
<path d="M1.46289 5.97565H3.90192V26.7074H1.46289V5.97565Z" fill="#0098DB" fill-opacity="0.3"/>
<path d="M6.98123 1.46344H4.54221C2.85537 1.46773 1.48485 2.82586 1.46484 4.51222H3.90387C3.92388 2.82586 5.2944 1.46773 6.98123 1.46344Z" fill="#0098DB" fill-opacity="0.3"/>
<path d="M3.90192 31.2196V28.1708H1.46289V31.2196C1.46527 32.0327 1.79111 32.8116 2.36895 33.3837C2.94679 33.9563 3.72899 34.2745 4.54216 34.2683H6.98118C6.16802 34.2745 5.38581 33.9563 4.80797 33.3837C4.23014 32.8116 3.9043 32.0327 3.90192 31.2196Z" fill="#0098DB" fill-opacity="0.3"/>
<path d="M55.458 24.2378H44.0251C41.5175 24.2407 39.4853 26.2729 39.4824 28.7805V55.4573C39.4853 57.9649 41.5175 59.9971 44.0251 60H55.458C57.9657 59.9971 59.9979 57.9649 60.0007 55.4573V28.7805C59.9979 26.2729 57.9657 24.2407 55.458 24.2378ZM58.5373 30.1791V50.9146H40.9458V30.1791H58.5373ZM44.0251 25.7012H55.458C57.1325 25.7036 58.4987 27.0417 58.5359 28.7157H40.9477C40.9844 27.0417 42.3507 25.7036 44.0251 25.7012ZM55.458 58.5366H44.0251C42.3254 58.5347 40.9477 57.1575 40.9458 55.4573V52.378H58.5373V55.4573C58.5354 57.1575 57.1577 58.5347 55.458 58.5366Z" fill="#FF9500"/>
<path d="M51.503 54.7256H47.9778C47.5738 54.7256 47.2461 55.0533 47.2461 55.4573C47.2461 55.8613 47.5738 56.189 47.9778 56.189H51.503C51.9069 56.189 52.2347 55.8613 52.2347 55.4573C52.2347 55.0533 51.9069 54.7256 51.503 54.7256Z" fill="#FF9500"/>
<path d="M18.322 52.4829C21.4818 54.5436 25.2565 55.4483 29.007 55.0429L29.7144 58.3851C29.7754 58.6747 30.0055 58.8986 30.2961 58.9529C30.5871 59.0072 30.882 58.8805 31.0435 58.6323L34.1709 53.8258C34.3914 53.4871 34.2952 53.034 33.957 52.8135L29.1499 49.6866C28.9017 49.5251 28.5811 49.5289 28.3368 49.6961C28.0929 49.8638 27.9738 50.1615 28.0352 50.4511L28.7021 53.6038C24.5963 54.0001 20.509 52.6815 17.4093 49.9595C14.3095 47.2375 12.4736 43.3546 12.3364 39.2316C12.3307 38.9682 12.1835 38.7281 11.9515 38.6028C11.7195 38.478 11.4379 38.4875 11.2145 38.6281C10.9916 38.7686 10.8611 39.0182 10.8739 39.2816C11.0564 44.6332 13.836 49.5594 18.322 52.4829ZM32.5455 53.6414L30.7806 56.3539L30.3094 54.1278C30.3094 54.1263 30.3094 54.1249 30.3094 54.1235C30.3051 54.0949 30.2989 54.0663 30.2908 54.0382L29.8335 51.876L32.5455 53.6414Z" fill="#0098DB"/>
<path d="M26.237 6.15191L31.0436 9.27929C31.2918 9.44078 31.6128 9.43649 31.8567 9.26929C32.1006 9.10208 32.2197 8.80387 32.1588 8.51471L31.4914 5.36208C35.5977 4.96527 39.6845 6.28434 42.7842 9.00633C45.884 11.7283 47.7199 15.6108 47.8571 19.7337C47.8705 20.1277 48.1934 20.4407 48.5879 20.4412H48.6136C49.0171 20.4273 49.3334 20.0886 49.3196 19.6847C49.1681 15.1296 47.1278 10.8427 43.6879 7.85256C40.248 4.86237 35.7187 3.43802 31.1865 3.92201L30.4795 0.580263C30.4181 0.290629 30.1885 0.0667342 29.8974 0.0124277C29.6064 -0.0418786 29.3115 0.0848362 29.15 0.333026L26.0226 5.13962C25.8025 5.47832 25.8983 5.93135 26.237 6.15191ZM29.4134 2.61151L29.8846 4.83712V4.84141C29.8888 4.87047 29.895 4.89905 29.9031 4.92716L30.3609 7.08893L27.6485 5.32445L29.4134 2.61151Z" fill="#0098DB"/>
<path d="M46.4485 46.2486H47.5913V47.1875C47.5913 47.5915 47.9186 47.9192 48.323 47.9192C48.727 47.9192 49.0547 47.5915 49.0547 47.1875V46.2486H49.9889V47.1875C49.9889 47.5915 50.3166 47.9192 50.7206 47.9192C51.1246 47.9192 51.4523 47.5915 51.4523 47.1875V46.1061C52.607 45.7551 53.4736 44.7952 53.7051 43.6104C53.9366 42.4262 53.4955 41.2105 52.558 40.4507C53.4955 39.6904 53.9366 38.4747 53.7051 37.2904C53.4736 36.1061 52.607 35.1458 51.4523 34.7947V33.6347C51.4523 33.2308 51.1246 32.903 50.7206 32.903C50.3166 32.903 49.9889 33.2308 49.9889 33.6347V34.6532H49.0547V33.6347C49.0547 33.2308 48.727 32.903 48.323 32.903C47.9186 32.903 47.5913 33.2308 47.5913 33.6347V34.6532H46.4485C46.0445 34.6532 45.7168 34.9805 45.7168 35.3849V45.5159C45.7163 45.9204 46.0441 46.2486 46.4485 46.2486ZM52.3022 42.984C52.3012 43.9782 51.4952 44.7837 50.501 44.7852H47.1802V41.1828H50.501C51.4952 41.1843 52.3007 41.9898 52.3022 42.984ZM47.1802 36.1171H50.501C51.1479 36.1119 51.7481 36.4539 52.073 37.0132C52.3984 37.5729 52.3984 38.2636 52.073 38.8229C51.7481 39.3826 51.1479 39.7247 50.501 39.7194H47.1802V36.1171Z" fill="#FF9500"/>
<path d="M20.5183 31.2195V4.54268C20.5154 2.03506 18.4832 0.00285823 15.9756 0H4.54268C2.03506 0.00285823 0.00285823 2.03506 0 4.54268V31.2195C0.00285823 33.7271 2.03506 35.7593 4.54268 35.7622H15.9756C18.4832 35.7593 20.5154 33.7271 20.5183 31.2195ZM19.0549 5.94131V26.6768H1.46341V5.94131H19.0549ZM4.54268 1.46341H15.9756C17.6501 1.4658 19.0163 2.80393 19.0534 4.4779H1.46532C1.502 2.80393 2.86824 1.4658 4.54268 1.46341ZM1.46341 31.2195V28.1402H19.0549V31.2195C19.053 32.9197 17.6753 34.2969 15.9756 34.2988H4.54268C2.84299 34.2969 1.46532 32.9197 1.46341 31.2195Z" fill="#0098DB"/>
<path d="M12.0225 30.4878H8.49733C8.09337 30.4878 7.76562 30.8155 7.76562 31.2195C7.76562 31.6235 8.09337 31.9512 8.49733 31.9512H12.0225C12.4264 31.9512 12.7542 31.6235 12.7542 31.2195C12.7542 30.8155 12.4264 30.4878 12.0225 30.4878Z" fill="#0098DB"/>
<path d="M10.2597 17.3266C11.453 17.3471 12.412 18.3175 12.4177 19.5108C12.4234 20.7046 11.4745 21.684 10.2812 21.7159C10.274 21.7159 10.2669 21.715 10.2597 21.715C10.2526 21.715 10.2459 21.7159 10.2388 21.7159C9.03545 21.7035 8.0665 20.7251 8.0646 19.5217C8.0646 19.1178 7.73733 18.79 7.33289 18.79C6.92893 18.79 6.60118 19.1178 6.60118 19.5217C6.60357 21.26 7.82594 22.7573 9.52801 23.1074V24.1907C9.52801 24.5946 9.85576 24.9224 10.2597 24.9224C10.6642 24.9224 10.9914 24.5946 10.9914 24.1907V23.1074C12.8336 22.7334 14.0926 21.0242 13.9035 19.1545C13.7148 17.2842 12.1395 15.8613 10.2597 15.8632C9.04736 15.8632 8.0646 14.8805 8.0646 13.6681C8.0646 12.4557 9.04736 11.473 10.2597 11.473C11.4721 11.473 12.4548 12.4557 12.4548 13.6681C12.4548 14.0725 12.7826 14.3998 13.1866 14.3998C13.591 14.3998 13.9183 14.0725 13.9183 13.6681C13.9164 11.9303 12.694 10.433 10.9914 10.0829V9.1335C10.9914 8.72906 10.6642 8.40179 10.2597 8.40179C9.85576 8.40179 9.52801 8.72906 9.52801 9.1335V10.0834C7.68636 10.4573 6.42731 12.1666 6.61643 14.0363C6.80507 15.9066 8.38043 17.329 10.2597 17.3271V17.3266Z" fill="#0098DB"/>
</g>
<defs>
<clipPath id="clip0">
<rect width="60" height="60" fill="white"/>
</clipPath>
</defs>
</svg>
