<svg width="60" height="60" viewBox="0 0 60 60" fill="none" xmlns="http://www.w3.org/2000/svg">
<g clip-path="url(#clip0)">
<path d="M19.1944 33.7609C26.887 33.7609 33.1237 27.5247 33.1237 19.8322C33.1237 12.1391 26.8875 5.90289 19.1949 5.90289C11.5018 5.90289 5.26562 12.1386 5.26562 19.8317C5.27407 27.5208 11.5053 33.752 19.1944 33.7609ZM19.1944 7.4283C26.0448 7.4283 31.5983 12.9817 31.5983 19.8322C31.5983 26.6821 26.0448 32.2355 19.1944 32.2355C12.344 32.2355 6.79054 26.6821 6.79103 19.8317C6.79898 12.9847 12.3474 7.43575 19.1944 7.4278V7.4283Z" fill="#FF9500"/>
<path d="M5.62245 33.4049C5.64728 33.4282 5.6736 33.4496 5.7014 33.4694C13.1715 40.8795 25.2198 40.8795 32.69 33.4694C32.7178 33.4496 32.7441 33.4282 32.7689 33.4049C32.7923 33.3801 32.8136 33.3538 32.8335 33.3259C40.2435 25.8558 40.2435 13.808 32.8335 6.33788C32.8136 6.30958 32.7923 6.28326 32.7684 6.25843C32.7436 6.23509 32.7173 6.21374 32.69 6.19388C25.2193 -1.21616 13.1715 -1.21616 5.7014 6.19388C5.6736 6.21374 5.64728 6.23509 5.62245 6.25843C5.59911 6.28326 5.57727 6.30958 5.5579 6.33788C-1.85263 13.808 -1.85263 25.8558 5.5579 33.3259C5.57776 33.3538 5.59911 33.3801 5.62245 33.4049ZM2.6779 19.069H1.54328C1.72005 14.9133 3.36265 10.9543 6.17958 7.89407L6.97704 8.69104C7.16822 8.88966 7.45175 8.96911 7.71839 8.89909C7.98504 8.82957 8.19359 8.62102 8.26311 8.35437C8.33313 8.08773 8.25368 7.8042 8.05555 7.61253L7.25859 6.81556C10.3188 3.99813 14.2778 2.35554 18.4335 2.17926V3.31388C18.4335 3.73545 18.7746 4.07658 19.1962 4.07658C19.6173 4.07658 19.9589 3.73545 19.9589 3.31388V2.17926C24.114 2.35603 28.073 3.99863 31.1328 6.81556L30.3363 7.61253C30.1407 7.80469 30.0637 8.08723 30.1337 8.35189C30.2037 8.61655 30.4108 8.82362 30.6755 8.89363C30.9401 8.96414 31.2227 8.88668 31.4148 8.69153L32.2113 7.89457C35.0287 10.9548 36.6713 14.9133 36.8481 19.069H35.713C35.2919 19.069 34.9503 19.4106 34.9503 19.8317C34.9503 20.2532 35.2919 20.5944 35.713 20.5944H36.8481C36.6713 24.75 35.0292 28.709 32.2118 31.7688L31.4148 30.9718C31.2232 30.7747 30.9401 30.6962 30.6745 30.7662C30.4083 30.8362 30.2008 31.0438 30.1307 31.3099C30.0607 31.5756 30.1397 31.8586 30.3363 32.0503L31.1333 32.8473C28.073 35.6647 24.1145 37.3073 19.9589 37.4841V36.3489C19.9589 35.9279 19.6173 35.5862 19.1962 35.5862C18.7751 35.5862 18.4335 35.9279 18.4335 36.3489V37.4841C14.2778 37.3073 10.3188 35.6647 7.25859 32.8473L8.05555 32.0503C8.34653 31.7514 8.34355 31.2742 8.0486 30.9792C7.75315 30.6843 7.27597 30.6808 6.97704 30.9718L6.18008 31.7688C3.36265 28.709 1.72005 24.75 1.54378 20.5944H2.6784C3.09947 20.5944 3.4411 20.2527 3.4411 19.8317C3.4411 19.4101 3.09947 19.069 2.6784 19.069H2.6779Z" fill="#FF9500"/>
<path d="M15.3818 26.5068H16.7901V27.6796C16.7901 28.1012 17.1312 28.4424 17.5528 28.4424C17.9738 28.4424 18.3155 28.1012 18.3155 27.6796V26.5068H19.5668V27.6796C19.5668 28.1012 19.9084 28.4424 20.3295 28.4424C20.7511 28.4424 21.0922 28.1012 21.0922 27.6796V26.3633C22.4354 25.98 23.4473 24.8716 23.707 23.4992C23.9667 22.1267 23.4305 20.7249 22.3207 19.8773C23.4305 19.0292 23.9667 17.6275 23.707 16.255C23.4473 14.883 22.4354 13.7742 21.0922 13.3909V11.9832C21.0922 11.5621 20.7511 11.2205 20.3295 11.2205C19.9084 11.2205 19.5668 11.5621 19.5668 11.9832V13.2474H18.3155V11.9832C18.3155 11.5621 17.9738 11.2205 17.5528 11.2205C17.1312 11.2205 16.7901 11.5621 16.7901 11.9832V13.2474H15.3818C14.9608 13.2474 14.6191 13.589 14.6191 14.0101V25.7441C14.6191 26.1652 14.9608 26.5068 15.3818 26.5068ZM22.2462 22.8105C22.2447 24.0086 21.2734 24.9799 20.0753 24.9814H16.1445V20.64H20.0753C21.2734 20.6415 22.2447 21.6123 22.2462 22.8105ZM16.1445 14.7728H20.0753C21.2744 14.7728 22.2462 15.7445 22.2462 16.9437C22.2462 18.1424 21.2744 19.1146 20.0753 19.1146H16.1445V14.7728Z" fill="#FF9500"/>
<path d="M59.514 46.6067L41.0547 39.4276C40.7731 39.3179 40.4529 39.3854 40.2389 39.5989C40.0253 39.8129 39.9578 40.1332 40.0675 40.4147L47.2467 58.874C47.3609 59.167 47.6429 59.3602 47.9572 59.3602C47.9692 59.3602 47.9811 59.3602 47.993 59.3592C48.3202 59.3443 48.6013 59.1218 48.6911 58.8065L50.1321 53.7611L54.6249 58.2539C54.9224 58.5518 55.4055 58.5518 55.7034 58.2539L58.8938 55.063C59.1917 54.7651 59.1917 54.2824 58.8938 53.9845L54.4015 49.4917L59.4469 48.0507C59.7618 47.9608 59.9842 47.6798 59.9996 47.3531C60.0145 47.0258 59.8194 46.7254 59.514 46.6067ZM52.7356 48.3809C52.4759 48.4554 52.2743 48.6615 52.2062 48.9231C52.1382 49.1848 52.2142 49.4629 52.4054 49.6541L57.275 54.5238L55.1632 56.6356L50.294 51.7654C50.1028 51.5747 49.8248 51.4988 49.5631 51.5668C49.3019 51.6343 49.0953 51.8354 49.0214 52.0956L47.847 56.2081L42.1173 41.4774L56.848 47.2066L52.7356 48.3809Z" fill="#0098DB"/>
<path d="M38.7424 37.0243L36.2691 34.5504C35.9711 34.2525 35.488 34.2525 35.1901 34.5504C34.8926 34.8484 34.8921 35.331 35.1901 35.6289L37.6639 38.1028C37.9618 38.4007 38.4445 38.4007 38.7424 38.1028C39.0404 37.8049 39.0404 37.3222 38.7424 37.0243Z" fill="#0098DB"/>
<path d="M37.1662 41.9097C37.1662 41.4887 36.8251 41.147 36.4035 41.147H32.9053C32.4842 41.147 32.1426 41.4887 32.1426 41.9097C32.1426 42.3308 32.4842 42.6725 32.9053 42.6725H36.4035C36.8251 42.6725 37.1662 42.3308 37.1662 41.9097Z" fill="#0098DB"/>
<path d="M35.7311 49.4927C35.9337 49.4927 36.1278 49.4123 36.2703 49.2693L38.7442 46.7954C38.9413 46.6037 39.0198 46.3207 38.9498 46.055C38.8797 45.7889 38.6722 45.5813 38.4065 45.5113C38.1404 45.4413 37.8573 45.5198 37.6657 45.7169L35.1923 48.1907C34.9738 48.4087 34.9088 48.737 35.027 49.0215C35.1446 49.3065 35.4227 49.4927 35.7311 49.4927Z" fill="#0098DB"/>
<path d="M46.8978 38.3262C47.0999 38.3262 47.294 38.2458 47.437 38.1028L49.9104 35.6289C50.2083 35.331 50.2083 34.8484 49.9104 34.5504C49.6125 34.2525 49.1298 34.2525 48.8319 34.5504L46.358 37.0243C46.14 37.2423 46.075 37.5705 46.1926 37.8555C46.3108 38.1405 46.5889 38.3262 46.8978 38.3262Z" fill="#0098DB"/>
<path d="M41.7871 32.2648V35.763C41.7871 36.1841 42.1287 36.5257 42.5498 36.5257C42.9714 36.5257 43.3125 36.1841 43.3125 35.763V32.2648C43.3125 31.8437 42.9714 31.5021 42.5498 31.5021C42.1287 31.5021 41.7871 31.8437 41.7871 32.2648Z" fill="#0098DB"/>
</g>
<defs>
<clipPath id="clip0">
<rect width="60" height="60" fill="white"/>
</clipPath>
</defs>
</svg>
