<svg width="60" height="60" viewBox="0 0 60 60" fill="none" xmlns="http://www.w3.org/2000/svg">
<g clip-path="url(#clip0)">
<path d="M3.73416 55.9317L6.72798 55.4083L9.4528 49.0017C9.57621 48.7116 9.52533 48.3771 9.32072 48.1373C6.15531 44.4495 4.42104 39.7469 4.43403 34.8867C4.43403 24.0676 12.8732 15.1835 23.5148 14.4685C23.0568 14.4376 22.5951 14.4208 22.1291 14.4208C10.8439 14.4208 1.66267 23.6015 1.66267 34.8872C1.64968 39.7469 3.38395 44.4501 6.54936 48.1373C6.75397 48.3776 6.80485 48.7121 6.68143 49.0017L3.73416 55.9317Z" fill="#0098DB" fill-opacity="0.25"/>
<path d="M37.8707 2.07861C29.8732 2.08727 22.4999 6.40075 18.574 13.3681L20.023 14.1838C23.6539 7.73988 30.4735 3.74955 37.8707 3.74143C49.1559 3.74143 58.3371 12.9227 58.3371 24.2078C58.3506 29.068 56.6158 33.7712 53.4504 37.459C53.2463 37.6987 53.1949 38.0333 53.3183 38.3234L56.2656 45.2539L45.4064 43.354C45.2613 43.3286 45.1119 43.3421 44.9745 43.3936C43.5541 43.9202 42.0797 44.2894 40.5787 44.4929L40.8006 46.1411C42.3476 45.9311 43.8686 45.5587 45.3382 45.0304L57.4862 47.1555C57.5333 47.1636 57.5814 47.1679 57.6291 47.1679C57.9084 47.1679 58.1687 47.0277 58.323 46.795C58.4767 46.5622 58.5038 46.2678 58.3945 46.0112L55.0466 38.1399C58.2624 34.2102 60.0134 29.2856 59.9999 24.2078C59.9999 12.0057 50.0728 2.07861 37.8707 2.07861Z" fill="#FF9500"/>
<path d="M22.1293 12.7581C9.92718 12.7581 7.17871e-05 22.6846 7.17871e-05 34.8873C-0.012919 39.9645 1.73759 44.8885 4.9528 48.8177L1.60497 56.6896C1.48589 56.9699 1.52973 57.2931 1.71918 57.5318C1.90863 57.7705 2.21337 57.8863 2.51324 57.8338L14.6607 55.7082C17.0559 56.5726 19.5826 57.0149 22.1288 57.0154C34.3303 57.0154 44.258 47.0888 44.258 34.8862C44.258 22.6841 34.3309 12.7581 22.1293 12.7581ZM22.1293 55.3537C19.7044 55.3526 17.2989 54.9185 15.0261 54.0725C14.888 54.0216 14.7392 54.0081 14.5941 54.033L3.73437 55.9328L6.68165 49.0017C6.80507 48.7116 6.75419 48.3771 6.54958 48.1373C3.38417 44.4496 1.6499 39.7469 1.66289 34.8867C1.66289 23.6016 10.8441 14.4203 22.1293 14.4203C33.415 14.4203 42.5962 23.6016 42.5962 34.8867C42.5962 46.1725 33.4145 55.3531 22.1293 55.3531V55.3537Z" fill="#0098DB"/>
<path d="M28.5034 29.9221C28.5001 27.1096 26.2208 24.8303 23.4083 24.827H23.3461V22.7128C23.3461 22.2532 22.9737 21.8813 22.5146 21.8813C22.0551 21.8813 21.6832 22.2532 21.6832 22.7128V24.827H20.7874V22.7128C20.7874 22.2532 20.4156 21.8813 19.956 21.8813C19.497 21.8813 19.1246 22.2532 19.1246 22.7128V24.827H16.5865C16.1275 24.827 15.7551 25.1994 15.7551 25.6584V42.7131C15.7551 43.1721 16.1275 43.5445 16.5865 43.5445H19.1246V45.5262C19.1246 45.9852 19.497 46.3576 19.956 46.3576C20.4156 46.3576 20.7874 45.9852 20.7874 45.5262V43.5445H21.6832V45.5262C21.6832 45.9852 22.0551 46.3576 22.5146 46.3576C22.9737 46.3576 23.3461 45.9852 23.3461 45.5262V43.5445H23.4083C25.6627 43.5456 27.6498 42.0647 28.2928 39.9044C28.9359 37.7436 28.0817 35.4172 26.1937 34.1858C27.6341 33.2456 28.5028 31.6423 28.5034 29.9221ZM26.8406 38.4494C26.8384 40.3439 25.3033 41.8795 23.4083 41.8817H17.4179V35.0172H23.4083C25.3028 35.0193 26.8384 36.5544 26.8406 38.4494ZM23.4083 33.3544H17.4179V26.4898H23.4083C24.6397 26.4817 25.7813 27.1345 26.3989 28.1997C27.017 29.265 27.017 30.5792 26.3989 31.6444C25.7813 32.7097 24.6397 33.3619 23.4083 33.3544Z" fill="#0098DB"/>
</g>
<defs>
<clipPath id="clip0">
<rect width="60" height="60" fill="white"/>
</clipPath>
</defs>
</svg>
