<svg width="65" height="65" viewBox="0 0 65 65" fill="none" xmlns="http://www.w3.org/2000/svg">
<g clip-path="url(#clip0)">
<path d="M32.8097 3.8501C27.0472 3.85062 22.3755 8.52186 22.3755 14.2843C22.3755 20.0468 27.0472 24.7185 32.8097 24.7185C38.5722 24.7185 43.2434 20.0468 43.2434 14.2843C43.2371 8.52449 38.5695 3.85694 32.8097 3.8501ZM32.8097 23.1014C27.94 23.1009 23.9926 19.1535 23.9926 14.2843C23.9926 9.41462 27.9405 5.46718 32.8097 5.46718C37.6789 5.46771 41.6263 9.41515 41.6263 14.2843C41.621 19.1514 37.6768 23.0962 32.8097 23.1014Z" fill="#FF9500"/>
<path d="M42.9579 4.24222C42.9416 4.22327 42.9279 4.20221 42.91 4.18379C42.8916 4.16537 42.8706 4.15221 42.8511 4.13589C37.2924 -1.37863 28.3263 -1.37863 22.7675 4.13589C22.748 4.15221 22.727 4.16537 22.7086 4.18379C22.6907 4.20221 22.677 4.22327 22.6612 4.24222C17.1461 9.80148 17.1461 18.7676 22.6612 24.3268C22.677 24.3463 22.6901 24.3674 22.708 24.3847C22.7259 24.4021 22.747 24.4158 22.7659 24.4321C28.3252 29.9472 37.2924 29.9472 42.8516 24.4321C42.8706 24.4158 42.8916 24.4026 42.909 24.3847C42.9264 24.3668 42.9406 24.3463 42.9564 24.3268C48.4714 18.7681 48.4714 9.80148 42.9564 4.24222H42.9579ZM44.8846 15.0928H45.4499C45.2725 17.889 44.1697 20.5468 42.3152 22.6466L41.9199 22.2513C41.6041 21.9354 41.0919 21.9354 40.776 22.2513C40.4602 22.5671 40.4602 23.0787 40.776 23.3946L41.1714 23.7904C39.0716 25.6449 36.4138 26.7482 33.6176 26.9251V26.3598C33.6176 25.9134 33.2554 25.5512 32.809 25.5512C32.3627 25.5512 32.0005 25.9134 32.0005 26.3598V26.9251C29.2043 26.7477 26.5465 25.6449 24.4467 23.7904L24.8426 23.3946C25.1584 23.0787 25.1579 22.5671 24.8426 22.2513C24.5267 21.9354 24.0145 21.9354 23.6987 22.2513L23.3034 22.6466C21.4484 20.5468 20.3456 17.889 20.1687 15.0928H20.7335C21.1804 15.0928 21.5421 14.7306 21.5421 14.2843C21.5421 13.8379 21.1804 13.4757 20.7335 13.4757H20.1687C20.3461 10.6795 21.4489 8.02226 23.3034 5.92247L23.6987 6.3178C24.0145 6.63363 24.5267 6.63363 24.8426 6.3178C25.1584 6.00196 25.1584 5.48978 24.8426 5.17394L24.4467 4.77862C26.547 2.9236 29.2048 1.8208 32.001 1.64341V2.20875C32.001 2.65514 32.3627 3.0173 32.8096 3.0173C33.2559 3.0173 33.6181 2.65514 33.6181 2.20875V1.64341C36.4143 1.8208 39.0721 2.9236 41.1719 4.77862L40.7766 5.17394C40.5692 5.37765 40.4876 5.67665 40.5618 5.95721C40.6365 6.23831 40.8555 6.45729 41.1366 6.53151C41.4172 6.60626 41.7162 6.52414 41.9199 6.31727L42.3152 5.92195C44.1702 8.02174 45.273 10.6795 45.4499 13.4757H44.8851C44.4387 13.4757 44.0765 13.8379 44.0765 14.2843C44.0765 14.7306 44.4387 15.0928 44.8851 15.0928H44.8846Z" fill="#FF9500"/>
<path d="M36.9868 11.7329C36.9847 10.2542 36.0282 8.94507 34.6196 8.49395V7.35115C34.6196 6.90424 34.258 6.5426 33.811 6.5426C33.3647 6.5426 33.0025 6.90424 33.0025 7.35115V8.33287H32.1666V7.35115C32.1666 6.90424 31.8044 6.5426 31.358 6.5426C30.9111 6.5426 30.5495 6.90424 30.5495 7.35115V8.33287H29.4404C28.9935 8.33287 28.6318 8.69503 28.6318 9.14141V19.5072C28.6318 19.9541 28.9935 20.3157 29.4404 20.3157H30.5495V21.2174C30.5495 21.6638 30.9111 22.026 31.358 22.026C31.8044 22.026 32.1666 21.6638 32.1666 21.2174V20.3157H33.0025V21.2174C33.0025 21.6638 33.3647 22.026 33.811 22.026C34.258 22.026 34.6196 21.6638 34.6196 21.2174V20.1552C35.7977 19.7799 36.6789 18.795 36.921 17.5827C37.1626 16.3709 36.7273 15.1228 35.784 14.3243C36.5467 13.6795 36.9868 12.732 36.9868 11.7329ZM35.3697 16.9163C35.3687 17.9001 34.5706 18.6981 33.5868 18.6992H30.2489V15.1328H33.5868C34.5706 15.1339 35.3687 15.9319 35.3697 16.9163ZM30.2489 13.5158V9.94996H33.5868C34.2274 9.94469 34.8217 10.2832 35.1434 10.8369C35.4655 11.3912 35.4655 12.075 35.1434 12.6288C34.8217 13.1831 34.2274 13.5215 33.5868 13.5158H30.2489Z" fill="#FF9500"/>
<path d="M12.1669 42.4437V39.8523C12.1695 37.6977 13.7387 35.8648 15.8674 35.5306C14.6051 35.3342 13.3197 35.699 12.349 36.5302C11.3789 37.3614 10.8198 38.5747 10.8198 39.8523V42.4437C10.8198 43.7213 11.3789 44.9351 12.349 45.7658C13.3197 46.597 14.6051 46.9623 15.8674 46.7654C13.7387 46.4312 12.1695 44.5982 12.1669 42.4437Z" fill="#0098DB" fill-opacity="0.25"/>
<path d="M28.7704 39.7675V36.8071C28.7741 34.2456 30.6702 32.0806 33.209 31.74C31.7482 31.5431 30.2738 31.9874 29.1647 32.9586C28.0556 33.9298 27.4208 35.3332 27.4229 36.8071V39.7675C27.4208 41.2414 28.0556 42.6448 29.1647 43.6155C30.2738 44.5867 31.7482 45.0309 33.209 44.8346C30.6702 44.494 28.7741 42.3289 28.7704 39.7675Z" fill="#0098DB" fill-opacity="0.25"/>
<path d="M24.6745 51.3346L24.6777 51.3293C24.8803 51.0256 25.1104 50.7413 25.3651 50.4802C26.0558 49.7706 26.9159 49.249 27.8639 48.9637C27.7966 48.891 27.7292 48.8168 27.6639 48.7405C26.28 48.8658 24.9867 49.4832 24.0181 50.4797C23.7633 50.7408 23.5333 51.025 23.3312 51.3288L23.3275 51.3335C22.689 52.2921 22.35 53.4186 22.3521 54.5698V63.3827H23.6996V54.5698C23.697 53.4186 24.0365 52.2926 24.6745 51.3346Z" fill="#0098DB" fill-opacity="0.25"/>
<path d="M49.853 35.4785C49.6277 35.4785 49.4024 35.4959 49.1792 35.5306C51.3079 35.8649 52.8771 37.6978 52.8797 39.8523V42.4438C52.8771 44.5983 51.3079 46.4312 49.1792 46.7655C50.442 46.9624 51.7269 46.597 52.6976 45.7659C53.6683 44.9352 54.2268 43.7213 54.2273 42.4438V39.8523C54.2242 37.4383 52.2676 35.4817 49.853 35.4785Z" fill="#0098DB" fill-opacity="0.25"/>
<path d="M54.3388 50.4249C54.2545 50.5207 54.1666 50.6134 54.0771 50.7029C56.0269 51.4451 57.3166 53.3138 57.3192 55.3999V60.4228H58.6668V55.3999C58.6642 52.8953 56.8191 50.7739 54.3388 50.4249Z" fill="#0098DB" fill-opacity="0.25"/>
<path d="M11.1179 50.6538C11.0389 50.5733 10.9621 50.4896 10.8879 50.4038C8.33484 50.6833 6.39665 52.8321 6.38086 55.3998V60.4227H7.72843V55.3998C7.74159 53.2606 9.09864 51.3608 11.1179 50.6538Z" fill="#0098DB" fill-opacity="0.25"/>
<path d="M25.8057 36.8071V39.7675C25.8057 43.4839 28.8187 46.497 32.5351 46.497C36.2514 46.497 39.2645 43.4839 39.2645 39.7675V36.8071C39.2645 33.0907 36.2514 30.0776 32.5351 30.0776C28.8187 30.0776 25.8057 33.0907 25.8057 36.8071ZM32.5351 31.6947C35.3571 31.6979 37.6443 33.9851 37.6474 36.8071V39.7675C37.6474 42.5911 35.3587 44.8799 32.5351 44.8799C29.7115 44.8799 27.4227 42.5911 27.4227 39.7675V36.8071C27.4259 33.9851 29.7131 31.6979 32.5351 31.6947Z" fill="#0098DB"/>
<path d="M43.8629 39.8523V42.4438C43.8523 44.5909 44.992 46.5791 46.8502 47.6556C48.7078 48.7326 50.9997 48.7326 52.8579 47.6556C54.7155 46.5791 55.8552 44.5909 55.8452 42.4438V39.8523C55.8552 37.7052 54.7155 35.717 52.8579 34.6405C50.9997 33.564 48.7078 33.564 46.8502 34.6405C44.992 35.717 43.8523 37.7052 43.8629 39.8523ZM49.8532 35.4785C52.2678 35.4817 54.2244 37.4383 54.2276 39.8523V42.4438C54.236 44.0119 53.4043 45.4653 52.0473 46.2517C50.6907 47.0387 49.0163 47.0387 47.6592 46.2517C46.3027 45.4653 45.4705 44.0119 45.4794 42.4438V39.8523C45.4821 37.4378 47.4387 35.4811 49.8532 35.4785Z" fill="#0098DB"/>
<path d="M53.2126 49.2522C52.3898 50.2581 51.1491 50.8277 49.8499 50.7961C48.5508 50.764 47.339 50.1344 46.5663 49.09C46.4084 48.8795 46.1594 48.7573 45.8962 48.7621C44.7186 48.7879 43.5701 49.13 42.5699 49.7522C41.256 48.1909 39.3589 47.2366 37.3223 47.1124C36.8964 47.0871 36.6859 47.3456 36.4621 47.6188C35.4994 48.7952 34.0476 49.4617 32.5279 49.4243C31.0087 49.3869 29.5911 48.6505 28.6873 47.4287C28.5309 47.2161 28.2804 47.0934 28.0167 47.1008C26.07 47.146 24.2187 47.9535 22.8611 49.3495C22.7316 49.4827 22.609 49.6206 22.49 49.7617C21.553 49.1774 20.4845 48.8374 19.3822 48.7721C18.9632 48.7516 18.7542 49.0058 18.5521 49.2522C17.7293 50.2581 16.4886 50.8277 15.1895 50.7961C13.8903 50.764 12.6791 50.1344 11.9063 49.09C11.7479 48.8795 11.4989 48.7579 11.2357 48.7621C7.63516 48.8537 4.7642 51.7983 4.76367 55.3999V61.2313C4.76367 61.6777 5.12531 62.0399 5.57221 62.0399H20.735V64.1912C20.735 64.6381 21.0967 64.9998 21.5436 64.9998H43.5269C43.9738 64.9998 44.3354 64.6381 44.3354 64.1912V62.0399H59.4751C59.9215 62.0399 60.2836 61.6777 60.2836 61.2313V55.3999C60.2789 51.8899 57.5469 48.9874 54.0432 48.7721C53.6221 48.7516 53.4147 49.0058 53.2126 49.2522ZM6.38076 60.4228V55.3999C6.39655 52.8322 8.33474 50.6834 10.8878 50.4039C11.9916 51.6767 13.5929 52.41 15.2779 52.4142C16.9634 52.4179 18.5679 51.6925 19.6786 50.425C20.3534 50.5187 21.0019 50.7503 21.5841 51.1045C21.024 52.1736 20.7329 53.3628 20.735 54.5693V60.4228H6.38076ZM42.7183 63.3827H22.3521V54.5698C22.35 53.4186 22.689 52.2931 23.327 51.3346L23.3302 51.3298C23.5328 51.0261 23.7629 50.7419 24.0176 50.4808C24.9862 49.4843 26.2796 48.8674 27.6634 48.7416C28.9036 50.1981 30.7192 51.0393 32.6326 51.0435C34.5455 51.0482 36.3653 50.2149 37.6118 48.7642C40.5301 49.1432 42.7147 51.6272 42.7178 54.5703L42.7183 63.3827ZM54.3385 50.425C56.8189 50.774 58.6639 52.8953 58.6665 55.3999V60.4228H44.3354V54.5698C44.3365 53.3591 44.0412 52.1663 43.4758 51.0956C44.1064 50.7134 44.8139 50.4771 45.5472 50.4034C46.6168 51.6462 48.1634 52.3763 49.802 52.4126C49.8526 52.4137 49.9031 52.4147 49.9542 52.4147C51.635 52.4184 53.2347 51.6925 54.3385 50.425Z" fill="#0098DB"/>
<path d="M21.1846 42.4438V39.8523C21.1946 37.7052 20.0549 35.717 18.1973 34.6405C16.3391 33.564 14.0472 33.564 12.1895 34.6405C10.3319 35.717 9.19169 37.7052 9.20222 39.8523V42.4438C9.19169 44.5909 10.3319 46.5791 12.1895 47.6556C14.0472 48.7326 16.3391 48.7326 18.1973 47.6556C20.0549 46.5791 21.1946 44.5909 21.1846 42.4438ZM10.8193 42.4438V39.8523C10.8104 38.2842 11.6421 36.8308 12.9991 36.0444C14.3562 35.2574 16.0306 35.2574 17.3871 36.0444C18.7442 36.8308 19.5759 38.2842 19.5675 39.8523V42.4438C19.5759 44.0119 18.7442 45.4653 17.3871 46.2517C16.0306 47.0387 14.3562 47.0387 12.9991 46.2517C11.6421 45.4653 10.8104 44.0119 10.8193 42.4438Z" fill="#0098DB"/>
</g>
<defs>
<clipPath id="clip0">
<rect width="65" height="65" fill="white"/>
</clipPath>
</defs>
</svg>
