<svg width="60" height="60" viewBox="0 0 60 60" fill="none" xmlns="http://www.w3.org/2000/svg">
<g clip-path="url(#clip0)">
<path d="M13.8137 27.8229C13.8137 18.3507 20.9939 10.5254 30.1969 9.50055C29.5144 9.42419 28.8282 9.38574 28.1415 9.38574C17.9757 9.38574 9.70435 17.6566 9.70435 27.8223C9.70435 37.9886 17.9752 46.2595 28.1415 46.2595C28.8261 46.2589 29.5107 46.22 30.1917 46.1436C20.9913 45.1167 13.8137 37.2929 13.8137 27.8229Z" fill="#0098DB" fill-opacity="0.25"/>
<path d="M28.3174 7.70422C17.2517 7.70422 8.24878 16.7071 8.24878 27.7729C8.24878 38.8392 17.2517 47.8421 28.3174 47.8421C30.1607 47.8431 31.9955 47.5909 33.7697 47.0921C34.2 46.971 34.4502 46.5244 34.329 46.0942C34.2079 45.6639 33.7613 45.4137 33.331 45.5349C31.6995 45.9936 30.0122 46.2253 28.3174 46.2242C18.1433 46.2242 9.86662 37.947 9.86662 27.7729C9.86662 17.5987 18.1433 9.32206 28.3174 9.32206C38.4916 9.32206 46.7683 17.5993 46.7683 27.7729C46.7709 29.8268 46.4296 31.8659 45.7592 33.8071C45.6133 34.2295 45.8372 34.6903 46.2595 34.8362C46.6819 34.9821 47.1422 34.7582 47.2886 34.3359C48.018 32.2251 48.3887 30.0064 48.3861 27.7729C48.3861 16.7066 39.3832 7.70422 28.3174 7.70422Z" fill="#0098DB"/>
<path d="M47.9558 8.13448C47.9205 8.10024 47.8826 8.06917 47.8421 8.04179C37.0338 -2.6806 19.601 -2.6806 8.79279 8.04179C8.71064 8.09603 8.64007 8.16607 8.58582 8.24823C-2.13603 19.057 -2.13603 36.4893 8.58582 47.2975C8.61374 47.3381 8.64481 47.3765 8.67904 47.4113C8.71432 47.4455 8.75224 47.4766 8.79279 47.5045C15.9135 54.5557 26.2799 57.2257 35.9211 54.4914C36.3482 54.3671 36.5941 53.9216 36.473 53.494C36.3513 53.0663 35.9079 52.8172 35.4792 52.9352C33.41 53.5219 31.2761 53.851 29.1263 53.9147V51.9351C29.1263 51.4885 28.764 51.1262 28.3174 51.1262C27.8708 51.1262 27.5085 51.4885 27.5085 51.9351V53.9142C21.1341 53.7209 15.0519 51.1973 10.4133 46.8209L11.8041 45.4306C12.1196 45.1146 12.1196 44.6022 11.8036 44.2862C11.4881 43.9707 10.9757 43.9707 10.6597 44.2862L9.2694 45.677C4.89303 41.0384 2.36884 34.9562 2.17609 28.5818H4.15521C4.6018 28.5818 4.96412 28.2195 4.96412 27.7729C4.96412 27.3263 4.6018 26.964 4.15521 26.964H2.17609C2.36884 20.5895 4.8925 14.5073 9.2694 9.8687L10.6597 11.2601C10.9757 11.5761 11.4881 11.5761 11.8041 11.2601C12.1201 10.9441 12.1201 10.4322 11.8041 10.1162L10.4133 8.72537C15.0519 4.34899 21.1341 1.82481 27.5085 1.63153V3.61064C27.5085 4.05723 27.8708 4.41956 28.3174 4.41956C28.764 4.41956 29.1263 4.05723 29.1263 3.61064V1.63153C35.5008 1.82481 41.583 4.34899 46.2216 8.72537L44.8307 10.1157C44.5153 10.4317 44.5148 10.9441 44.8307 11.2601C45.1467 11.5761 45.6591 11.5761 45.9751 11.2601L47.3655 9.86975C51.7418 14.5079 54.266 20.5906 54.4588 26.965H52.4797C52.0331 26.965 51.6707 27.3268 51.6707 27.7739C51.6707 28.2205 52.0331 28.5828 52.4797 28.5828H54.4588C54.3792 31.3151 53.8695 34.0178 52.9489 36.592C52.7983 37.0128 53.0174 37.4757 53.4381 37.6263C53.8589 37.7769 54.3218 37.5578 54.4725 37.1371C58.0668 27.0735 55.5689 15.8403 48.049 8.24823C48.0211 8.20768 47.9901 8.16976 47.9558 8.13448Z" fill="#0098DB"/>
<path d="M34.9042 23.3975C34.901 20.9571 33.2205 18.84 30.8448 18.2823V15.8819C30.8448 15.4353 30.483 15.0729 30.0359 15.0729C29.5893 15.0729 29.227 15.4353 29.227 15.8819V18.1438H26.6375V15.8819C26.6375 15.4353 26.2752 15.0729 25.8286 15.0729C25.3815 15.0729 25.0197 15.4353 25.0197 15.8819V18.1438H22.5387C22.0921 18.1438 21.7297 18.5061 21.7297 18.9527V36.731C21.7297 37.1781 22.0921 37.5399 22.5387 37.5399H25.0197V39.6644C25.0197 40.111 25.3815 40.4733 25.8286 40.4733C26.2752 40.4733 26.6375 40.111 26.6375 39.6644V37.5399H29.227V39.6644C29.227 40.111 29.5893 40.4733 30.0359 40.4733C30.483 40.4733 30.8448 40.111 30.8448 39.6644V37.4014C32.9093 36.9206 34.4818 35.2459 34.832 33.1556C35.1822 31.0654 34.2417 28.9694 32.4469 27.8418C33.9752 26.8813 34.9031 25.2029 34.9042 23.3975ZM33.2863 32.2867C33.2842 34.2937 31.658 35.92 29.6509 35.9221H23.3486V28.6508H29.6509C31.658 28.6534 33.2842 30.2797 33.2863 32.2867ZM29.6509 27.0329H23.3486V19.7616H29.6509C31.659 19.7616 33.2863 21.3895 33.2863 23.3975C33.2863 25.4056 31.659 27.0329 29.6509 27.0329Z" fill="#0098DB"/>
<path d="M50.6417 34.2358C46.753 32.8007 42.4171 33.261 38.9166 35.4813C35.4155 37.7011 33.1504 41.427 32.7907 45.5564C32.758 45.9367 32.7417 46.3243 32.7417 46.7077C32.7364 50.8613 34.6776 54.7768 37.986 57.2878C40.2953 59.0553 43.1249 60.009 46.033 60C52.4717 59.999 57.9846 55.3846 59.1185 49.0459C60.2518 42.7078 56.6806 36.4687 50.6417 34.2358ZM46.0336 58.3822C42.9364 58.3859 39.9651 57.1567 37.7748 54.9669C35.5845 52.7766 34.3559 49.8053 34.3595 46.7077C34.3595 46.3706 34.3738 46.0293 34.4027 45.6949C34.9499 39.4021 40.4033 34.6855 46.7092 35.051C53.0152 35.4165 57.8872 40.7308 57.7044 47.0447C57.5217 53.3586 52.3506 58.3822 46.0336 58.3822Z" fill="#FF9500"/>
<path d="M50.8544 42.6984L44.5515 49.0012L41.2126 45.6623C40.8972 45.3468 40.3848 45.3468 40.0688 45.6628C39.7528 45.9783 39.7528 46.4907 40.0688 46.8067L43.9796 50.717C44.2956 51.0329 44.8075 51.0329 45.1235 50.717L51.9982 43.8422C52.2057 43.6384 52.2873 43.3393 52.2131 43.0586C52.1388 42.7774 51.9192 42.5583 51.6385 42.4835C51.3573 42.4092 51.0582 42.4909 50.8544 42.6984Z" fill="#FF9500"/>
</g>
<defs>
<clipPath id="clip0">
<rect width="60" height="60" fill="white"/>
</clipPath>
</defs>
</svg>
