<svg width="60" height="60" viewBox="0 0 60 60" fill="none" xmlns="http://www.w3.org/2000/svg">
<g clip-path="url(#clip0)">
<path d="M16.2809 42.1815C17.7677 40.6531 19.6505 39.5695 21.7183 39.0518C21.627 38.9444 21.5366 38.8361 21.4486 38.7249C15.3464 39.075 10.5776 44.1249 10.5762 50.2366V58.5458H12.9989V50.237C12.9923 47.2252 14.1715 44.3312 16.2809 42.1815Z" fill="#BFE5F6"/>
<path d="M32.4114 42.9845C35.7635 43.0786 38.9816 41.6695 41.1862 39.1431C40.5015 38.9486 39.8002 38.8185 39.0914 38.7542C39.0673 38.7835 39.0398 38.8166 39.0091 38.854C37.1371 41.1509 34.4324 42.6135 31.4858 42.9234C31.7915 42.9561 32.1 42.9764 32.4114 42.9845Z" fill="#D4E1F4"/>
<path d="M37.8853 37.9323C35.9656 40.2779 33.0706 41.6062 30.0403 41.5319C27.01 41.4576 24.1842 39.9888 22.3813 37.5519C22.2408 37.3612 22.0155 37.2509 21.7785 37.2571C14.7384 37.4364 9.12399 43.1946 9.12305 50.2371V59.2731C9.12305 59.6748 9.44813 59.9999 9.84986 59.9999H50.2961C50.6974 59.9999 51.0229 59.6748 51.0229 59.2731V50.2371C51.0163 43.3787 45.6816 37.7057 38.8364 37.2774C38.4451 37.2528 38.2677 37.4658 37.8853 37.9323ZM39.0915 38.7542C45.0248 39.3036 49.5646 44.2787 49.5698 50.2371V58.5463H10.5767V50.2371C10.5781 44.1254 15.3469 39.0755 21.4491 38.7254C23.5709 41.3961 26.7876 42.9628 30.1984 42.9879C33.6091 43.0129 36.8486 41.4935 39.0092 38.8541C39.0399 38.8167 39.0674 38.7836 39.0915 38.7542Z" fill="#0098DB"/>
<path d="M30.5274 0.726818C30.5274 0.325554 30.2018 0 29.8006 0C29.3988 0 29.0737 0.325554 29.0737 0.726818V5.35886C29.0737 5.76012 29.3988 6.08568 29.8006 6.08568C30.2018 6.08568 30.5274 5.76012 30.5274 5.35886V0.726818Z" fill="#FF9500"/>
<path d="M29.8006 7.88623C29.3988 7.88623 29.0737 8.21178 29.0737 8.61305V8.64475C29.0737 9.04649 29.3988 9.37157 29.8006 9.37157C30.2018 9.37157 30.5274 9.04649 30.5274 8.64475V8.61305C30.5274 8.21178 30.2018 7.88623 29.8006 7.88623Z" fill="#FF9500"/>
<path d="M34.8179 2.49745C34.8179 2.09618 34.4928 1.77063 34.0911 1.77063C33.6898 1.77063 33.3643 2.09618 33.3643 2.49745V3.36859C33.3643 3.76985 33.6898 4.09541 34.0911 4.09541C34.4928 4.09541 34.8179 3.76985 34.8179 3.36859V2.49745Z" fill="#FF9500"/>
<path d="M34.0911 5.90686C33.6898 5.90686 33.3643 6.23241 33.3643 6.63368V9.53054C33.3643 9.9318 33.6898 10.2574 34.0911 10.2574C34.4928 10.2574 34.8179 9.9318 34.8179 9.53054V6.63368C34.8179 6.23241 34.4928 5.90686 34.0911 5.90686Z" fill="#FF9500"/>
<path d="M26.2368 2.49745C26.2368 2.09618 25.9113 1.77063 25.51 1.77063C25.1088 1.77063 24.7832 2.09618 24.7832 2.49745V2.77757C24.7832 3.17884 25.1088 3.50439 25.51 3.50439C25.9113 3.50439 26.2368 3.17884 26.2368 2.77757V2.49745Z" fill="#FF9500"/>
<path d="M25.51 5.28699C25.1088 5.28699 24.7832 5.61254 24.7832 6.0138V9.53054C24.7832 9.93181 25.1088 10.2574 25.51 10.2574C25.9113 10.2574 26.2368 9.93181 26.2368 9.53054V6.0138C26.2368 5.61254 25.9113 5.28699 25.51 5.28699Z" fill="#FF9500"/>
<path d="M21.9463 4.2682C21.9463 3.86694 21.6208 3.54138 21.2195 3.54138C20.8178 3.54138 20.4927 3.86694 20.4927 4.2682V5.88177C20.4927 6.28304 20.8178 6.60859 21.2195 6.60859C21.6208 6.60859 21.9463 6.28304 21.9463 5.88177V4.2682Z" fill="#FF9500"/>
<path d="M21.2195 8.46436C20.8178 8.46436 20.4927 8.78944 20.4927 9.19117V11.8141C20.4927 12.2153 20.8178 12.5409 21.2195 12.5409C21.6208 12.5409 21.9463 12.2153 21.9463 11.8141V9.19117C21.9463 8.78944 21.6208 8.46436 21.2195 8.46436Z" fill="#FF9500"/>
<path d="M39.1089 4.2682C39.1089 3.86694 38.7834 3.54138 38.3821 3.54138C37.9808 3.54138 37.6553 3.86694 37.6553 4.2682V6.3048C37.6553 6.70607 37.9808 7.03162 38.3821 7.03162C38.7834 7.03162 39.1089 6.70607 39.1089 6.3048V4.2682Z" fill="#FF9500"/>
<path d="M38.3821 8.87183C37.9808 8.87183 37.6553 9.19691 37.6553 9.59864V12.1865C37.6553 12.5878 37.9808 12.9133 38.3821 12.9133C38.7834 12.9133 39.1089 12.5878 39.1089 12.1865V9.59864C39.1089 9.19691 38.7834 8.87183 38.3821 8.87183Z" fill="#FF9500"/>
<path d="M30.0729 15.7751C24.8929 15.7751 20.6934 19.9742 20.6934 25.1547C20.6934 30.3347 24.8929 34.5342 30.0729 34.5342C35.2529 34.5342 39.4524 30.3347 39.4524 25.1547C39.4463 19.9771 35.2505 15.7808 30.0729 15.7751ZM30.0729 33.0806C25.6954 33.0806 22.147 29.5317 22.147 25.1547C22.147 20.7772 25.6954 17.2288 30.0729 17.2288C34.4504 17.2288 37.9988 20.7772 37.9988 25.1547C37.9941 29.5298 34.448 33.0754 30.0729 33.0806Z" fill="#FF9500"/>
<path d="M39.195 34.1817C44.1526 29.1843 44.1526 21.1245 39.195 16.1276C39.1808 16.1101 39.1685 16.0912 39.1524 16.0751C39.1359 16.059 39.1174 16.0467 39.0999 16.0321C34.1026 11.0749 26.0427 11.0749 21.0459 16.0321C21.0283 16.0467 21.0094 16.0586 20.9933 16.0751C20.9772 16.0912 20.9649 16.1101 20.9503 16.1276C15.9931 21.1245 15.9931 29.1843 20.9503 34.1817C20.9649 34.1992 20.9768 34.2181 20.9933 34.2342C21.0094 34.2503 21.0283 34.2626 21.0454 34.2768C26.0427 39.2344 34.1026 39.2344 39.0999 34.2768C39.1174 34.2626 39.1363 34.2503 39.1524 34.2342C39.1685 34.2176 39.1808 34.1992 39.195 34.1817ZM38.2624 32.3159C37.9775 32.0386 37.5228 32.0419 37.2417 32.323C36.9606 32.6041 36.9573 33.0588 37.2346 33.3441L37.5904 33.6995C35.7024 35.3666 33.3133 36.3579 30.7997 36.5169V36.0096C30.7997 35.6083 30.4741 35.2828 30.0729 35.2828C29.6716 35.2828 29.3461 35.6083 29.3461 36.0096V36.5169C26.8325 36.3579 24.4433 35.3666 22.5553 33.699L22.9112 33.3437C23.1884 33.0588 23.1851 32.6041 22.9041 32.323C22.623 32.0419 22.1683 32.0386 21.8834 32.3159L21.5276 32.6713C19.8605 30.7837 18.8692 28.3946 18.7102 25.8815H19.2179C19.6197 25.8815 19.9447 25.5559 19.9447 25.1547C19.9447 24.7529 19.6197 24.4278 19.2179 24.4278H18.7102C18.8692 21.9143 19.861 19.5251 21.528 17.6371L21.8834 17.9929C22.0665 18.1808 22.3362 18.2556 22.5894 18.1888C22.843 18.1221 23.0408 17.9243 23.1075 17.6707C23.1743 17.4176 23.099 17.1478 22.9112 16.9652L22.5558 16.6093C24.4433 14.9423 26.8325 13.951 29.3461 13.792V14.2997C29.3461 14.7014 29.6716 15.0265 30.0729 15.0265C30.4741 15.0265 30.7997 14.7014 30.7997 14.2997V13.792C33.3133 13.951 35.7024 14.9423 37.59 16.6098L37.2346 16.9652C37.0467 17.1478 36.972 17.4176 37.0387 17.6712C37.1054 17.9243 37.3032 18.1226 37.5564 18.1893C37.81 18.2556 38.0797 18.1808 38.2624 17.9929L38.6177 17.6376C40.2848 19.5251 41.2761 21.9143 41.4356 24.4278H40.9278C40.5266 24.4278 40.201 24.7529 40.201 25.1547C40.201 25.5559 40.5266 25.8815 40.9278 25.8815H41.4356C41.2761 28.3951 40.2848 30.7842 38.6177 32.6717L38.2624 32.3159Z" fill="#FF9500"/>
<path d="M33.8278 22.8612C33.8259 21.5315 32.9661 20.3552 31.6999 19.9497V18.9219C31.6999 18.5206 31.3748 18.1951 30.9731 18.1951C30.5718 18.1951 30.2463 18.5206 30.2463 18.9219V19.8049H29.4948V18.9219C29.4948 18.5206 29.1693 18.1951 28.768 18.1951C28.3663 18.1951 28.0412 18.5206 28.0412 18.9219V19.8049H27.0442C26.6429 19.8049 26.3174 20.1304 26.3174 20.5317V29.8497C26.3174 30.2515 26.6429 30.5765 27.0442 30.5765H28.0412V31.3871C28.0412 31.7884 28.3663 32.1139 28.768 32.1139C29.1693 32.1139 29.4948 31.7884 29.4948 31.3871V30.5765H30.2463V31.3871C30.2463 31.7884 30.5718 32.1139 30.9731 32.1139C31.3748 32.1139 31.6999 31.7884 31.6999 31.3871V30.4322C32.7589 30.0948 33.551 29.2095 33.7687 28.1197C33.9863 27.0305 33.595 25.9085 32.7466 25.1907C33.4322 24.611 33.8278 23.7588 33.8278 22.8612ZM32.3742 27.5202C32.3732 28.4051 31.6564 29.122 30.7715 29.1229H27.771V25.9175H30.7715C31.6559 25.9189 32.3728 26.6358 32.3742 27.5202ZM27.771 24.4639V21.2585H30.7715C31.6568 21.2585 32.3742 21.9758 32.3742 22.8612C32.3742 23.7465 31.6568 24.4639 30.7715 24.4639H27.771Z" fill="#FF9500"/>
</g>
<defs>
<clipPath id="clip0">
<rect width="60" height="60" fill="white"/>
</clipPath>
</defs>
</svg>
