<svg width="60" height="60" viewBox="0 0 60 60" fill="none" xmlns="http://www.w3.org/2000/svg">
<path d="M18.8384 27.0701L27.0961 20.4934L27.0864 18.5146L16.3432 27.0701C15.7034 27.7337 15.3472 28.6201 15.3496 29.5415V49.6013H17.8444V29.5415C17.8425 28.6201 18.1987 27.7337 18.8384 27.0701Z" fill="#0098DB" fill-opacity="0.3"/>
<path d="M14.28 58.0665V51.5971C14.28 51.3213 14.5036 51.0981 14.7789 51.0981H12.2841C12.0088 51.0981 11.7852 51.3213 11.7852 51.5971V58.0665C11.7852 58.3423 12.0088 58.5655 12.2841 58.5655H14.7789C14.5036 58.5655 14.28 58.3423 14.28 58.0665Z" fill="#0098DB" fill-opacity="0.3"/>
<path d="M36.583 42.8331V39.6674H44.6458C47.4004 39.6644 49.6325 37.4323 49.6354 34.6778V4.9896C49.6325 2.23509 47.4004 0.0029236 44.6458 0H31.9223C29.1678 0.0029236 26.9362 2.23509 26.9327 4.9896V16.7127L15.4381 25.8665C15.4143 25.8855 15.3918 25.9055 15.3704 25.9274C14.4368 26.8737 13.9145 28.1503 13.9179 29.4791V49.5389H12.3494C11.2476 49.5399 10.3545 50.433 10.3535 51.5347V58.0042C10.355 59.1059 11.2476 59.9985 12.3494 60H33.0757C34.1774 59.9985 35.0701 59.1059 35.0715 58.0042V51.5347C35.0701 50.433 34.1774 49.5399 33.0757 49.5389H32.2634V47.8461C34.7441 47.4724 36.5801 45.3421 36.583 42.8331ZM44.6458 38.1705H31.9223C29.9942 38.168 28.4321 36.6059 28.4296 34.6778V34.1544L31.399 31.185H48.139V34.6778C48.1371 36.6059 46.5744 38.1685 44.6458 38.1705ZM32.3638 24.5797L31.5998 23.8161C31.3313 23.5476 30.904 23.5228 30.6062 23.7586L28.4296 25.4821V6.48015H48.1386V29.6881H32.8092C33.9177 28.1021 33.7301 25.9498 32.3638 24.5797ZM31.9223 1.49688H44.6458C46.5715 1.49883 48.1332 3.05759 48.1386 4.98327H28.4296C28.435 3.05759 29.9967 1.49883 31.9223 1.49688ZM33.5747 51.5347V58.0042C33.5747 58.2799 33.351 58.5031 33.0757 58.5031H12.3494C12.0736 58.5031 11.8504 58.2799 11.8504 58.0042V51.5347C11.8504 51.2589 12.0736 51.0358 12.3494 51.0358H33.0757C33.351 51.0358 33.5747 51.2589 33.5747 51.5347ZM15.4147 49.5389V29.4791C15.4123 28.5577 15.7685 27.6714 16.4078 27.0077L26.9327 18.6262V26.6671L20.2309 31.9739C19.9088 32.2312 19.8552 32.7004 20.111 33.0235C20.3668 33.347 20.8361 33.4021 21.1601 33.1477L31.0131 25.3456L31.3055 25.6385C32.2766 26.612 32.2766 28.1883 31.3055 29.1619L26.7232 33.7442C26.5936 33.8743 26.5156 34.0472 26.5054 34.2304L26.4474 35.2298C26.4465 35.2444 26.4465 35.2586 26.4465 35.2732C26.4508 36.0202 26.6214 36.7564 26.9454 37.4293C27.6973 39.0441 27.5564 40.9338 26.5722 42.419C26.4903 42.5417 26.4465 42.6865 26.4465 42.8341V44.9942C26.4465 45.4074 26.7817 45.7426 27.1949 45.7426C27.6086 45.7426 27.9433 45.4074 27.9433 44.9942V43.0519C28.7585 41.7197 29.0772 40.1429 28.8433 38.5988C29.7204 39.2912 30.8055 39.6678 31.9228 39.6669H35.0862V42.8326C35.0842 44.8041 33.4865 46.4024 31.5145 46.4043C31.1013 46.4043 30.7661 46.7395 30.7661 47.1527V49.5384L15.4147 49.5389Z" fill="#0098DB"/>
<path d="M15.7984 57.3001C16.7832 57.322 17.6832 56.7461 18.0754 55.8427C18.4677 54.9388 18.2742 53.8878 17.5857 53.1837C16.8967 52.4791 15.8505 52.2618 14.9384 52.6335C14.0262 53.0053 13.4298 53.8926 13.4298 54.8774C13.4167 56.1998 14.476 57.2835 15.7984 57.3001ZM15.7984 53.9521C16.1775 53.9292 16.5327 54.1402 16.6935 54.4842C16.8548 54.8287 16.7895 55.2365 16.5288 55.5128C16.2681 55.7896 15.8652 55.8792 15.5119 55.7394C15.1586 55.599 14.9267 55.2575 14.9267 54.8774C14.913 54.3814 15.3024 53.9677 15.7984 53.9521Z" fill="#0098DB"/>
<path d="M40.2461 33.9293H36.3227C35.9095 33.9293 35.5742 34.2646 35.5742 34.6778C35.5742 35.091 35.9095 35.4262 36.3227 35.4262H40.2461C40.6593 35.4262 40.9946 35.091 40.9946 34.6778C40.9946 34.2646 40.6593 33.9293 40.2461 33.9293Z" fill="#0098DB"/>
<path d="M36.8165 8.88922C36.4033 8.88922 36.068 9.22397 36.068 9.63766V10.8773H34.5414C34.1282 10.8773 33.793 11.2125 33.793 11.6257V23.1403C33.793 23.554 34.1282 23.8887 34.5414 23.8887H36.068V25.0397C36.068 25.4533 36.4033 25.7881 36.8165 25.7881C37.2297 25.7881 37.5649 25.4533 37.5649 25.0397V23.8887H38.0444V25.0397C38.0444 25.4533 38.3796 25.7881 38.7928 25.7881C39.2065 25.7881 39.5413 25.4533 39.5413 25.0397V23.8673C41.0152 23.707 42.2427 22.6657 42.6413 21.2375C43.0394 19.8098 42.5282 18.2832 41.35 17.3832C42.5282 16.4833 43.0394 14.9567 42.6413 13.529C42.2427 12.1013 41.0152 11.06 39.5413 10.8997V9.63766C39.5413 9.22397 39.2065 8.88922 38.7928 8.88922C38.3796 8.88922 38.0444 9.22397 38.0444 9.63766V10.8773H37.5649V9.63766C37.5649 9.22397 37.2297 8.88922 36.8165 8.88922ZM41.2774 20.2625C41.2759 21.4383 40.3233 22.3909 39.1475 22.3923H35.2899V18.1322H39.1475C40.3233 18.1336 41.2759 19.0862 41.2774 20.2625ZM41.2774 14.505C41.2759 15.6807 40.3233 16.6333 39.1475 16.6353H35.2899V12.3741H39.1475C40.3233 12.3756 41.2764 13.3287 41.2774 14.505Z" fill="#FF9500"/>
</svg>
