<svg width="60" height="60" viewBox="0 0 60 60" fill="none" xmlns="http://www.w3.org/2000/svg">
<g clip-path="url(#clip0)">
<path d="M18.0462 14.556H24.1633C24.4591 14.556 24.7258 14.3774 24.8392 14.1039C24.9526 13.8305 24.8897 13.5161 24.6806 13.3065L22.2116 10.8375C25.6605 8.06831 30.1027 6.85213 34.4815 7.47809C38.8598 8.10452 42.7832 10.5173 45.3175 14.1425C45.4657 14.3607 45.72 14.4822 45.983 14.4603C46.246 14.4388 46.477 14.2769 46.5875 14.0373C46.698 13.7976 46.6704 13.5171 46.5161 13.3032C43.734 9.32355 39.4186 6.6835 34.6087 6.01801C29.7987 5.35299 24.9293 6.72256 21.1712 9.79707L18.564 7.18988C18.3544 6.98028 18.04 6.91787 17.7665 7.03125C17.4931 7.14415 17.3145 7.41139 17.3145 7.70722V13.8243C17.3145 14.2283 17.6422 14.556 18.0462 14.556ZM18.7779 9.47361L20.579 11.2748L20.5824 11.2786C20.6019 11.3005 20.6229 11.3215 20.6448 11.3405L22.3969 13.0926H18.7779V9.47361Z" fill="#0098DB"/>
<path d="M31.7359 54.1082C35.7626 54.1101 39.666 52.7168 42.7815 50.1648L45.3892 52.7725C45.5983 52.9816 45.9132 53.0445 46.1866 52.9311C46.4601 52.8178 46.6382 52.551 46.6382 52.2552V46.1381C46.6382 45.7341 46.3105 45.4064 45.9065 45.4064H39.7894C39.4936 45.4064 39.2268 45.5845 39.1134 45.858C39.0001 46.1314 39.0629 46.4463 39.2721 46.6554L41.7416 49.1249C38.2922 51.8941 33.85 53.1102 29.4712 52.4838C25.0929 51.8574 21.1695 49.4446 18.6352 45.8194C18.4865 45.6026 18.2326 45.4831 17.9706 45.505C17.7091 45.5274 17.479 45.6879 17.3685 45.9266C17.258 46.1652 17.2842 46.4444 17.4366 46.6588C20.7041 51.3239 26.0399 54.104 31.7359 54.1082ZM45.1748 46.8698V50.4883L43.3736 48.6871C43.3722 48.6862 43.3717 48.6848 43.3703 48.6833C43.3508 48.6614 43.3298 48.6409 43.3079 48.6214L41.5563 46.8698H45.1748Z" fill="#0098DB"/>
<path d="M48.8578 21.2128C44.3466 21.2128 40.6895 24.8699 40.6895 29.3812C40.6895 33.8924 44.3466 37.55 48.8578 37.55C53.369 37.55 57.0262 33.8929 57.0262 29.3812C57.0214 24.8723 53.3671 21.2181 48.8578 21.2128ZM48.8578 36.0861C45.155 36.0866 42.1529 33.0845 42.1529 29.3812C42.1529 25.6779 45.1545 22.6762 48.8578 22.6762C52.5611 22.6762 55.5632 25.6783 55.5627 29.3812C55.5589 33.0826 52.5592 36.0828 48.8578 36.0866V36.0861Z" fill="#FF9500"/>
<path d="M56.7747 21.5482C56.7618 21.5329 56.7518 21.5167 56.7375 21.5025C56.7233 21.4882 56.7066 21.4782 56.6918 21.4653C52.3554 17.1632 45.3608 17.1632 41.0244 21.4653C41.0092 21.4772 40.993 21.4882 40.9787 21.5025C40.9644 21.5167 40.9539 21.5329 40.9411 21.5482C36.6394 25.8846 36.6394 32.8792 40.9411 37.2156C40.9535 37.2308 40.9644 37.247 40.9787 37.2613C40.9925 37.2756 41.0092 37.2856 41.0244 37.2985C45.3608 41.6006 52.3549 41.6006 56.6918 37.2985C56.7066 37.2866 56.7233 37.2756 56.7375 37.2613C56.7514 37.247 56.7618 37.2308 56.7747 37.2156C61.0768 32.8792 61.0768 25.8846 56.7747 21.5482ZM58.1876 30.1134H58.5073C58.3529 32.1698 57.5426 34.1225 56.1954 35.6845L55.9725 35.4616C55.7881 35.2744 55.5176 35.2001 55.2636 35.2672C55.0093 35.3349 54.8111 35.533 54.7435 35.7874C54.6763 36.0413 54.7506 36.3119 54.9378 36.4963L55.1608 36.7192C53.5987 38.0664 51.6461 38.8767 49.5896 39.031V38.7114C49.5896 38.3074 49.2623 37.9797 48.8579 37.9797C48.4539 37.9797 48.1262 38.3074 48.1262 38.7114V39.031C46.0697 38.8767 44.117 38.0664 42.5555 36.7192L42.7784 36.4963C43.06 36.21 43.0581 35.7498 42.7741 35.4659C42.4898 35.1815 42.0301 35.1796 41.7433 35.4616L41.5203 35.6845C40.1736 34.123 39.3633 32.1698 39.2085 30.1134H39.5282C39.9321 30.1134 40.2599 29.7861 40.2599 29.3816C40.2599 28.9777 39.9321 28.6499 39.5282 28.6499H39.2085C39.3629 26.5934 40.1732 24.6403 41.5203 23.0788L41.7433 23.3017C41.9276 23.4889 42.1987 23.5632 42.4526 23.4956C42.7065 23.4284 42.9051 23.2298 42.9723 22.9759C43.0395 22.722 42.9656 22.4509 42.7784 22.2666L42.5555 22.0436C44.117 20.6969 46.0697 19.8866 48.1262 19.7323V20.0514C48.1262 20.4559 48.4539 20.7831 48.8579 20.7831C49.2623 20.7831 49.5896 20.4559 49.5896 20.0514V19.7323C51.6461 19.8866 53.5987 20.6969 55.1608 22.0436L54.9378 22.2666C54.6558 22.5533 54.6577 23.013 54.9421 23.2974C55.226 23.5813 55.6862 23.5832 55.9725 23.3017L56.1954 23.0788C57.5426 24.6403 58.3529 26.593 58.5073 28.6495H58.1876C57.7837 28.6495 57.4559 28.9772 57.4559 29.3812C57.4559 29.7856 57.7837 30.1129 58.1876 30.1129V30.1134Z" fill="#FF9500"/>
<path d="M52.1912 27.4108C52.1897 26.2499 51.4566 25.2167 50.3619 24.8313V24.0248C50.3619 23.6208 50.0342 23.2931 49.6302 23.2931C49.2262 23.2931 48.8985 23.6208 48.8985 24.0248V24.677H48.4664V24.0248C48.4664 23.6208 48.1391 23.2931 47.7347 23.2931C47.3307 23.2931 47.003 23.6208 47.003 24.0248V24.677H46.2532C45.8492 24.677 45.5215 25.0042 45.5215 25.4087V33.4174C45.5215 33.8214 45.8492 34.1491 46.2532 34.1491H47.003V34.7384C47.003 35.1424 47.3307 35.4701 47.7347 35.4701C48.1391 35.4701 48.4664 35.1424 48.4664 34.7384V34.1491H48.8985V34.7384C48.8985 35.1424 49.2262 35.4701 49.6302 35.4701C50.0342 35.4701 50.3619 35.1424 50.3619 34.7384V33.9943C51.2656 33.678 51.9377 32.911 52.133 31.9731C52.3284 31.0356 52.0182 30.0642 51.3156 29.413C51.8739 28.8971 52.1912 28.1711 52.1912 27.4108ZM50.7278 31.4152C50.7273 32.1165 50.1585 32.6848 49.4573 32.6857H46.9854V30.1447H49.4573C50.1585 30.1452 50.7268 30.7135 50.7278 31.4152ZM46.9854 28.6813V26.1404H49.4573C50.159 26.1404 50.7278 26.7092 50.7278 27.4108C50.7278 28.1125 50.159 28.6813 49.4573 28.6813H46.9854Z" fill="#FF9500"/>
<path d="M13.1374 37.8101C16.1104 37.8106 18.5209 35.4001 18.5209 32.4266C18.5213 29.4536 16.1109 27.0432 13.1374 27.0432C10.1643 27.0432 7.75391 29.4531 7.75391 32.4266C7.75724 35.3982 10.1658 37.8068 13.1374 37.8101ZM17.0575 32.4266C17.0551 34.3845 15.6107 36.0413 13.6714 36.3105C13.7986 36.1752 13.8696 35.9961 13.8696 35.8103V35.6221C14.7914 35.2696 15.3301 34.3097 15.1505 33.3394C14.9714 32.369 14.1244 31.6649 13.1379 31.6654C12.8154 31.6654 12.5538 31.4043 12.5538 31.0818C12.5538 30.7598 12.8154 30.4983 13.1379 30.4983C13.4599 30.4983 13.7214 30.7598 13.7214 31.0818C13.7214 31.4863 14.0492 31.8135 14.4531 31.8135C14.8571 31.8135 15.1848 31.4863 15.1848 31.0818C15.1834 30.2348 14.6603 29.4755 13.8696 29.1725V29.0439C13.8696 28.8581 13.7986 28.679 13.6714 28.5437C15.6102 28.8129 17.0551 30.4692 17.0575 32.4271V32.4266ZM12.6039 28.5437C12.4767 28.679 12.4057 28.8577 12.4057 29.0434V29.1721C11.4839 29.5246 10.9451 30.4845 11.1247 31.4548C11.3038 32.4252 12.1503 33.1293 13.1374 33.1288C13.4566 33.1312 13.7143 33.3899 13.7162 33.709C13.7176 34.0277 13.4627 34.2892 13.1436 34.2954H13.1312C12.8115 34.2916 12.5543 34.032 12.5538 33.7124C12.5538 33.3084 12.2261 32.9807 11.8221 32.9807C11.4182 32.9807 11.0904 33.3084 11.0904 33.7124C11.0918 34.5593 11.6144 35.3187 12.4057 35.6217V35.8103C12.4057 35.9961 12.4767 36.1752 12.6039 36.3105C10.6636 36.0442 9.21732 34.3859 9.21732 32.4276C9.21732 30.4687 10.6636 28.8105 12.6039 28.5442V28.5437Z" fill="#0098DB"/>
<path d="M33.8548 32.3533V21.4739C33.8529 19.7928 32.4905 18.4304 30.8094 18.4285H10.6264C9.05726 18.4304 7.74581 19.6227 7.5948 21.1848H6.49104C4.92235 21.1867 3.61042 22.379 3.45989 23.941H3.17073C1.42054 23.9429 0.00190549 25.3611 0 27.1118V37.7401C0.00190549 39.4903 1.42054 40.9089 3.17073 40.9108H23.1031C24.6932 40.9085 26.0361 39.7309 26.2457 38.1546H26.6744C28.2436 38.1526 29.5551 36.9603 29.7056 35.3978H30.8094C32.4905 35.3959 33.8524 34.0339 33.8548 32.3533ZM30.8094 33.9353H29.7194V30.3844C30.4907 29.7704 31.4139 29.3769 32.3914 29.2454V32.3533C32.3904 33.2265 31.6825 33.9339 30.8094 33.9353ZM18.6462 25.4054C18.9958 28.6538 21.5615 31.2195 24.8099 31.5692V33.2851C21.5615 33.6343 18.9958 36.2 18.6462 39.4484H7.62719C7.27753 36.2 4.71179 33.6343 1.46341 33.2851V31.5692C4.71179 31.2195 7.27753 28.6538 7.62719 25.4054H18.6462ZM22.0927 22.6496C22.138 23.0879 22.2251 23.5204 22.3538 23.942H10.8108C10.9394 23.5204 11.0271 23.0879 11.0728 22.6496H22.0927ZM32.3914 26.0542V27.7725C31.452 27.8716 30.5426 28.1622 29.7194 28.6262V25.2006C30.5426 25.6641 31.452 25.9547 32.3914 26.0542ZM26.2395 26.6478C26.0533 25.4097 25.1582 24.396 23.952 24.0582C23.76 23.6081 23.6304 23.1341 23.5666 22.6486H26.6744C27.5476 22.6496 28.255 23.3575 28.256 24.2307V27.3385C27.5448 27.2442 26.8593 27.0094 26.2395 26.6478ZM23.1031 25.4054C24.0453 25.4064 24.8095 26.1705 24.8104 27.1127V30.0943C22.3723 29.7614 20.4549 27.844 20.122 25.4054H23.1031ZM26.4915 21.1862H14.9462C15.0748 20.7646 15.1624 20.3316 15.2077 19.8933H26.23C26.2762 20.3311 26.3639 20.7641 26.4915 21.1852V21.1862ZM26.2738 28.3003C26.9055 28.569 27.5734 28.7419 28.256 28.8134V30.5288C27.5734 30.5998 26.9055 30.7727 26.2738 31.0418V28.3003ZM32.3914 21.4749V24.5827C31.3553 24.4427 30.3811 24.0092 29.5841 23.3327C29.3607 22.6148 28.8805 22.0041 28.2355 21.6178C27.9616 21.0771 27.7811 20.4935 27.7015 19.8928H30.8094C31.6825 19.8938 32.39 20.6012 32.3914 21.4739V21.4749ZM10.6264 19.8919H13.7338C13.6747 20.3354 13.5609 20.7698 13.3946 21.1848H9.07203C9.21208 20.4364 9.86471 19.8933 10.6264 19.8919ZM6.49104 22.6482H9.59889C9.53982 23.0917 9.42597 23.5256 9.25972 23.941H4.93712C5.07717 23.1927 5.7298 22.6501 6.49104 22.6486V22.6482ZM3.17073 25.4054H6.15234C5.81936 27.844 3.90196 29.7614 1.46341 30.0943V27.1127C1.46437 26.1705 2.22799 25.4064 3.17073 25.4054ZM1.46341 37.7411V34.7599C3.90196 35.0924 5.81936 37.0103 6.15234 39.4484H3.17073C2.22799 39.4474 1.46437 38.6838 1.46341 37.7411ZM24.8104 37.7411C24.8095 38.6838 24.0453 39.4474 23.1031 39.4484H20.122C20.4549 37.0103 22.3723 35.0924 24.8109 34.7599L24.8104 37.7411ZM28.256 35.1101C28.255 35.9832 27.5476 36.6907 26.674 36.6916H26.2738V32.672C26.8845 32.3223 27.5581 32.0941 28.256 32.0013V35.1101Z" fill="#0098DB"/>
</g>
<defs>
<clipPath id="clip0">
<rect width="60" height="60" fill="white"/>
</clipPath>
</defs>
</svg>
