<svg width="65" height="65" viewBox="0 0 65 65" fill="none" xmlns="http://www.w3.org/2000/svg">
<g clip-path="url(#clip0)">
<path d="M8.89029 21.4849L10.0737 19.6297C12.4144 15.9494 15.8889 13.1313 19.973 11.6C20.063 11.5712 20.1478 11.5275 20.2234 11.47C20.4057 11.3299 20.5234 11.1215 20.5495 10.893C20.7232 9.39359 20.6625 7.87611 20.3694 6.3954C19.4146 5.85405 18.3649 5.50025 17.2775 5.35266C17.774 7.15467 17.9184 9.03607 17.7032 10.893C17.6771 11.1215 17.5593 11.3299 17.3771 11.47C17.3014 11.5275 17.2167 11.5712 17.1267 11.6C13.0431 13.1313 9.56857 15.9494 7.22788 19.6297L6.04395 21.4849C5.8841 21.7247 5.61077 21.8643 5.32251 21.8531H8.16885C8.45711 21.8643 8.73044 21.7247 8.89029 21.4849Z" fill="#0098DB" fill-opacity="0.25"/>
<path d="M15.4882 47.6769C15.501 44.0473 14.1647 40.5423 11.7393 37.842C10.6513 36.6554 9.74493 35.3143 9.04959 33.8623C8.90733 33.5666 8.60575 33.3801 8.277 33.386H5.43066C5.75942 33.3801 6.06099 33.5666 6.20326 33.8623C6.89859 35.3143 7.80492 36.6554 8.89295 37.842C11.3184 40.5423 12.6547 44.0473 12.6419 47.6769C12.6414 48.5033 13.3074 49.1752 14.1338 49.1826H16.9801C16.1537 49.1752 15.4877 48.5033 15.4882 47.6769Z" fill="#0098DB" fill-opacity="0.25"/>
<path d="M4.3959 32.751V22.6481C4.3959 22.2416 4.6799 21.8531 5.08644 21.8531H2.24063C1.83409 21.8531 1.54956 22.2416 1.54956 22.6481V32.751C1.54956 33.1575 1.83409 33.5225 2.24063 33.5225H5.08644C4.6799 33.5225 4.3959 33.1575 4.3959 32.751Z" fill="#0098DB" fill-opacity="0.25"/>
<path d="M17.28 19.9206C17.2853 20.5829 16.9357 21.1972 16.363 21.5297C15.7907 21.8627 15.0837 21.8627 14.5114 21.5297C13.9386 21.1972 13.5891 20.5829 13.5944 19.9206C13.5944 19.4688 13.2284 19.1022 12.776 19.1022C12.3242 19.1022 11.9576 19.4688 11.9576 19.9206C11.9501 21.169 12.6114 22.3258 13.6909 22.9524C14.7709 23.579 16.1035 23.579 17.183 22.9524C18.263 22.3258 18.9242 21.169 18.9168 19.9206C18.9168 19.4688 18.5502 19.1022 18.0984 19.1022C17.646 19.1022 17.28 19.4688 17.28 19.9206Z" fill="#0098DB"/>
<path d="M14.0836 50.373H17.2938C19.0196 50.3709 20.4183 48.9727 20.4204 47.2469C20.4215 46.4248 21.0875 45.7582 21.9102 45.7571H27.9018C28.7245 45.7582 29.3905 46.4248 29.3916 47.2469C29.3937 48.9727 30.7924 50.3714 32.5182 50.3735H34.6591C35.1109 50.3735 35.4775 50.0069 35.4775 49.5551C35.4775 49.1027 35.1109 48.7367 34.6591 48.7367H32.5182C31.6955 48.7356 31.0295 48.0691 31.0284 47.2469C31.0263 45.5211 29.6276 44.1224 27.9018 44.1203H21.9102C20.1839 44.1224 18.7857 45.5211 18.7836 47.2469C18.7825 48.0691 18.1165 48.7356 17.2938 48.7367H14.0836C13.2609 48.7356 12.5949 48.0691 12.5938 47.2469C12.6066 43.6834 11.2937 40.243 8.91093 37.5938C7.83942 36.42 6.94694 35.0943 6.26173 33.6599C6.12693 33.3733 5.83867 33.19 5.52164 33.19H2.38385C1.97144 33.1895 1.63736 32.8554 1.63683 32.443V22.5042C1.63736 22.0924 1.97144 21.7583 2.38385 21.7577H5.41561C5.69641 21.7577 5.95696 21.6139 6.10722 21.3768L7.27143 19.5375C9.57643 15.9111 12.9982 13.1335 17.0205 11.6229C17.3215 11.5217 17.5373 11.2558 17.5736 10.9398C17.7856 9.10479 17.6407 7.24524 17.1462 5.46508C21.4072 6.03467 24.5903 9.66692 24.5962 13.9657C24.5962 14.4176 24.9622 14.7842 25.4146 14.7842C25.8664 14.7842 26.233 14.4176 26.233 13.9657C26.2335 12.5431 25.9357 11.1359 25.3576 9.83636C26.3912 9.70368 27.4329 9.63655 28.4757 9.63602C39.5141 9.63602 48.4954 17.736 48.4954 27.6923C48.4954 28.7249 48.3984 29.7554 48.2056 30.7699C48.1496 31.0576 48.2514 31.3539 48.4736 31.5457C48.6952 31.7375 49.0027 31.7961 49.2797 31.6991C49.5563 31.6022 49.7598 31.3645 49.8136 31.0763C50.0257 29.9605 50.1322 28.8278 50.1322 27.6923C50.1322 27.4808 50.1269 27.2709 50.12 27.0609C52.807 26.737 54.8301 24.4591 54.8339 21.7524C54.8339 21.3 54.4673 20.934 54.0154 20.934C53.5636 20.934 53.197 21.3 53.197 21.7524C53.1944 23.6066 51.825 25.1753 49.9884 25.4278C48.7496 15.6319 39.5749 7.99918 28.4762 7.99918C27.1495 7.99918 25.8249 8.10149 24.5141 8.30396C22.6221 5.46348 19.4352 3.75631 16.0225 3.75525C15.763 3.75525 15.519 3.87833 15.3645 4.0872C15.21 4.29553 15.1641 4.56514 15.2398 4.81344L15.47 5.56525C15.9378 7.08486 16.1152 8.6796 15.9937 10.2647C11.8297 11.9383 8.29552 14.8753 5.88769 18.662L4.96484 20.1209H2.38385C1.06778 20.122 0.00159848 21.1887 0 22.5042V32.4424C0.00159848 33.7585 1.06778 34.8247 2.38385 34.8263H5.01173C5.73371 36.226 6.63631 37.5256 7.69716 38.6903C9.80714 41.039 10.9692 44.0889 10.957 47.2464C10.9586 48.9722 12.3578 50.3709 14.0836 50.373Z" fill="#0098DB"/>
<path d="M49.1775 34.0537C42.806 34.0537 37.6414 39.2184 37.6414 45.5893C37.6414 51.9603 42.806 57.1249 49.1775 57.1249C55.5485 57.1249 60.7131 51.9603 60.7131 45.5893C60.7062 39.221 55.5453 34.0606 49.1775 34.0537ZM49.1775 55.4881C43.7102 55.4881 39.2782 51.0561 39.2782 45.5893C39.2782 40.122 43.7102 35.69 49.1775 35.69C54.6443 35.69 59.0763 40.122 59.0763 45.5893C59.0704 51.0539 54.6416 55.4822 49.1775 55.4881Z" fill="#FF9500"/>
<path d="M60.4191 34.4661C60.4025 34.4432 60.385 34.4214 60.3658 34.4006C60.345 34.3814 60.3232 34.3638 60.3002 34.3473C54.1429 28.2395 44.2122 28.2395 38.0544 34.3473C38.032 34.3638 38.0101 34.3814 37.9894 34.4006C37.9702 34.4214 37.9521 34.4432 37.9355 34.4661C31.8278 40.6234 31.8278 50.5547 37.9355 56.712C37.9521 56.7349 37.9702 56.7568 37.9888 56.777C38.0096 56.7962 38.0315 56.8138 38.0538 56.8303C44.2117 62.9391 54.1435 62.9391 60.3008 56.8303C60.3237 56.8138 60.3455 56.7962 60.3663 56.777C60.385 56.7568 60.4025 56.7349 60.4191 56.712C66.5273 50.5547 66.5273 40.6234 60.4191 34.4661ZM62.6228 46.4072H63.3389C63.1567 49.5999 61.8966 52.6359 59.7653 55.0192L59.2639 54.5173C58.9442 54.1976 58.4258 54.1982 58.1061 54.5173C57.7864 54.837 57.7869 55.3554 58.1061 55.6751L58.608 56.1765C56.2247 58.3078 53.1887 59.5679 49.996 59.7502V59.0341C49.996 58.5817 49.6299 58.2156 49.1776 58.2156C48.7257 58.2156 48.3592 58.5817 48.3592 59.0341V59.7502C45.167 59.5679 42.131 58.3078 39.7477 56.1765L40.2491 55.6746C40.5688 55.3554 40.5688 54.837 40.2491 54.5173C39.9294 54.1976 39.4115 54.1976 39.0918 54.5173L38.5899 55.0192C36.4586 52.6354 35.199 49.5994 35.0162 46.4072H35.7329C36.1847 46.4072 36.5513 46.0406 36.5513 45.5888C36.5513 45.137 36.1847 44.7704 35.7329 44.7704H35.0162C35.1984 41.5782 36.4586 38.5422 38.5899 36.1584L39.0918 36.6603C39.4109 36.98 39.9294 36.98 40.2491 36.6603C40.5688 36.3406 40.5688 35.8221 40.2491 35.5025L39.7471 35.0011C42.131 32.8698 45.167 31.6096 48.3592 31.4274V32.1435C48.3592 32.5954 48.7257 32.962 49.1776 32.962C49.6294 32.962 49.996 32.5954 49.996 32.1435V31.4274C53.1881 31.6096 56.2241 32.8698 58.6075 35.0011L58.1061 35.5025C57.7864 35.8221 57.7864 36.3406 58.1061 36.6603C58.4258 36.98 58.9437 36.98 59.2634 36.6603L59.7653 36.1584C61.8966 38.5422 63.1567 41.5782 63.3389 44.7704H62.6228C62.1704 44.7704 61.8044 45.137 61.8044 45.5888C61.8044 46.0406 62.1704 46.4072 62.6228 46.4072Z" fill="#FF9500"/>
<path d="M53.7469 42.7488C53.7447 41.1152 52.6748 39.6755 51.1115 39.2023V37.8692C51.1115 37.4168 50.745 37.0508 50.2931 37.0508C49.8408 37.0508 49.4747 37.4168 49.4747 37.8692V39.0441H48.3798V37.8692C48.3798 37.4168 48.0132 37.0508 47.5613 37.0508C47.1095 37.0508 46.7429 37.4168 46.7429 37.8692V39.0441H45.4263C44.974 39.0441 44.6079 39.4107 44.6079 39.8625V51.4045C44.6079 51.8564 44.974 52.2229 45.4263 52.2229H46.7429V53.3083C46.7429 53.7607 47.1095 54.1267 47.5613 54.1267C48.0132 54.1267 48.3798 53.7607 48.3798 53.3083V52.2229H49.4747V53.3083C49.4747 53.7607 49.8408 54.1267 50.2931 54.1267C50.745 54.1267 51.1115 53.7607 51.1115 53.3083V52.0652C52.4281 51.6693 53.4165 50.5765 53.6787 49.2269C53.9408 47.8772 53.4336 46.494 52.3615 45.6335C53.237 44.9318 53.7463 43.8704 53.7469 42.7488ZM52.11 48.5193C52.1084 49.6606 51.184 50.585 50.0427 50.5866H46.2447V46.4525H50.0427C51.184 46.4535 52.1084 47.3785 52.11 48.5193ZM46.2447 44.8156V40.6814H50.0427C51.1845 40.6814 52.11 41.607 52.11 42.7488C52.11 43.8901 51.1845 44.8156 50.0427 44.8156H46.2447Z" fill="#FF9500"/>
</g>
<defs>
<clipPath id="clip0">
<rect width="65" height="65" fill="white"/>
</clipPath>
</defs>
</svg>
