<svg width="60" height="60" viewBox="0 0 60 60" fill="none" xmlns="http://www.w3.org/2000/svg">
<path d="M15.8053 48.4604C12.5969 46.1066 10.0435 43.4175 8.21665 40.4683C5.94484 36.8002 4.79249 32.7072 4.79249 28.3032V15.382C12.4073 12.0817 19.6339 7.94922 26.3407 3.06116C25.4123 2.41425 24.4938 1.75352 23.5844 1.07898C16.6494 6.22904 9.14463 10.564 1.21875 13.9987V26.9198C1.21875 31.3238 2.37062 35.4163 4.64244 39.0844C6.4698 42.0341 9.02268 44.7232 12.2315 47.077C17.1615 50.6941 22.161 52.409 23.1885 52.7387C23.1938 52.7368 23.2005 52.7348 23.2066 52.7329C20.5971 51.5706 18.1166 50.1391 15.8053 48.4604Z" fill="#0098DB" fill-opacity="0.3"/>
<path d="M46.4567 13.1925L46.3076 13.1278C38.3475 9.70312 30.8217 5.34575 23.8886 0.147104C23.6285 -0.0477325 23.2708 -0.0477325 23.0107 0.147104C16.0776 5.34575 8.55183 9.70312 0.591654 13.1282L0.442549 13.1925C0.173876 13.3078 0 13.5722 0 13.8642V27.0435C0 31.6577 1.21046 35.9479 3.59804 39.7941C5.50019 42.8572 8.14501 45.6406 11.4615 48.0682C17.0813 52.1817 22.6177 53.829 22.8506 53.8976C22.9826 53.9362 23.1231 53.9366 23.2555 53.899C23.388 53.8614 26.552 52.952 30.575 50.8121C30.9313 50.622 31.0671 50.179 30.877 49.8222C30.6874 49.4654 30.2439 49.3301 29.8871 49.5202C27.7025 50.6911 25.4173 51.6648 23.0593 52.4299C22.017 52.094 17.1199 50.4053 12.2909 46.862C9.63367 44.9123 7.43569 42.7281 5.73457 40.3553C5.97275 40.2281 6.12186 39.9799 6.12186 39.7098V38.3202C6.12186 37.9158 5.79411 37.5885 5.39015 37.5885C4.98571 37.5885 4.65844 37.9158 4.65844 38.3202V38.7156C2.54002 35.1838 1.46341 31.259 1.46341 27.0435V14.3458C9.25352 10.9669 16.6306 6.70579 23.4494 1.64529C30.2687 6.70579 37.6458 10.9669 45.4359 14.3458V27.0435C45.4359 27.7152 45.4078 28.3874 45.352 29.0419C45.3177 29.4449 45.6164 29.7989 46.019 29.8332C46.4215 29.8675 46.7759 29.5688 46.8102 29.1663C46.8693 28.4707 46.8993 27.7562 46.8993 27.0435V13.8642C46.8993 13.5722 46.7254 13.3078 46.4567 13.1925Z" fill="#0098DB"/>
<path d="M22.7168 38.3194V39.7085C22.7168 40.1124 23.0445 40.4402 23.4485 40.4402C23.8529 40.4402 24.1802 40.1124 24.1802 39.7085V38.3194C24.1802 37.9149 23.8529 37.5876 23.4485 37.5876C23.0445 37.5876 22.7168 37.9149 22.7168 38.3194Z" fill="#0098DB"/>
<path d="M27.2324 38.3194V39.7085C27.2324 40.1124 27.5602 40.4402 27.9641 40.4402C28.3686 40.4402 28.6958 40.1124 28.6958 39.7085V38.3194C28.6958 37.9149 28.3686 37.5876 27.9641 37.5876C27.5602 37.5876 27.2324 37.9149 27.2324 38.3194Z" fill="#0098DB"/>
<path d="M18.2031 38.3194V39.7085C18.2031 40.1124 18.5309 40.4402 18.9348 40.4402C19.3388 40.4402 19.6665 40.1124 19.6665 39.7085V38.3194C19.6665 37.9149 19.3388 37.5876 18.9348 37.5876C18.5309 37.5876 18.2031 37.9149 18.2031 38.3194Z" fill="#0098DB"/>
<path d="M13.6875 38.3194V39.7085C13.6875 40.1124 14.0152 40.4402 14.4192 40.4402C14.8232 40.4402 15.1509 40.1124 15.1509 39.7085V38.3194C15.1509 37.9149 14.8232 37.5876 14.4192 37.5876C14.0152 37.5876 13.6875 37.9149 13.6875 38.3194Z" fill="#0098DB"/>
<path d="M9.17383 38.3194V39.7085C9.17383 40.1124 9.50157 40.4402 9.90554 40.4402C10.31 40.4402 10.6372 40.1124 10.6372 39.7085V38.3194C10.6372 37.9149 10.31 37.5876 9.90554 37.5876C9.50157 37.5876 9.17383 37.9149 9.17383 38.3194Z" fill="#0098DB"/>
<path d="M44.1239 32.5734C37.7452 32.5734 32.5742 37.7444 32.5742 44.123C32.5742 50.5016 37.7452 55.6726 44.1239 55.6726C50.5025 55.6726 55.6735 50.5016 55.6735 44.123C55.6664 37.7472 50.4996 32.5805 44.1239 32.5734ZM44.1239 54.2092C38.5532 54.2092 34.0376 49.6937 34.0376 44.123C34.0376 38.5523 38.5532 34.0368 44.1239 34.0368C49.6946 34.0368 54.2101 38.5523 54.2101 44.123C54.2044 49.6908 49.6922 54.203 44.1239 54.2092Z" fill="#FF9500"/>
<path d="M55.4031 32.9611C55.3721 32.9144 55.3321 32.8744 55.285 32.843C49.1064 26.7135 39.1402 26.7135 32.9617 32.843C32.9388 32.8596 32.9174 32.8773 32.8969 32.8963C32.8779 32.9168 32.8602 32.9382 32.8436 32.9611C26.7136 39.1401 26.7136 49.1063 32.8436 55.2853C32.8598 55.3077 32.8779 55.3291 32.8964 55.3496C32.9169 55.3682 32.9384 55.3858 32.9607 55.4025C39.1398 61.5325 49.1064 61.5325 55.2854 55.4025C55.3078 55.3858 55.3293 55.3687 55.3498 55.3496C55.3683 55.3291 55.386 55.3077 55.4026 55.2853C61.5326 49.1063 61.5326 39.1401 55.4026 32.9611H55.4031ZM57.6959 44.8547H58.5191C58.3528 48.1683 57.0437 51.3219 54.8153 53.7795L54.2379 53.2021C54.0535 53.0149 53.783 52.9406 53.5291 53.0083C53.2747 53.0754 53.0765 53.2741 53.0089 53.528C52.9417 53.7819 53.016 54.0529 53.2032 54.2368L53.7806 54.8142C51.323 57.0427 48.1694 58.3517 44.8558 58.518V57.6953C44.8558 57.2908 44.528 56.9636 44.124 56.9636C43.7201 56.9636 43.3923 57.2908 43.3923 57.6953V58.5185C40.0787 58.3522 36.9251 57.0431 34.4675 54.8147L35.0444 54.2373C35.2321 54.0529 35.3059 53.7824 35.2388 53.5285C35.1716 53.2741 34.9729 53.0759 34.719 53.0083C34.4651 52.9411 34.1946 53.0154 34.0102 53.2026L33.4328 53.78C31.2039 51.3224 29.8953 48.1688 29.729 44.8552H30.5522C30.9562 44.8552 31.2839 44.5274 31.2839 44.1234C31.2839 43.7195 30.9562 43.3917 30.5522 43.3917H29.729C29.8953 40.0781 31.2039 36.9245 33.4328 34.4669L34.0102 35.0438C34.297 35.323 34.7548 35.3201 35.0377 35.0371C35.3207 34.7542 35.3236 34.2959 35.0444 34.0091L34.4675 33.4322C36.9251 31.2033 40.0787 29.8947 43.3923 29.728V30.5516C43.3923 30.9556 43.7201 31.2833 44.124 31.2833C44.528 31.2833 44.8558 30.9556 44.8558 30.5516V29.728C48.1694 29.8947 51.3225 31.2033 53.7801 33.4322L53.2032 34.0091C53.0141 34.193 52.9388 34.4645 53.006 34.7199C53.0732 34.9747 53.2723 35.1743 53.5272 35.241C53.7825 35.3082 54.054 35.2329 54.2379 35.0438L54.8153 34.4669C57.0437 36.9245 58.3528 40.0781 58.5191 43.3917H57.6959C57.2914 43.3917 56.9642 43.7195 56.9642 44.1234C56.9642 44.5274 57.2914 44.8552 57.6959 44.8552V44.8547Z" fill="#FF9500"/>
<path d="M45.8201 38.4766V37.4438C45.8201 37.0398 45.4928 36.7121 45.0884 36.7121C44.6844 36.7121 44.3567 37.0398 44.3567 37.4438V38.437H43.4568V37.4438C43.4568 37.0398 43.1295 36.7121 42.7251 36.7121C42.3211 36.7121 41.9934 37.0398 41.9934 37.4438V38.437H40.8782C40.4742 38.437 40.1465 38.7648 40.1465 39.1687V49.1549C40.1465 49.5589 40.4742 49.8866 40.8782 49.8866H41.9939V50.8022C41.9939 51.2062 42.3216 51.5339 42.7256 51.5339C43.13 51.5339 43.4573 51.2062 43.4573 50.8022V49.8866H44.3571V50.8022C44.3571 51.2062 44.6849 51.5339 45.0888 51.5339C45.4933 51.5339 45.8205 51.2062 45.8205 50.8022V49.8466C47.1368 49.6203 48.0995 48.4799 48.1014 47.1446V46.1719C48.1014 45.4083 47.7822 44.6794 47.2216 44.1616C47.7827 43.6438 48.1014 42.9149 48.1014 42.1518V41.179C48.099 39.8433 47.1368 38.7029 45.8201 38.4766ZM46.6375 46.1719V47.1446C46.6361 47.8502 46.0645 48.4218 45.3589 48.4227H41.6099V44.8933H45.3589C46.0645 44.8947 46.6361 45.4664 46.6371 46.1719H46.6375ZM41.6099 43.4299V39.9005H45.3589C46.0645 39.9019 46.6361 40.4735 46.6375 41.179V42.1518C46.6361 42.8573 46.0645 43.4289 45.3589 43.4299H41.6099Z" fill="#FF9500"/>
</svg>
