<svg width="30" height="30" viewBox="0 0 30 30" fill="none" xmlns="http://www.w3.org/2000/svg">
<path d="M30 14.3914C30 23.0102 23.2848 30 15.0001 30C6.71635 30 0 23.0102 0 14.3914C0 14.0396 0.0139153 13.6928 0.035073 13.349L9.11661 18.7857L28.353 7.26981C29.4057 9.40502 30 11.825 30 14.3914ZM9.11661 14.8572L0.661504 9.79663C0.49566 10.3576 0.360251 10.9305 0.255683 11.5179L9.11661 16.8217L27.5272 5.80162C27.2233 5.32515 26.8966 4.86461 26.5461 4.42388L9.11661 14.8572ZM25.4039 3.14599C24.9868 2.72821 24.5467 2.33516 24.0869 1.97015L9.11661 10.9305L1.97043 6.65225C1.70075 7.14396 1.45557 7.65253 1.23675 8.1782L9.11661 12.8926L25.4039 3.14599ZM9.11661 8.96717L22.5725 0.914231C22.0099 0.571575 21.4257 0.265758 20.8195 0L9.11661 7.00405L3.90563 3.88474C3.53383 4.30904 3.18562 4.75773 2.86003 5.22183L9.11661 8.96717Z" fill="#299D30"/>
</svg>
