<svg width="30" height="30" viewBox="0 0 30 30" fill="none" xmlns="http://www.w3.org/2000/svg">
<path d="M28.8281 2.28516H1.17188C0.524597 2.28516 0 2.80975 0 3.45703V21.8946C0 22.5419 0.524597 23.0665 1.17188 23.0665H8.49449L7.03789 25.9799C6.64902 26.7574 7.21504 27.6757 8.08594 27.6757H21.9141C22.7836 27.6757 23.3517 26.7588 22.9623 25.9799L21.5055 23.0665H28.8281C29.4754 23.0665 30 22.5419 30 21.8946V3.45703C30 2.80975 29.4754 2.28516 28.8281 2.28516V2.28516ZM20.018 25.3322H9.98199L11.115 23.0665H18.885L20.018 25.3322ZM27.6562 20.7227H2.34375V4.62891H27.6562V20.7227Z" fill="#0098DB"/>
</svg>
