<svg width="30" height="30" viewBox="0 0 30 30" fill="none" xmlns="http://www.w3.org/2000/svg">
<g clip-path="url(#clip0)">
<path d="M25.695 24.3103H13.2812V30H25.695V24.3103Z" fill="#C8D2D6"/>
<path d="M21.5571 30H13.2812V24.3103H18.1568C20.0349 24.3103 21.5571 25.8326 21.5571 27.7107V30Z" fill="#E7ECED"/>
<path d="M18.195 28.4483C18.9091 28.4483 19.4881 27.8693 19.4881 27.1552C19.4881 26.441 18.9091 25.8621 18.195 25.8621C17.4808 25.8621 16.9019 26.441 16.9019 27.1552C16.9019 27.8693 17.4808 28.4483 18.195 28.4483Z" fill="#7383BF"/>
<path d="M17.3695 5.53552C18.0072 5.25517 18.4536 4.62 18.4536 3.87931C18.4536 2.87948 17.6431 2.06897 16.6433 2.06897C15.9021 2.06897 15.2669 2.51535 14.9871 3.1531L17.3695 5.53552Z" fill="#FBCE9D"/>
<path d="M19.9557 8.12173C20.5934 7.84138 21.0398 7.20621 21.0398 6.46552C21.0398 5.46569 20.2293 4.65517 19.2294 4.65517C18.4882 4.65517 17.8531 5.10155 17.5732 5.73931L19.9557 8.12173Z" fill="#FBCE9D"/>
<path d="M22.5418 10.7079C23.1796 10.4276 23.626 9.79241 23.626 9.05172C23.626 8.0519 22.8155 7.24138 21.8156 7.24138C21.0744 7.24138 20.4393 7.68776 20.1594 8.32552L22.5418 10.7079Z" fill="#FBCE9D"/>
<path d="M25.128 13.2941C25.7658 13.0138 26.2122 12.3786 26.2122 11.6379C26.2122 10.6381 25.4016 9.82759 24.4018 9.82759C23.6606 9.82759 23.0254 10.274 22.7456 10.9117L25.128 13.2941Z" fill="#FBCE9D"/>
<path d="M14.5743 17.069H9.4019C8.40621 17.069 7.59155 16.2543 7.59155 15.2586C7.59155 14.2629 8.40621 13.4483 9.4019 13.4483H14.5743C15.57 13.4483 16.3847 14.2629 16.3847 15.2586C16.3847 16.2543 15.57 17.069 14.5743 17.069Z" fill="#FBCE9D"/>
<path d="M25.2481 16.3257L19.4964 22.0774C19.0329 22.5409 18.2814 22.5409 17.8185 22.0774L12.8105 17.069H9.40242C9.10345 17.2154 8.28776 16.6872 8.6007 16.9557L14.1931 22.5264C14.2314 22.5647 14.2759 22.5921 14.3162 22.6267V24.3104H24.661V21.9776C25.6019 21.2695 26.2128 20.1476 26.2128 18.8793C26.2122 17.9002 25.8466 17.0085 25.2481 16.3257Z" fill="#F7B563"/>
<path d="M13.3288 1.49431L5.2821 9.54103L9.209 13.4679C9.27366 13.4612 9.33624 13.4483 9.40193 13.4483H14.5743C15.57 13.4483 16.3847 14.2629 16.3847 15.2586C16.3847 16.2543 15.57 17.069 14.5743 17.069H12.81L16.0971 20.356L24.1433 12.3093L13.3288 1.49431Z" fill="#424A60"/>
<path d="M13.3288 1.49431L12.182 0.347586C11.7186 -0.115862 10.967 -0.115862 10.5041 0.347586L4.13531 6.71586C3.67186 7.17931 3.67186 7.93086 4.13531 8.39431L5.28203 9.54103L13.3288 1.49431Z" fill="#E7ECED"/>
<path d="M25.8645 14.0307L24.1431 12.3093L16.0969 20.356L17.8178 22.0769C18.2812 22.5403 19.0328 22.5403 19.4957 22.0769L25.864 15.7086C26.328 15.2457 26.328 14.4941 25.8645 14.0307Z" fill="#E7ECED"/>
<path d="M21.2984 18.3621C21.8697 18.3621 22.3329 17.8989 22.3329 17.3276C22.3329 16.7563 21.8697 16.2931 21.2984 16.2931C20.7271 16.2931 20.2639 16.7563 20.2639 17.3276C20.2639 17.8989 20.7271 18.3621 21.2984 18.3621Z" fill="white"/>
<path d="M8.1088 5.68965C7.97639 5.68965 7.84397 5.63896 7.74311 5.5381C7.54087 5.33586 7.54087 5.00896 7.74311 4.80672L8.77759 3.77224C8.97984 3.57 9.30673 3.57 9.50897 3.77224C9.71122 3.97448 9.71122 4.30137 9.50897 4.50362L8.47449 5.5381C8.37363 5.63896 8.24122 5.68965 8.1088 5.68965Z" fill="#424A60"/>
</g>
<defs>
<clipPath id="clip0">
<rect width="30" height="30" fill="white"/>
</clipPath>
</defs>
</svg>
