<svg width="34" height="30" viewBox="0 0 34 30" fill="none" xmlns="http://www.w3.org/2000/svg">
<path d="M33.2462 14.0516L33.6628 12.6539L32.2173 12.6997C31.5503 12.6734 30.9057 12.4521 30.3636 12.0632C30.4302 12.0632 30.4927 12.0632 30.5593 12.0632C30.9931 12.0621 31.4179 11.94 31.7859 11.7107C32.154 11.4814 32.4505 11.154 32.6422 10.7654L33.2629 9.38852C32.763 9.39276 32.2634 9.36357 31.7674 9.30116C31.2946 9.18922 30.8691 8.93164 30.551 8.56489C30.3373 8.33698 30.0793 8.1549 29.7929 8.02975C29.5064 7.9046 29.1974 7.839 28.8847 7.83694C28.6372 7.83804 28.3913 7.87733 28.1557 7.95341C28.191 7.84165 28.2188 7.72771 28.2391 7.61231C28.3368 6.80144 28.1092 5.98489 27.6059 5.3411L26.5228 3.9975L25.848 5.5782C25.7416 5.8025 25.5777 5.99477 25.3731 6.13561C25.2578 5.57309 24.9797 5.05673 24.5733 4.65058C24.2358 4.30521 23.832 4.03141 23.3861 3.84557C22.9402 3.65973 22.4613 3.56568 21.9781 3.56905C21.8079 3.56819 21.638 3.58071 21.4699 3.60649L20.1702 3.86023C20.2839 3.41981 20.4637 2.99908 20.7034 2.61231L21.4199 1.46839L19.5911 1.66389L19.0121 0.415973L17.8874 0.994176L16.8376 0L15.8087 1.02329L14.6798 0.445092L14.1008 1.66389L12.2804 1.45591L13.0052 2.59567C13.2442 2.9823 13.4226 3.40314 13.5343 3.84359L12.2846 3.59817H12.2429C12.0692 3.57189 11.8937 3.55938 11.718 3.56073C11.2348 3.55712 10.7558 3.65107 10.3098 3.83692C9.86387 4.02277 9.46012 4.2967 9.12281 4.64226C8.71505 5.04803 8.43551 5.56437 8.31884 6.12729C8.11686 5.98993 7.95454 5.80203 7.84812 5.58236L7.17328 3.9975L6.06938 5.34942C5.5747 5.99394 5.35195 6.80603 5.44869 7.61231C5.46928 7.72764 5.4971 7.84157 5.53201 7.95341C5.29658 7.87687 5.05061 7.83757 4.80301 7.83694C4.49038 7.83924 4.18147 7.90496 3.89504 8.03009C3.60861 8.15523 3.35062 8.33717 3.13675 8.56489C2.82053 8.92775 2.40026 9.18478 1.93287 9.30116C1.43381 9.37497 0.929155 9.4042 0.424897 9.38852L1.04558 10.7654C1.23763 11.1537 1.53427 11.4808 1.90219 11.7101C2.27011 11.9393 2.69475 12.0616 3.12842 12.0632C3.19507 12.0632 3.25755 12.0632 3.3242 12.0632C2.78348 12.4565 2.13878 12.6822 1.47048 12.7121L0 12.6664L0.445726 14.0641C0.605643 14.6016 0.9189 15.0811 1.34723 15.4438C1.77555 15.8065 2.3004 16.0368 2.85765 16.1065C2.79973 16.4688 2.65615 16.8122 2.43882 17.1081C2.22149 17.4039 1.93666 17.6438 1.60795 17.8078L0.512377 18.2571L1.11223 19.297C1.35462 19.6743 1.68888 19.984 2.08375 20.1971C2.47861 20.4103 2.92117 20.5199 3.37002 20.5158C3.60803 20.5153 3.84535 20.4902 4.07819 20.4409C4.13165 20.7021 4.19839 20.9603 4.27814 21.2146C4.4844 21.7607 4.49909 22.3605 4.3198 22.916L3.77826 24.0474L4.9863 24.3636C5.25865 24.4324 5.53849 24.4674 5.81944 24.4676C6.02322 24.4654 6.22601 24.4389 6.42346 24.3885C6.56557 24.3568 6.70487 24.3137 6.84003 24.2596C6.99487 24.5381 7.18531 24.7954 7.40656 25.025C8.18137 25.8195 9.28111 26.223 10.6683 26.223H11.6597L9.6102 27.0549L11.1682 27.8078C11.7937 28.1175 12.4347 28.3952 13.0885 28.6398L12.8927 29.1722L13.4301 29.4176C14.3218 29.7693 15.2671 29.9662 16.2253 30C16.2253 30 16.6418 30 16.8668 30C17.0917 30 17.5041 30 17.5041 30C18.4564 29.9659 19.396 29.7704 20.2826 29.4218L20.82 29.1764L20.6242 28.6439C21.2855 28.3901 21.9335 28.1027 22.5654 27.7829L24.0942 27.0424L22.0489 26.2105H23.0445C24.4358 26.2105 25.5439 25.7945 26.3104 25.0125C26.5319 24.7832 26.7224 24.5259 26.8769 24.2471C27.0122 24.3008 27.1515 24.3439 27.2935 24.376C27.4874 24.421 27.6859 24.4433 27.885 24.4426C28.1659 24.4419 28.4457 24.407 28.7181 24.3386L29.9345 24.0183L29.4054 22.9077C29.2162 22.3457 29.228 21.7356 29.4388 21.1814C29.5221 20.9276 29.5971 20.6697 29.6554 20.416C29.8896 20.4653 30.1283 20.4904 30.3677 20.4908C30.8203 20.4942 31.2661 20.3811 31.6623 20.1626C32.0584 19.944 32.3916 19.6273 32.6297 19.2429L33.2212 18.2155L32.1256 17.7662C31.7965 17.6028 31.5113 17.363 31.2939 17.0671C31.0765 16.7711 30.9332 16.4275 30.8759 16.0649C31.4321 15.9922 31.9554 15.7608 32.3832 15.3985C32.811 15.0363 33.1251 14.5585 33.2878 14.0225L33.2462 14.0516Z" fill="white"/>
<path d="M16.8379 4.27621C15.6756 4.27621 14.805 4.6589 14.6176 5.10816L16.8379 5.9817L19.0623 5.104C18.8749 4.65474 18.0042 4.27205 16.8379 4.27205" fill="white"/>
<path d="M16.867 27.4542H16.8378C16.1157 27.4479 15.397 27.3558 14.6967 27.1797L14.1218 28.7021C15.9018 29.2145 17.7905 29.2145 19.5705 28.7021L19.0081 27.1838C18.3078 27.3597 17.5891 27.4518 16.867 27.4584" fill="white"/>
<path d="M21.1201 25.9485C20.5103 26.2526 19.8764 26.5058 19.2247 26.7055L19.6788 27.9535C20.4056 27.763 21.1116 27.501 21.7866 27.1714L20.841 26.8595L21.1201 25.9485Z" fill="white"/>
<path d="M12.5723 25.9485L12.8514 26.8595L11.9058 27.1714C12.5796 27.5005 13.2842 27.7624 14.0094 27.9535L14.4676 26.7055C13.8161 26.5057 13.1821 26.2525 12.5723 25.9485Z" fill="white"/>
<path d="M16.8378 2.8245C17.6719 2.81584 18.495 3.01455 19.233 3.4027C19.3042 3.16315 19.3904 2.92835 19.4913 2.6997L19.2414 2.72882L18.9789 2.75794L18.8665 2.52084L18.5332 1.81784L17.925 2.13398L17.6876 2.25461L17.5085 2.0799L16.8378 1.41019L16.1838 2.0799L16.0047 2.25045L15.7672 2.12982L15.1549 1.81368L14.8258 2.51668L14.7133 2.75378L14.4509 2.72466L14.2009 2.69554C14.3014 2.92436 14.3876 3.15914 14.4592 3.39854C15.1927 3.01483 16.0097 2.81766 16.8378 2.8245Z" fill="white"/>
<path d="M30.2179 10.9692C30.329 11.008 30.4459 11.0277 30.5636 11.0274C30.7974 11.0253 31.0263 10.9605 31.2264 10.8398C31.4264 10.719 31.5903 10.5468 31.7008 10.3411C30.97 10.221 30.3032 9.85213 29.8138 9.29697C29.6978 9.16745 29.556 9.06356 29.3975 8.99193C29.2389 8.92029 29.0672 8.88251 28.8932 8.881C28.621 8.88609 28.3556 8.96675 28.1267 9.11394C29.3056 9.74206 29.5472 10.7487 30.2095 10.9733" fill="white"/>
<path d="M3.13276 11.0274C3.24912 11.0277 3.36466 11.008 3.47434 10.9692C4.14918 10.7446 4.39079 9.72127 5.55717 9.10979C5.32829 8.9626 5.06289 8.88194 4.79069 8.87685C4.61599 8.87778 4.44343 8.91529 4.28414 8.98694C4.12485 9.05858 3.98238 9.16279 3.86591 9.29282C3.37755 9.84715 2.71241 10.216 1.98303 10.3369C2.09356 10.5426 2.25744 10.7149 2.45752 10.8356C2.65759 10.9564 2.88649 11.0212 3.12026 11.0233" fill="white"/>
<path d="M30.5345 15.0583H30.5844C31.8341 15.0583 32.2507 13.7355 32.2507 13.7355H32.2257C31.5745 13.7135 30.936 13.5499 30.3546 13.256C29.7733 12.9622 29.2632 12.5452 28.8599 12.0341C28.0059 10.9485 27.3019 9.99587 25.9189 9.6215L25.7814 9.59654L25.7523 9.45927C25.7148 9.24712 25.8606 9.0433 26.1688 8.83531C28.0809 7.58739 26.7812 5.99421 26.7812 5.99421C26.7812 5.99421 26.2355 7.26709 25.015 7.26709H24.9233C24.7836 7.26452 24.6442 7.25061 24.5067 7.22549L24.2818 7.1839C24.3735 6.86559 24.3762 6.52828 24.2896 6.20856C24.2029 5.88884 24.0302 5.59892 23.7903 5.37025C23.5504 5.12476 23.2632 4.93037 22.9461 4.79882C22.6289 4.66726 22.2883 4.60128 21.9449 4.60486C21.822 4.60342 21.6993 4.61317 21.5783 4.63398C21.9948 5.18306 22.3073 6.09821 21.8199 6.66393C21.4033 7.15062 20.3702 7.17142 20.3702 7.91185C20.3702 8.21967 20.6577 8.57325 21.17 8.89355C22.7155 9.86692 24.2485 11.1564 24.89 12.8827C25.6856 15.0375 24.79 16.4684 23.507 17.292C23.7853 17.5264 24.1279 17.6714 24.4901 17.708C24.6109 17.708 24.7234 17.708 24.8317 17.708C25.5018 17.7353 26.1609 17.5311 26.6979 17.1298C26.6061 17.6952 26.3661 18.2262 26.0022 18.6689C25.6884 19.0332 25.2959 19.3216 24.8543 19.5125C24.4128 19.7035 23.9336 19.7919 23.4528 19.7712C23.4527 19.9658 23.4943 20.1582 23.5748 20.3354C23.6553 20.5126 23.7727 20.6706 23.9194 20.7987C24.2514 21.0213 24.6308 21.1637 25.0275 21.2147C25.0275 21.2147 23.5778 21.51 23.4153 23.6481C23.4193 24.1918 23.2876 24.7279 23.0321 25.208H23.0571C26.4229 25.208 26.3355 22.3253 26.3355 22.3253C26.4227 22.5902 26.5765 22.8284 26.7821 23.017C26.9878 23.2056 27.2385 23.3384 27.5102 23.4027C27.6246 23.4312 27.7422 23.4452 27.8601 23.4443C28.0511 23.443 28.2412 23.4193 28.4266 23.3736C28.1224 22.5694 28.1224 21.682 28.4266 20.8777C28.6636 20.2104 28.7779 19.5058 28.7641 18.7979C28.9536 19.0296 29.1956 19.2131 29.4701 19.3332C29.7446 19.4532 30.0437 19.5064 30.3428 19.4884C30.6086 19.4931 30.8713 19.4308 31.1065 19.3072C31.3417 19.1836 31.5418 19.0027 31.6884 18.7812C29.4431 17.8495 29.668 14.8503 29.668 14.8503C29.9262 15.008 30.2235 15.0901 30.5261 15.0874L30.5345 15.0583ZM29.8513 18.2238C28.939 17.7746 28.36 16.5807 28.2225 16.144C28.0851 18.4901 26.9228 20.129 25.5857 21.7097C25.1727 22.1843 24.8521 22.7317 24.64 23.3237C24.7508 22.7268 25.0053 22.1657 25.3815 21.6889C26.6312 20.1747 27.8434 18.2904 27.9309 16.1148C28.0014 14.7929 27.6735 13.4802 26.9895 12.3461C27.2027 12.9607 27.2345 13.6236 27.0808 14.2557C26.9272 14.8878 26.5947 15.4624 26.123 15.911C26.123 15.911 28.4183 13.1448 25.1691 10.312C23.8777 9.23464 22.4614 8.56909 21.7324 8.09488C24.3609 8.95178 25.6481 8.00752 25.6481 8.00752C25.2892 8.28543 24.875 8.48372 24.4332 8.58916C23.9915 8.6946 23.5323 8.70477 23.0863 8.619C23.2695 8.70636 23.4612 8.80203 23.6653 8.91018C25.8814 10.1123 27.8768 12.0924 28.2142 14.8336V14.8128C28.7307 17.5042 29.8805 18.1947 29.8805 18.1947" fill="white"/>
<path d="M8.66069 21.1897C9.05094 21.1444 9.42567 21.0107 9.75626 20.7987C9.90617 20.6729 10.0273 20.5165 10.1114 20.3399C10.1955 20.1634 10.2406 19.9709 10.2436 19.7754C9.76228 19.7961 9.28248 19.7076 8.84023 19.5167C8.39798 19.3258 8.00477 19.0374 7.69009 18.673C7.31122 18.236 7.05535 17.7063 6.9486 17.1381C7.48462 17.5413 8.1444 17.7457 8.81482 17.7163C8.92729 17.7163 9.03977 17.7163 9.16057 17.7163C9.52413 17.6802 9.86826 17.5352 10.1478 17.3003C8.86481 16.4684 7.96502 15.0499 8.76067 12.891C9.39801 11.1647 10.9351 9.87105 12.4806 8.90183C12.993 8.58153 13.2804 8.22379 13.2804 7.92013C13.2804 7.19634 12.2515 7.17554 11.8308 6.67221C11.3434 6.10649 11.6475 5.19551 12.0682 4.64226C11.9472 4.62138 11.8245 4.61163 11.7016 4.61314C11.3582 4.60957 11.0176 4.67555 10.7004 4.8071C10.3833 4.93865 10.0961 5.13304 9.85624 5.37853C9.61588 5.60693 9.44293 5.89684 9.35625 6.21665C9.26957 6.53647 9.27249 6.87391 9.36469 7.19218L9.13974 7.23794C9.00219 7.26263 8.86291 7.27654 8.72318 7.27953H8.6357C7.41099 7.27953 6.86945 6.00665 6.86945 6.00665C6.86945 6.00665 5.59059 7.58735 7.50264 8.83943C7.83172 9.05158 7.97752 9.25541 7.9192 9.46339L7.89004 9.60067L7.75257 9.62562C6.36957 10 5.66974 10.9526 4.81161 12.0383C4.40954 12.5446 3.90225 12.9578 3.32475 13.2494C2.74725 13.5409 2.11328 13.7039 1.46658 13.7271H1.42493C1.42493 13.7271 1.84149 15.0499 3.09119 15.0499H3.14951C3.45214 15.0527 3.74947 14.9705 4.00764 14.8128C4.00764 14.8128 4.22842 17.812 1.98313 18.7438C2.12994 18.9649 2.33014 19.1456 2.56529 19.2692C2.80043 19.3928 3.06295 19.4553 3.32864 19.4509C3.62776 19.469 3.92689 19.4158 4.20139 19.2957C4.47588 19.1756 4.71787 18.9922 4.90742 18.7604C4.89389 19.4683 5.00819 20.1728 5.24484 20.8403C5.54828 21.6446 5.54828 22.5317 5.24484 23.3361C5.42888 23.3816 5.61763 23.4053 5.80721 23.4068C5.92515 23.4079 6.04274 23.3939 6.15712 23.3652C6.42884 23.3009 6.67951 23.1681 6.88517 22.9795C7.09084 22.7909 7.24462 22.5527 7.33184 22.2879C7.33184 22.2879 7.24436 25.1705 10.6102 25.1705H10.6352C10.382 24.6897 10.2518 24.1539 10.2561 23.6106C10.0978 21.4725 8.64403 21.1772 8.64403 21.1772L8.66069 21.1897ZM8.10249 21.6972C6.75281 20.1165 5.60309 18.4775 5.44063 16.1106C5.299 16.5266 4.72413 17.7329 3.81185 18.1905C3.81185 18.1905 4.95741 17.5 5.47812 14.8087V14.8295C5.81971 12.0882 7.81089 10.1082 10.0312 8.90599C10.2353 8.79368 10.4269 8.70216 10.6102 8.61481C10.1584 8.70616 9.69218 8.69881 9.24349 8.59326C8.7948 8.48771 8.3743 8.28646 8.01085 8.00333C8.01085 8.00333 9.29387 8.94759 11.9266 8.09068C11.2101 8.56905 9.79792 9.23461 8.50656 10.312C5.274 13.1448 7.58595 15.911 7.58595 15.911C7.11427 15.4624 6.78178 14.8878 6.62815 14.2557C6.47452 13.6236 6.50622 12.9607 6.71949 12.3461C6.0343 13.4796 5.70629 14.7927 5.77805 16.1148C5.86553 18.2945 7.06524 20.1747 8.32327 21.6889C8.701 22.1653 8.95692 22.7264 9.06892 23.3236C8.8546 22.7318 8.53261 22.1846 8.11915 21.7097" fill="white"/>
<path d="M14.3383 10.6489C14.3924 10.7071 14.4466 10.7737 14.5007 10.8361L14.5382 10.8818L14.684 11.0815L14.7173 11.1273C14.7715 11.2105 14.8256 11.302 14.8798 11.3893C15.0655 11.7605 15.3426 12.0785 15.685 12.3135C16.0275 12.5485 16.4241 12.6928 16.8377 12.7329C17.2501 12.6926 17.6456 12.5486 17.9872 12.3144C18.3288 12.0801 18.6055 11.7633 18.7914 11.3935C18.8455 11.302 18.8997 11.2105 18.958 11.1273L18.983 11.0898C19.033 11.0191 19.083 10.9484 19.1329 10.8818L19.1663 10.8402C19.2204 10.7737 19.2746 10.7071 19.3329 10.6489L19.3579 10.6239C19.6112 10.3583 19.9324 10.167 20.2868 10.0707L20.1202 9.98334L19.437 9.56737L18.7372 9.1514L16.8377 10.1913L14.9631 9.1722L14.2633 9.58817L13.5801 10.0041L13.4052 10.104C13.757 10.189 14.0794 10.3672 14.3383 10.6198L14.3674 10.6489H14.3383ZM16.0962 10.5657H17.6708V11.1106C17.5987 11.041 17.5118 10.9884 17.4167 10.9567C17.3215 10.9251 17.2205 10.9151 17.1209 10.9276V11.7096C17.119 11.9035 17.1648 12.0949 17.2542 12.267H16.4877C16.5831 12.098 16.6346 11.9078 16.6377 11.7138V10.9318C16.5382 10.9193 16.4371 10.9292 16.342 10.9609C16.2468 10.9926 16.16 11.0452 16.0878 11.1148L16.0962 10.5657Z" fill="white"/>
<path d="M16.6836 9.51328V6.33109L14.6549 5.64473L15.1715 8.73541L16.6836 9.51328ZM16.267 7.11312V7.62476L16.167 7.57901C16.0142 7.52756 15.8727 7.44704 15.7505 7.3419C15.6417 7.27323 15.5484 7.18263 15.4767 7.0759C15.405 6.96918 15.3563 6.84867 15.3339 6.7221L16.267 7.11312Z" fill="white"/>
<path d="M18.504 8.73538L19.0372 5.65302L17.0085 6.33937V9.52157L18.504 8.73538ZM17.4459 7.11308L18.3666 6.72623C18.3441 6.8528 18.2955 6.9733 18.2238 7.08003C18.152 7.18676 18.0588 7.27735 17.95 7.34603C17.8278 7.45117 17.6863 7.53169 17.5334 7.58313L17.4376 7.62889L17.4459 7.11308Z" fill="white"/>
<path d="M13.8135 16.8927C13.9938 16.9512 14.1822 16.9807 14.3717 16.98V16.9218C14.3834 16.8849 14.3931 16.8474 14.4009 16.8095C14.4309 16.6433 14.4476 16.475 14.4509 16.3062C14.3373 16.2386 14.245 16.1406 14.1843 16.0233C14.159 15.9536 14.1124 15.8936 14.0511 15.8518C13.9898 15.81 13.9169 15.7885 13.8427 15.7904C13.6582 15.8058 13.4806 15.8673 13.3262 15.9692C13.3007 16.1517 13.3317 16.3376 13.4151 16.5019C13.4985 16.6662 13.6303 16.8011 13.7927 16.8885" fill="white"/>
<path d="M18.2997 15.2038C17.9248 15.6198 17.1833 16.327 17.15 16.3602L17.1041 16.406L14.7755 16.3686C14.7735 16.5608 14.7484 16.7522 14.7006 16.9384V17.0133L17.4707 17.5125C17.7582 17.3128 18.5538 16.7304 18.8621 16.5058C18.6719 16.2147 18.6018 15.8615 18.6663 15.52C18.5328 15.4365 18.4145 15.331 18.3164 15.208" fill="white"/>
<path d="M18.6167 12.4043C18.3928 12.6538 18.1186 12.8533 17.812 12.9895C17.5055 13.1257 17.1735 13.1956 16.838 13.1946C16.7533 13.199 16.6685 13.199 16.5839 13.1946C16.4998 13.1878 16.4163 13.1753 16.3339 13.1572C16.2899 13.3473 16.3059 13.5464 16.3797 13.7271C16.4392 13.8427 16.5216 13.9451 16.6218 14.028C16.722 14.111 16.8381 14.1728 16.9629 14.2096L17.0587 14.247V14.351C17.0703 14.5629 17.1511 14.7651 17.2888 14.9266C17.4265 15.0882 17.6135 15.2002 17.8211 15.2454C17.9419 15.1206 18.0502 15.0083 18.1335 14.9168C18.0593 14.7716 18.0334 14.6066 18.0596 14.4457C18.0858 14.2849 18.1628 14.1366 18.2793 14.0224C18.2456 14.2672 18.2854 14.5164 18.3936 14.7386C18.5019 14.9608 18.6738 15.1458 18.8875 15.2703L19.0041 15.3244L18.9708 15.4492C18.8949 15.692 18.9163 15.9547 19.0305 16.1821C19.1447 16.4094 19.3428 16.5837 19.5831 16.668L19.7373 16.7262L19.6706 16.876C19.5703 17.1014 19.5607 17.3566 19.6437 17.5889C19.7266 17.8212 19.8959 18.0128 20.1164 18.1239H21.8368V16.7512C21.6013 16.7206 21.3821 16.6144 21.2123 16.4485C21.0425 16.2827 20.9313 16.0663 20.8953 15.8319C20.6353 15.7981 20.3989 15.6637 20.2372 15.4575C20.1447 15.3275 20.0916 15.1737 20.0842 15.0144C20.0769 14.8551 20.1155 14.697 20.1955 14.559C20.1994 14.8372 20.3011 15.1052 20.4829 15.3161C20.6327 15.4719 20.834 15.5679 21.0495 15.5865H21.1744V15.7154C21.1853 15.898 21.256 16.0718 21.3757 16.2102C21.4955 16.3485 21.6575 16.4437 21.8368 16.4808V13.6772C21.8531 13.2396 21.9476 12.8086 22.1159 12.4043H18.6167Z" fill="white"/>
<path d="M13.9634 13.6897L13.9135 15.4742L14.1176 15.5034L14.6133 13.7937L14.3633 13.2654L13.9634 13.6897Z" fill="white"/>
<path d="M19.4372 21.8719H19.4872C19.7955 21.9592 19.8746 23.0699 20.4162 23.1697C20.4646 23.1747 20.5135 23.1747 20.562 23.1697C20.6313 23.17 20.6996 23.1531 20.7607 23.1204C20.8218 23.0877 20.8737 23.0403 20.9119 22.9825C20.9119 22.9825 20.6411 22.5665 20.437 22.267C20.1662 21.8885 19.9579 21.4351 19.4497 21.4351H19.4122C19.3169 21.4387 19.2245 21.4689 19.1456 21.5225C18.9772 21.4123 18.7804 21.3531 18.5791 21.3519C18.3475 21.3801 18.1189 21.4288 17.8959 21.4975L16.7712 21.3852C16.6193 21.3492 16.4877 21.2551 16.4046 21.1231V21.094C16.4046 21.0649 16.4046 21.0316 16.4046 21.0025C16.4119 20.7016 16.3164 20.4071 16.134 20.1675C15.9516 19.9279 15.693 19.7574 15.4007 19.6838C15.4007 19.6838 15.4299 19.5091 15.3632 19.4426L15.1133 19.7421L14.2801 19.3261L14.8633 20.0041L14.3384 20.5865C14.3143 20.6097 14.2984 20.6401 14.2932 20.6732C14.2879 20.7062 14.2936 20.74 14.3093 20.7695L14.5217 20.9567L14.7925 20.7945C14.8143 20.7885 14.8373 20.7885 14.8592 20.7945C14.9341 20.7945 15.0466 20.7945 15.1466 20.7945C15.2466 20.7945 15.3507 20.7695 15.3632 20.6697C15.3299 21.0108 15.0133 21.6015 15.2216 22.0674L15.3757 22.421L14.3801 22.2795L13.9219 23.0657C13.8531 23.1693 13.8164 23.2908 13.8164 23.4151C13.8164 23.5394 13.8531 23.661 13.9219 23.7645L14.0968 23.9809C14.218 23.8588 14.3193 23.7184 14.3968 23.5649L14.3176 23.4775C14.2888 23.4499 14.2708 23.4129 14.267 23.3732C14.2631 23.3335 14.2737 23.2938 14.2968 23.2612L14.5884 22.7787L15.7631 23.0532L15.8256 22.9492C15.8576 22.8936 15.9046 22.848 15.9614 22.8178C16.0181 22.7877 16.0822 22.7741 16.1463 22.7787C16.199 22.7747 16.252 22.7747 16.3046 22.7787C16.6133 22.841 16.9271 22.8744 17.2419 22.8785C17.4191 22.8961 17.598 22.8784 17.7682 22.8262C17.9384 22.7741 18.0965 22.6887 18.2333 22.5749C18.6499 23.2071 19.5205 23.307 19.4539 23.6273L19.2248 24.7046C19.3747 24.7046 19.5205 24.7046 19.6413 24.6714L19.858 23.5482C19.883 23.4276 19.9038 23.2612 19.9038 23.2612C19.7413 23.124 19.6008 22.9626 19.4872 22.7829C19.3331 22.4917 19.4164 22.3378 19.2748 21.9509C19.2886 21.9252 19.309 21.9036 19.3339 21.8883C19.3587 21.873 19.3872 21.8644 19.4164 21.8635L19.4372 21.8719ZM15.0174 20.2828C15.0039 20.2823 14.9907 20.2791 14.9785 20.2733C14.9663 20.2675 14.9553 20.2593 14.9464 20.2492C14.9374 20.2391 14.9306 20.2273 14.9264 20.2145C14.9221 20.2017 14.9205 20.1881 14.9216 20.1747C14.9222 20.1612 14.9254 20.148 14.9312 20.1358C14.937 20.1236 14.9452 20.1127 14.9553 20.1037C14.9654 20.0948 14.9773 20.088 14.9901 20.0837C15.0029 20.0795 15.0165 20.0779 15.0299 20.079C15.057 20.079 15.083 20.0898 15.1021 20.1089C15.1213 20.128 15.132 20.1539 15.132 20.1809C15.132 20.208 15.1213 20.2339 15.1021 20.253C15.083 20.2721 15.057 20.2828 15.0299 20.2828" fill="white"/>
<path d="M13.4343 22.8786C13.4343 22.8786 13.8259 22.7164 13.8509 22.6041L13.8009 22.4751C13.7792 22.4394 13.7711 22.3971 13.778 22.3559C13.7848 22.3147 13.8063 22.2773 13.8384 22.2505L14.255 21.9593L14.959 22.0924C14.8797 21.9855 14.8387 21.8552 14.8423 21.7222L14.1716 21.5808L13.5385 21.9635C13.4284 22.045 13.3488 22.161 13.3126 22.293C13.2763 22.4249 13.2855 22.5652 13.3385 22.6914L13.4343 22.8786Z" fill="white"/>
<path d="M18.4039 24.7213H18.8205C18.8205 24.7213 19.1829 23.6647 19.2037 23.6314C18.9345 23.506 18.6717 23.3672 18.4164 23.2154C18.5247 23.3777 18.783 23.5565 18.733 23.698L18.4039 24.7213Z" fill="white"/>
<path d="M21.8366 18.461H11.839V22.2047C11.839 23.7397 12.9512 24.7006 14.5925 24.7006C15.963 24.7006 16.3254 24.7546 16.8378 25.258C16.9973 25.0873 17.191 24.952 17.4063 24.861C17.6216 24.77 17.8537 24.7253 18.0875 24.7297V24.6715L18.4166 23.7106L17.8834 23.1032C17.6689 23.1678 17.4447 23.1945 17.221 23.1823C16.8881 23.1781 16.5562 23.1433 16.2296 23.0783C16.195 23.0744 16.1601 23.0744 16.1255 23.0783C16.0796 23.0783 16.0796 23.0783 16.0671 23.1032L16.0047 23.2072L15.8922 23.3944L15.6756 23.3445L14.7175 23.1199L14.5842 23.3362V23.3611L14.7008 23.4901L14.6508 23.6565C14.5634 23.8602 14.4375 24.0452 14.2801 24.2014L14.0385 24.4593L13.8218 24.1848L13.6594 23.9809C13.5737 23.8686 13.518 23.7364 13.4976 23.5967C13.4772 23.4569 13.4927 23.3143 13.5427 23.1823L13.272 23.2946L13.1512 23.0325L13.0679 22.8453C12.9849 22.6545 12.9698 22.4411 13.0252 22.2406C13.0805 22.0401 13.2029 21.8645 13.372 21.743L14.1426 21.327L14.8758 21.4726C14.8758 21.4019 14.9216 21.1523 14.9424 21.0858H14.9008L14.4842 21.2438L14.0676 20.961C14.0472 20.9408 14.031 20.9169 14.02 20.8905C14.0089 20.864 14.0032 20.8357 14.0032 20.8071C14.0032 20.7784 14.0089 20.7501 14.02 20.7237C14.031 20.6972 14.0472 20.6733 14.0676 20.6531L14.4634 20.0541L13.4594 18.8062L15.0007 19.4385L15.1049 19.3137L15.3132 19.0641L15.5506 19.2888C15.6126 19.3487 15.656 19.4253 15.6756 19.5092C16.0921 19.6756 16.8586 20.1623 16.9253 20.9526L16.6878 21.0483C16.717 21.0878 16.7557 21.1193 16.8003 21.1398L17.9 21.248L18 21.2189C18.1867 21.1491 18.3839 21.1111 18.5832 21.1066C18.7823 21.1079 18.9787 21.1534 19.1581 21.2397C19.2371 21.2112 19.3199 21.1944 19.4038 21.1898H19.458C19.6975 21.211 19.927 21.2954 20.1232 21.4342C20.3193 21.5731 20.475 21.7615 20.5744 21.9801L20.6952 22.1548C20.8993 22.446 21.1701 22.8661 21.1784 22.8869L21.2992 23.0741L21.1493 23.2447C21.0811 23.3335 20.9935 23.4056 20.8931 23.4553C20.7928 23.5051 20.6823 23.5312 20.5702 23.5317C20.5037 23.5379 20.4368 23.5379 20.3703 23.5317C20.2989 23.5033 20.2317 23.4655 20.1703 23.4194C20.1703 23.4776 20.1703 23.5483 20.137 23.6066L19.9454 24.6091C20.4949 24.5004 20.9875 24.1993 21.3342 23.7599C21.681 23.3206 21.8592 22.772 21.8366 22.213V18.461Z" fill="#FCE527"/>
<path d="M11.8389 18.1572H19.6245C19.4689 17.9941 19.3604 17.792 19.3105 17.5723C19.2606 17.3526 19.2713 17.1235 19.3412 16.9093C19.2358 16.8589 19.1378 16.7946 19.0496 16.718C18.7455 16.9426 17.7999 17.6165 17.575 17.787L17.525 17.8203L14.4757 17.2712H14.4133C14.3147 17.2769 14.216 17.2769 14.1175 17.2712C14.1033 17.3369 14.067 17.3958 14.0148 17.4381C13.9625 17.4805 13.8974 17.5038 13.8301 17.5041H13.7801C13.7014 17.4909 13.6311 17.4472 13.5843 17.3826C13.5375 17.318 13.5181 17.2377 13.5301 17.1589V17.0923C13.338 16.953 13.1907 16.7607 13.1064 16.5391C13.022 16.3174 13.0043 16.076 13.0552 15.8444L13.0886 15.807L13.1344 15.7737C13.1344 15.7737 13.1927 15.7321 13.2719 15.6905L13.0511 15.6572C13.0116 15.6501 12.9764 15.6279 12.953 15.5952C12.9297 15.5626 12.92 15.5222 12.9261 15.4825C12.9291 15.4627 12.9361 15.4437 12.9466 15.4267C12.9571 15.4096 12.9709 15.3949 12.9872 15.3832C13.0035 15.3716 13.022 15.3633 13.0415 15.359C13.0611 15.3546 13.0813 15.3542 13.1011 15.3577L13.6301 15.4409L13.6801 13.5857L14.4674 12.7537L14.959 13.7853L14.4216 15.5532L14.8881 15.6281C14.9277 15.6352 14.9628 15.6575 14.9862 15.6901C15.0095 15.7227 15.0192 15.7632 15.0131 15.8028C15.0071 15.8381 14.9887 15.87 14.9612 15.8929C14.9337 15.9158 14.8989 15.9281 14.8631 15.9276H14.8381L14.4591 15.8652V15.8943C14.5012 15.9686 14.5652 16.0282 14.6424 16.0649L16.9668 16.1023L17.5625 15.5158C17.34 15.439 17.1438 15.3011 16.9964 15.1178C16.849 14.9346 16.7565 14.7135 16.7294 14.48C16.44 14.3701 16.2032 14.1545 16.067 13.8769C15.954 13.6139 15.9349 13.3202 16.0129 13.0449C15.646 12.9015 15.3148 12.68 15.0423 12.396H11.5723C11.7358 12.8041 11.826 13.2378 11.8389 13.6772V18.1572Z" fill="#FCE527"/>
<path d="M15.0504 20.0874C15.037 20.0863 15.0234 20.0879 15.0106 20.0921C14.9978 20.0963 14.986 20.1031 14.9759 20.1121C14.9658 20.121 14.9576 20.1319 14.9518 20.1441C14.946 20.1563 14.9428 20.1695 14.9422 20.183C14.9411 20.1964 14.9427 20.2099 14.947 20.2227C14.9512 20.2355 14.958 20.2473 14.967 20.2574C14.9759 20.2675 14.9868 20.2757 14.999 20.2815C15.0112 20.2873 15.0245 20.2905 15.038 20.291C15.065 20.291 15.0909 20.2803 15.1101 20.2612C15.1292 20.2421 15.1399 20.2162 15.1399 20.1892C15.1399 20.1622 15.1292 20.1363 15.1101 20.1172C15.0909 20.0981 15.065 20.0874 15.038 20.0874" fill="#222220"/>
<path d="M21.8365 26.8969L21.2616 26.6764L21.4199 26.0816L21.5949 25.4326C20.8091 25.8346 19.986 26.1592 19.1371 26.4019C18.7206 26.5183 18.4207 26.5724 18.4207 26.5724V27.0133C17.9096 27.0963 17.393 27.1407 16.8752 27.1464H16.8377C16.3199 27.1408 15.8033 27.0963 15.2922 27.0133V26.5724C15.2922 26.5724 14.984 26.5183 14.5757 26.4019C13.7269 26.1594 12.9037 25.8348 12.118 25.4326L12.2888 26.0816L12.4513 26.6764L11.8722 26.8969L11.2307 27.134C12.0932 27.587 12.9937 27.9642 13.9217 28.2613L13.701 28.8603C14.7017 29.2414 15.7669 29.425 16.8377 29.401H16.8627C17.9376 29.4267 19.0073 29.2431 20.0119 28.8603L19.7912 28.2613C20.7165 27.9658 21.6142 27.59 22.4738 27.1381L21.8365 26.8969ZM11.9097 27.1756L12.8553 26.8636L12.5762 25.9526C13.186 26.2567 13.82 26.5099 14.4716 26.7097L14.0134 27.9576C13.2882 27.7663 12.5836 27.5044 11.9097 27.1756ZM16.8377 29.089C15.9193 29.0792 15.0062 28.9491 14.1217 28.7022L14.6841 27.1839C15.3886 27.3594 16.1116 27.4502 16.8377 27.4543H16.8835C17.6056 27.4476 18.3243 27.3554 19.0247 27.1797L19.5704 28.7022C18.683 28.9485 17.767 29.0772 16.846 29.0849L16.8377 29.089ZM19.6787 27.9576L19.2205 26.7097C19.8721 26.51 20.506 26.2567 21.1158 25.9526L20.8367 26.8636L21.7823 27.1756C21.1072 27.5049 20.4012 27.7669 19.6745 27.9576" fill="#222220"/>
<path d="M16.8379 3.19471C17.7806 3.16636 18.7067 3.44686 19.4748 3.99338C19.5996 3.37661 19.8353 2.78752 20.1704 2.25461L19.2248 2.36276L18.7166 1.31451L17.7668 1.8012L16.8379 0.894379L15.9215 1.8012L14.9758 1.31451L14.4843 2.36276L13.5387 2.25461C13.8682 2.78857 14.0982 3.37764 14.2177 3.99338C14.9815 3.45088 15.9009 3.17061 16.8379 3.19471ZM14.4426 2.72882L14.7051 2.75794L14.8176 2.52083L15.1466 1.81784L15.759 2.13398L15.9964 2.25461L16.1839 2.0799L16.8379 1.41019L17.5086 2.0799L17.696 2.26709L17.9335 2.14646L18.5417 1.83032L18.8749 2.53331L18.9874 2.77042L19.2498 2.7413L19.4998 2.71218C19.3989 2.94082 19.3126 3.17563 19.2415 3.41518C18.5008 3.03627 17.6805 2.83866 16.8483 2.83866C16.0161 2.83866 15.1958 3.03627 14.4551 3.41518C14.3836 3.17577 14.2973 2.941 14.1969 2.71218L14.4426 2.72882Z" fill="#222220"/>
<path d="M30.5843 15.4658C32.1006 15.4658 32.6088 13.9267 32.6296 13.8601L32.8004 13.3194H32.2339C31.6421 13.2993 31.0619 13.1505 30.5338 12.8832C30.0057 12.6159 29.5424 12.2367 29.1763 11.772L29.0638 11.6305C28.289 10.6488 27.5558 9.71289 26.2395 9.28444C26.2917 9.23855 26.3474 9.19683 26.4061 9.15965C26.7147 8.98488 26.9819 8.74581 27.1896 8.45869C27.3974 8.17157 27.5407 7.84315 27.61 7.49575C27.6806 6.86133 27.5014 6.22436 27.1101 5.71955L26.6936 5.19958L26.4186 5.82354C26.4186 5.86098 25.9562 6.851 25.0231 6.851H24.9523H24.769C24.7925 6.52634 24.7451 6.20047 24.63 5.89593C24.5149 5.5914 24.3349 5.31547 24.1025 5.08727C23.8242 4.80374 23.4916 4.57915 23.1244 4.42691C22.7572 4.27468 22.3631 4.19793 21.9655 4.20124C21.8163 4.20058 21.6673 4.21171 21.5198 4.23452L20.8824 4.35931L21.274 4.87512C21.5823 5.29109 21.8614 6.01073 21.5323 6.39342C21.3746 6.53044 21.1942 6.63884 20.9991 6.71372C20.5825 6.90923 19.9827 7.18793 19.9827 7.88677C19.9827 8.34018 20.3367 8.81439 20.9741 9.21372C22.8611 10.3992 24.0234 11.6347 24.5274 12.9991C25.3064 15.0789 24.29 16.2978 23.3027 16.9259L22.8611 17.2087L23.2485 17.5623C23.5941 17.8564 24.0214 18.0378 24.4733 18.0823C24.6066 18.0823 24.7315 18.0823 24.8523 18.0823C25.239 18.0838 25.6237 18.0277 25.9937 17.9159C25.9015 18.0769 25.7941 18.2287 25.673 18.3693C25.3959 18.6911 25.0488 18.9454 24.6582 19.1126C24.2676 19.2799 23.8438 19.3558 23.4193 19.3344H23.0486L23.0194 19.7046C23.0178 19.9609 23.0726 20.2144 23.1798 20.4473C23.2871 20.6802 23.4442 20.8867 23.6401 21.0523C23.744 21.1434 23.8604 21.219 23.9859 21.277C23.3704 21.8758 23.0182 22.6943 23.0069 23.5523C23.0173 24.0379 22.9146 24.5192 22.707 24.9583L22.2904 25.5823H23.0319C24.2539 25.5823 25.1897 25.2481 25.8396 24.5798C26.1769 24.2257 26.4278 23.7987 26.5728 23.3319C26.8135 23.5345 27.0991 23.6771 27.4059 23.7478C27.552 23.7816 27.7016 23.7983 27.8516 23.7978C28.0761 23.7971 28.2997 23.7706 28.5181 23.7187L28.9888 23.5939L28.7806 23.153C28.5196 22.4498 28.5196 21.6765 28.7806 20.9733C28.935 20.5139 29.0425 20.04 29.1013 19.559C29.4765 19.7499 29.8925 19.847 30.3135 19.8418C30.6517 19.8469 30.9857 19.7664 31.2843 19.6079C31.583 19.4493 31.8365 19.2178 32.0214 18.935L32.2506 18.5191L31.834 18.3443C30.4385 17.7661 30.1302 16.2146 30.0719 15.3743C30.2092 15.4021 30.3485 15.4188 30.4885 15.4242L30.5843 15.4658ZM31.6882 18.752C31.5417 18.9734 31.3415 19.1544 31.1063 19.278C30.8711 19.4016 30.6084 19.4639 30.3427 19.4592C30.0436 19.4768 29.7446 19.4235 29.4701 19.3035C29.1957 19.1834 28.9537 19.0001 28.7639 18.7686C28.7763 19.4768 28.6606 20.1814 28.4223 20.8485C28.1181 21.6527 28.1181 22.5401 28.4223 23.3443C28.2369 23.3901 28.0467 23.4139 27.8558 23.4151C27.7378 23.4159 27.6203 23.4019 27.5059 23.3735C27.2341 23.3092 26.9835 23.1764 26.7778 22.9877C26.5721 22.7991 26.4184 22.561 26.3311 22.2961C26.3311 22.2961 26.4186 25.1788 23.0528 25.1788H23.0278C23.2831 24.6986 23.4148 24.1625 23.411 23.6189C23.5693 21.4808 25.019 21.1854 25.019 21.1854C24.6276 21.1422 24.2513 21.0098 23.9192 20.7986C23.7693 20.6728 23.6482 20.5164 23.5641 20.3399C23.48 20.1633 23.4349 19.9708 23.4318 19.7753C23.9164 19.799 24.4 19.7116 24.8455 19.5198C25.291 19.328 25.6866 19.0369 26.0021 18.6688C26.3833 18.2327 26.6407 17.7028 26.7477 17.1339C26.2117 17.537 25.5519 17.7415 24.8815 17.7121C24.7732 17.7121 24.6565 17.7121 24.5399 17.7121C24.1777 17.6754 23.8351 17.5304 23.5568 17.2961C24.8398 16.4641 25.7355 15.0457 24.9398 12.8868C24.3025 11.1605 22.7653 9.8668 21.2199 8.89758C20.7075 8.57728 20.4201 8.21955 20.4201 7.91589C20.4201 7.19209 21.449 7.1713 21.8697 6.66797C22.3571 6.10224 22.053 5.19126 21.6281 4.63802C21.7492 4.6172 21.8719 4.60746 21.9947 4.6089C22.3381 4.60532 22.6787 4.6713 22.9959 4.80285C23.3131 4.93441 23.6002 5.1288 23.8401 5.37429C24.08 5.60295 24.2527 5.89287 24.3394 6.21259C24.426 6.53231 24.4233 6.86963 24.3316 7.18793L24.5566 7.23369C24.6941 7.25861 24.8334 7.27252 24.9731 7.27529H25.0648C26.2853 7.27529 26.831 6.00241 26.831 6.00241C26.831 6.00241 28.1265 7.59559 26.2187 8.84351C25.8896 9.05565 25.7438 9.25948 25.8021 9.46747L25.8313 9.60474L25.9687 9.6297C27.3517 10.0041 28.0516 10.9567 28.9097 12.0423C29.3092 12.5441 29.812 12.9542 30.3841 13.2448C30.9562 13.5355 31.5842 13.6999 32.2256 13.727H32.2506C32.2506 13.727 31.834 15.0498 30.5843 15.0498H30.526C30.2233 15.0526 29.926 14.9704 29.6678 14.8127C29.6678 14.8127 29.4471 17.8119 31.6882 18.7437" fill="#222220"/>
<path d="M27.9311 9.46761C28.3968 9.73266 28.8003 10.0944 29.1141 10.5283C29.3504 10.895 29.6894 11.1843 30.0889 11.3603C30.2406 11.411 30.3996 11.4363 30.5596 11.4352C30.8716 11.4343 31.1774 11.3477 31.4434 11.1848C31.7094 11.0219 31.9253 10.789 32.0676 10.5117L32.3092 9.9751L31.7218 9.94182C31.0919 9.82777 30.5201 9.50189 30.1014 9.01836C29.9469 8.85083 29.7596 8.71676 29.551 8.62446C29.3425 8.53216 29.1173 8.48358 28.8892 8.48175C28.5341 8.48787 28.1878 8.59305 27.8894 8.78541L27.3521 9.16395L27.9311 9.46761ZM28.8892 8.87693C29.0632 8.87844 29.2349 8.91622 29.3935 8.98785C29.552 9.05948 29.6938 9.16338 29.8098 9.2929C30.2992 9.84806 30.966 10.217 31.6968 10.337C31.586 10.5424 31.422 10.7144 31.222 10.8351C31.022 10.9558 30.7933 11.0208 30.5596 11.0233C30.4419 11.0236 30.325 11.0039 30.2139 10.9651C29.5432 10.7405 29.3016 9.71719 28.131 9.10571C28.3598 8.95831 28.6253 8.87764 28.8975 8.87277" fill="#222220"/>
<path d="M28.1974 14.8128C27.8559 12.0716 25.8647 10.0915 23.6485 8.88937C23.4444 8.78122 23.2528 8.68554 23.0695 8.59819C23.522 8.68989 23.9889 8.68272 24.4383 8.57717C24.8878 8.47162 25.309 8.27019 25.6731 7.98671C25.6731 7.98671 24.39 8.93097 21.7573 8.07406C22.4863 8.54411 23.8985 9.20967 25.194 10.2912C28.4224 13.124 26.1146 15.8902 26.1146 15.8902C26.5863 15.4416 26.9188 14.867 27.0724 14.2349C27.226 13.6028 27.1943 12.9399 26.9811 12.3253C27.6648 13.4594 27.9927 14.7721 27.9225 16.094C27.835 18.2737 26.6353 20.1539 25.3731 21.6681C24.9969 22.1449 24.7424 22.706 24.6316 23.3028C24.8485 22.7176 25.1719 22.1774 25.5856 21.7097C26.9352 20.129 28.085 18.49 28.2433 16.1231C28.3849 16.5391 28.9598 17.7454 29.872 18.203C29.872 18.203 28.7223 17.5125 28.2058 14.8212" fill="#222220"/>
<path d="M11.0059 24.9584C10.8038 24.5331 10.6972 24.0689 10.6934 23.5982C10.6821 22.7401 10.33 21.9216 9.71452 21.3228C9.8401 21.2651 9.95658 21.1894 10.0603 21.0982C10.2566 20.9329 10.4141 20.7265 10.5214 20.4935C10.6287 20.2606 10.6831 20.0068 10.681 19.7504L10.656 19.3802H10.281C9.85727 19.4009 9.43434 19.3248 9.04451 19.1575C8.65467 18.9903 8.30823 18.7364 8.03159 18.4151C7.89714 18.2705 7.77715 18.113 7.67334 17.9451C8.04201 18.0568 8.42531 18.1128 8.81057 18.1115C8.93137 18.1115 9.05634 18.1115 9.18964 18.1115C9.64178 18.0653 10.069 17.8825 10.4144 17.5873L10.8018 17.2338L10.3602 16.9509C9.37293 16.3186 8.36067 15.1206 9.13549 13.0241C9.63953 11.6597 10.8018 10.4243 12.6888 9.23876C13.3262 8.82279 13.6761 8.36106 13.6761 7.91181C13.6761 7.21297 13.0929 6.93843 12.6638 6.73876C12.4686 6.66411 12.2881 6.55569 12.1306 6.41846C11.7974 6.03577 12.0764 5.2995 12.3847 4.90016L12.7804 4.38435L12.1389 4.25956C11.9929 4.23684 11.8452 4.22572 11.6974 4.22628C11.2998 4.22273 10.9056 4.29937 10.5384 4.45162C10.1712 4.60387 9.83852 4.82859 9.56039 5.11231C9.33618 5.34088 9.16336 5.61458 9.05345 5.91513C8.94355 6.21567 8.89909 6.53617 8.92304 6.85524H8.73975H8.6731C7.73583 6.85524 7.29426 5.86522 7.2776 5.82778L7.01516 5.20798L6.5986 5.72795C6.21003 6.23396 6.03241 6.87039 6.10288 7.50415C6.17189 7.85165 6.31516 8.18018 6.52292 8.46733C6.73069 8.75449 6.99805 8.9935 7.30676 9.16805C7.36568 9.20494 7.42142 9.24668 7.47339 9.29284C6.15704 9.70881 5.42388 10.6572 4.64907 11.6389L4.53659 11.7804C4.17007 12.2456 3.70611 12.6251 3.17721 12.8924C2.64832 13.1597 2.06728 13.3083 1.47482 13.3278L0.883301 13.3111L1.05826 13.8519C1.05826 13.9185 1.58313 15.4576 3.09944 15.4576H3.17442C3.31437 15.4519 3.45366 15.4352 3.59099 15.4076C3.5285 16.2396 3.22024 17.7995 1.82474 18.3777L1.40817 18.5524L1.63729 18.9684C1.82207 19.2526 2.0761 19.4852 2.37556 19.6446C2.67502 19.8039 3.0101 19.8847 3.34938 19.8794C3.769 19.8837 4.18345 19.7866 4.55742 19.5965C4.61595 20.0776 4.72343 20.5515 4.87818 21.0108C5.13913 21.714 5.13913 22.4873 4.87818 23.1905L4.66989 23.6314L5.14478 23.7562C5.36316 23.8081 5.58681 23.8346 5.81129 23.8353C5.9613 23.836 6.11089 23.8192 6.25701 23.7854C6.56392 23.7149 6.84954 23.5723 7.09015 23.3694C7.23384 23.8358 7.4833 24.2628 7.81914 24.6173C8.46898 25.2856 9.40487 25.6198 10.6268 25.6198H11.3683L11.0059 24.9584ZM10.6476 25.1872C7.28177 25.1872 7.36925 22.3045 7.36925 22.3045C7.28203 22.5694 7.12824 22.8075 6.92258 22.9961C6.71691 23.1848 6.46625 23.3176 6.19453 23.3819C6.08014 23.4106 5.96255 23.4245 5.84461 23.4235C5.65502 23.4221 5.46626 23.3983 5.28225 23.3527C5.58569 22.5484 5.58569 21.6613 5.28225 20.8569C5.04559 20.1895 4.93129 19.4849 4.94483 18.777C4.75527 19.0088 4.51328 19.1923 4.23879 19.3123C3.9643 19.4324 3.66516 19.4856 3.36604 19.4675C3.10035 19.4719 2.83783 19.4094 2.60269 19.2859C2.36754 19.1623 2.16734 18.9816 2.02053 18.7604C4.26166 17.8286 4.04504 14.8294 4.04504 14.8294C3.78687 14.9871 3.48955 15.0693 3.18691 15.0665H3.0911C1.8414 15.0665 1.42484 13.7438 1.42484 13.7438H1.44983C2.10038 13.7214 2.73822 13.5577 3.31883 13.2638C3.89945 12.97 4.40887 12.5531 4.81153 12.0424C5.66549 10.9567 6.36948 10.0042 7.75249 9.62978L7.88995 9.60482L7.91911 9.46755C7.9566 9.2554 7.81081 9.05157 7.50255 8.84359C5.59467 7.59567 6.89019 6.00249 6.89019 6.00249C6.89019 6.00249 7.43173 7.27537 8.65644 7.27537H8.74392C8.88365 7.27236 9.02292 7.25845 9.16048 7.23377L9.38543 7.18801C9.29323 6.86974 9.29031 6.5323 9.37699 6.21249C9.46367 5.89268 9.63662 5.60277 9.87698 5.37437C10.1168 5.12888 10.404 4.93449 10.7212 4.80293C11.0383 4.67138 11.3789 4.6054 11.7224 4.60898C11.8452 4.60744 11.9679 4.61719 12.0889 4.6381C11.6724 5.18718 11.3641 6.10232 11.8515 6.66805C12.2681 7.15474 13.3012 7.17554 13.3012 7.91597C13.3012 8.22379 13.0137 8.57736 12.5013 8.89766C10.9559 9.87104 9.42292 11.1606 8.78141 12.8868C7.98576 15.0416 8.88555 16.4725 10.1686 17.2962C9.88901 17.531 9.54487 17.676 9.18131 17.7121C9.06051 17.7121 8.94803 17.7121 8.83556 17.7121C8.16514 17.7415 7.50536 17.5371 6.96934 17.1339C7.07609 17.7021 7.33196 18.2318 7.71083 18.6689C8.02551 19.0332 8.41872 19.3216 8.86097 19.5126C9.30322 19.7035 9.78303 19.7919 10.2644 19.7712C10.2594 19.969 10.2113 20.1634 10.1235 20.3408C10.0358 20.5182 9.91043 20.6744 9.75617 20.7987C9.42289 21.0219 9.04205 21.1643 8.64394 21.2146C8.64394 21.2146 10.0936 21.51 10.2561 23.6481C10.2517 24.1913 10.3819 24.7272 10.6351 25.208L10.6476 25.1872Z" fill="#222220"/>
<path d="M3.13276 11.4267C3.29273 11.4279 3.45178 11.4026 3.60348 11.3518C4.00313 11.1761 4.34214 10.8867 4.57824 10.5199C4.89211 10.0859 5.29553 9.72421 5.76129 9.45916L6.34449 9.14718L5.80295 8.76864C5.50468 8.57608 5.15832 8.47088 4.80319 8.46498C4.57511 8.46682 4.34984 8.51539 4.14133 8.60769C3.93282 8.69999 3.7455 8.83406 3.59098 9.00159C3.17226 9.48512 2.60043 9.811 1.97054 9.92505L1.38318 9.98328L1.62479 10.5199C1.7676 10.7964 1.9838 11.0285 2.24975 11.1906C2.5157 11.3527 2.82116 11.4387 3.13276 11.4392V11.4267ZM3.87841 9.30525C3.99488 9.17522 4.13735 9.07101 4.29664 8.99936C4.45593 8.92771 4.62849 8.89021 4.80319 8.88927C5.08125 8.88673 5.35431 8.96319 5.5905 9.10974C4.41162 9.73786 4.17001 10.7445 3.50767 10.9691C3.39798 11.0079 3.28244 11.0276 3.16608 11.0274C2.93232 11.0253 2.70341 10.9605 2.50334 10.8397C2.30327 10.719 2.13939 10.5467 2.02886 10.341C2.75823 10.2201 3.42337 9.85126 3.91174 9.29693" fill="#222220"/>
<path d="M5.77792 16.1148C5.70615 14.7927 6.03417 13.4796 6.71936 12.3461C6.50609 12.9607 6.47438 13.6236 6.62802 14.2557C6.78165 14.8878 7.11414 15.4624 7.58582 15.911C7.58582 15.911 5.27387 13.1447 8.50643 10.312C9.79778 9.2346 11.2099 8.56904 11.9389 8.09483C9.3104 8.95174 8.02321 8.00748 8.02321 8.00748C8.38666 8.29061 8.80717 8.49186 9.25585 8.59741C9.70454 8.70296 10.1708 8.71031 10.6226 8.61896C10.4393 8.70631 10.2477 8.80199 10.0436 8.91014C7.82326 10.1123 5.83207 12.0923 5.49049 14.8336V14.8128C4.97394 17.5041 3.82422 18.1947 3.82422 18.1947C4.7365 17.7454 5.31136 16.5516 5.45299 16.1148C5.60712 18.4817 6.76101 20.1206 8.11486 21.7013C8.52839 22.1762 8.85039 22.7234 9.06463 23.3153C8.95262 22.718 8.6967 22.1569 8.31897 21.6805C7.06927 20.1664 5.86123 18.282 5.77375 16.1065" fill="#222220"/>
<path d="M16.0879 10.5699V11.1149C16.16 11.0452 16.2468 10.9927 16.342 10.961C16.4372 10.9293 16.5382 10.9193 16.6378 10.9318V11.7139C16.6347 11.9079 16.5832 12.0981 16.4878 12.2671H17.2543C17.1597 12.0977 17.1082 11.9078 17.1043 11.7139V10.9318C17.2038 10.9193 17.3049 10.9293 17.4001 10.961C17.4952 10.9927 17.5821 11.0452 17.6542 11.1149V10.5699H16.0879Z" fill="#222220"/>
<path d="M15.7505 7.34613C15.8727 7.45128 16.0142 7.53179 16.1671 7.58324L16.267 7.629V7.11319L15.3464 6.72633C15.3689 6.8529 15.4175 6.97341 15.4892 7.08014C15.5609 7.18686 15.6542 7.27746 15.763 7.34613" fill="#222220"/>
<path d="M17.9417 7.34613C18.0507 7.27766 18.144 7.18711 18.2158 7.08035C18.2875 6.97359 18.3361 6.85299 18.3582 6.72633L17.4376 7.11319V7.62484L17.5334 7.57908C17.6866 7.52822 17.8281 7.44764 17.95 7.34197" fill="#222220"/>
<path d="M19.6038 5.26204C19.6038 4.48417 18.2958 3.78534 16.8503 3.78534C15.4048 3.78534 14.0968 4.48417 14.0968 5.26204L14.1259 5.45339L14.705 8.78118L14.1259 9.11812L12.6138 9.98334C12.6138 9.98334 12.2764 10.1581 12.1181 10.262C11.5474 10.678 11.4266 11.2354 11.7557 11.4725C11.7955 11.1981 11.9352 10.948 12.1481 10.7699C12.3609 10.5919 12.632 10.4985 12.9096 10.5075C13.146 10.5138 13.3775 10.5759 13.5853 10.6887C13.7931 10.8015 13.9712 10.9618 14.1051 11.1564C14.1867 11.2569 14.2618 11.3625 14.3301 11.4725C14.4175 11.614 14.505 11.7387 14.5883 11.8594H10.7393C11.0638 12.4182 11.2534 13.0449 11.2933 13.6897V22.213C11.2933 24.2928 12.8846 25.2662 14.6258 25.2662C15.9547 25.2662 16.1338 25.2038 16.8711 25.9359C17.6001 25.2038 17.7792 25.2662 19.1122 25.2662C20.8327 25.2662 22.424 24.2803 22.424 22.213V13.6772C22.4638 13.0324 22.6535 12.4058 22.978 11.8469H19.0914C19.1789 11.7263 19.2664 11.6015 19.3497 11.46C19.4189 11.3507 19.494 11.2452 19.5746 11.1439C19.7088 10.9495 19.887 10.7894 20.0947 10.6767C20.3024 10.5639 20.5339 10.5017 20.7702 10.495C21.0475 10.4869 21.3181 10.5807 21.5308 10.7586C21.7435 10.9364 21.8834 11.186 21.9241 11.46C22.2573 11.2229 22.1365 10.6281 21.5617 10.2496C21.42 10.1414 21.0743 9.98334 21.0743 9.98334L19.5746 9.1098L18.9956 8.77286L19.5746 5.44507L19.6038 5.26204ZM14.655 5.64474L16.6837 6.3311V9.51329L15.1715 8.73542L14.655 5.64474ZM15.0716 12.4043C15.344 12.6884 15.6753 12.9099 16.0422 13.0532C15.9642 13.3285 15.9833 13.6223 16.0963 13.8852C16.2321 14.1631 16.469 14.3788 16.7586 14.4883C16.7857 14.7218 16.8783 14.9429 17.0257 15.1261C17.1731 15.3094 17.3693 15.4473 17.5918 15.5241L16.9836 16.0982L14.6591 16.0607C14.582 16.024 14.518 15.9644 14.4759 15.8902V15.861L14.8549 15.9234H14.8799C14.9157 15.9239 14.9505 15.9116 14.978 15.8887C15.0055 15.8659 15.0239 15.8339 15.0299 15.7986C15.036 15.759 15.0263 15.7186 15.003 15.6859C14.9796 15.6533 14.9444 15.6311 14.9049 15.6239L14.4384 15.5491L14.9549 13.7645L14.4634 12.7329L13.6761 13.5649L13.6261 15.4201L13.0887 15.3369C13.069 15.3334 13.0487 15.3338 13.0292 15.3382C13.0096 15.3425 12.9911 15.3508 12.9748 15.3624C12.9585 15.3741 12.9447 15.3888 12.9342 15.4059C12.9237 15.4229 12.9168 15.4419 12.9137 15.4617C12.9077 15.5013 12.9173 15.5418 12.9407 15.5744C12.964 15.607 12.9992 15.6293 13.0387 15.6364L13.2595 15.6697C13.1803 15.7155 13.1262 15.7487 13.122 15.7571L13.0887 15.807V15.861C13.0377 16.0926 13.0555 16.334 13.1398 16.5557C13.2242 16.7774 13.3714 16.9696 13.5636 17.109V17.1755C13.5515 17.2543 13.571 17.3347 13.6177 17.3993C13.6645 17.4639 13.7348 17.5075 13.8135 17.5208H13.8635C13.9308 17.5204 13.996 17.4971 14.0482 17.4548C14.1005 17.4124 14.1367 17.3535 14.1509 17.2878C14.2494 17.2936 14.3482 17.2936 14.4467 17.2878H14.5092L17.5585 17.8369L17.6084 17.8036C17.8501 17.6331 18.779 16.9717 19.0831 16.7346C19.1712 16.8112 19.2693 16.8755 19.3747 16.9259C19.3047 17.1401 19.2941 17.3692 19.344 17.5889C19.3938 17.8086 19.5023 18.0107 19.658 18.1739H11.839V13.6772C11.8217 13.2398 11.7272 12.8089 11.5599 12.4043H15.0716ZM18.8207 16.5016C18.5124 16.7304 17.7168 17.3086 17.4293 17.5083L14.6591 17.0091V16.9343C14.7068 16.748 14.732 16.5566 14.7341 16.3644L17.0627 16.4018L17.1086 16.3561C17.1419 16.3228 17.8834 15.6073 18.2583 15.1996C18.3566 15.3225 18.4749 15.428 18.6082 15.5116C18.5437 15.8532 18.6139 16.2064 18.804 16.4975L18.8207 16.5016ZM14.2051 16.0233C14.2658 16.1406 14.3581 16.2385 14.4717 16.3061C14.4682 16.475 14.4515 16.6432 14.4217 16.8095C14.4217 16.8469 14.4217 16.8843 14.3925 16.9218V16.98C14.203 16.9806 14.0146 16.9512 13.8343 16.8927C13.6719 16.8053 13.5402 16.6704 13.4568 16.506C13.3734 16.3417 13.3423 16.1558 13.3678 15.9734C13.5173 15.879 13.6873 15.822 13.8635 15.807C13.9371 15.8054 14.0094 15.8271 14.07 15.8689C14.1306 15.9107 14.1764 15.9706 14.2009 16.0399L14.2051 16.0233ZM13.9218 15.47L13.9677 13.6855L14.3842 13.2695L14.6342 13.7937L14.1384 15.5033L13.9218 15.47ZM18.8207 24.713H18.4041L18.7332 23.7105C18.7832 23.569 18.5249 23.386 18.4166 23.2238C18.6717 23.3758 18.9345 23.5146 19.2039 23.6397C19.2039 23.673 18.8207 24.7296 18.8207 24.7296V24.713ZM19.8579 23.5649L19.6413 24.688C19.5038 24.688 19.358 24.7171 19.2247 24.7213L19.4538 23.6439C19.5205 23.3236 18.6582 23.2279 18.2333 22.5915C18.0966 22.7055 17.9385 22.7911 17.7683 22.8432C17.598 22.8953 17.419 22.913 17.2419 22.8952C16.927 22.891 16.6132 22.8576 16.3046 22.7953C16.2519 22.7912 16.199 22.7912 16.1463 22.7953C16.0822 22.7907 16.0181 22.8043 15.9613 22.8345C15.9046 22.8646 15.8575 22.9102 15.8255 22.9659L15.7631 23.0699L14.5883 22.7953L14.2967 23.2778C14.2745 23.3107 14.2644 23.3503 14.2682 23.3897C14.272 23.4292 14.2894 23.4661 14.3176 23.4942L14.3967 23.5815C14.3192 23.735 14.218 23.8754 14.0968 23.9975L13.9218 23.7645C13.853 23.6609 13.8164 23.5394 13.8164 23.4151C13.8164 23.2908 13.853 23.1693 13.9218 23.0657L14.3884 22.2795L15.384 22.4209L15.2298 22.0674C15.0216 21.6015 15.3382 21.0108 15.3715 20.6697C15.3715 20.7737 15.2632 20.7945 15.1549 20.7945C15.0466 20.7945 14.9424 20.7945 14.8674 20.7945C14.8457 20.7882 14.8226 20.7882 14.8008 20.7945L14.53 20.9567L14.3384 20.7695C14.3227 20.74 14.317 20.7062 14.3223 20.6731C14.3276 20.6401 14.3434 20.6097 14.3676 20.5865L14.8591 20.0333L14.2759 19.3552L15.109 19.7712L15.359 19.4717C15.4256 19.5382 15.3965 19.713 15.3965 19.713C15.6888 19.7865 15.9474 19.957 16.1298 20.1966C16.3122 20.4363 16.4076 20.7307 16.4004 21.0316C16.4004 21.0607 16.4004 21.0898 16.4004 21.1231V21.1522C16.4835 21.2842 16.6151 21.3783 16.767 21.4143L17.8917 21.5266C18.1147 21.458 18.3433 21.4093 18.5749 21.381C18.7763 21.382 18.9731 21.4412 19.1414 21.5516C19.2202 21.4978 19.3127 21.4675 19.408 21.4642H19.4455C19.9495 21.4642 20.162 21.9218 20.4328 22.2962C20.6369 22.5832 20.9077 23.0116 20.9077 23.0116C20.8695 23.0694 20.8176 23.1168 20.7565 23.1495C20.6954 23.1822 20.6271 23.1991 20.5577 23.1988C20.5093 23.2037 20.4604 23.2037 20.4119 23.1988C19.8704 23.099 19.7913 21.9883 19.483 21.901H19.433C19.4038 21.9019 19.3753 21.9104 19.3505 21.9257C19.3256 21.9411 19.3052 21.9627 19.2914 21.9883C19.433 22.3669 19.3497 22.5208 19.5038 22.8203C19.6174 23.0001 19.7579 23.1614 19.9204 23.2986C19.9204 23.2986 19.8996 23.4609 19.8746 23.5857L19.8579 23.5649ZM13.8052 22.4875L13.8552 22.6165C13.8219 22.7288 13.4386 22.891 13.4386 22.891L13.3553 22.708C13.3022 22.5818 13.2931 22.4415 13.3294 22.3095C13.3656 22.1775 13.4452 22.0615 13.5552 21.98L14.1884 21.5973L14.8591 21.7387C14.8554 21.8717 14.8965 22.0021 14.9757 22.109L14.2717 21.9759L13.8552 22.267C13.8231 22.2938 13.8016 22.3312 13.7947 22.3724C13.7879 22.4136 13.796 22.4559 13.8177 22.4917L13.8052 22.4875ZM19.9745 24.6131L20.1703 23.6065C20.1703 23.5482 20.1912 23.4775 20.1995 23.4193C20.2557 23.4435 20.3144 23.4616 20.3744 23.4734C20.441 23.4796 20.5079 23.4796 20.5744 23.4734C20.6865 23.4729 20.7969 23.4468 20.8973 23.397C20.9977 23.3473 21.0853 23.2752 21.1534 23.1863L21.3034 23.0158L21.1826 22.8286C21.1826 22.8286 20.9035 22.3877 20.6994 22.0965L20.5827 21.9218C20.4834 21.7031 20.3277 21.5148 20.1315 21.3759C19.9354 21.2371 19.7058 21.1527 19.4663 21.1314H19.4122C19.3282 21.1359 19.2454 21.1527 19.1664 21.1813C18.9871 21.0949 18.7907 21.0494 18.5915 21.0482C18.3922 21.0528 18.1951 21.0908 18.0083 21.1605L17.9084 21.1897L16.8086 21.0815C16.7636 21.0596 16.7249 21.0267 16.6962 20.9858L16.9336 20.8902C16.867 20.0998 16.1005 19.6131 15.6839 19.4467C15.665 19.3613 15.6216 19.2832 15.5589 19.2221L15.3215 18.9975L15.1132 19.2471L15.0091 19.3719L13.4678 18.7396L14.4675 19.9875L14.0718 20.5865C14.0514 20.6066 14.0352 20.6306 14.0241 20.657C14.0131 20.6834 14.0074 20.7118 14.0074 20.7404C14.0074 20.769 14.0131 20.7974 14.0241 20.8238C14.0352 20.8502 14.0514 20.8742 14.0718 20.8943L14.4884 21.1772L14.9049 21.0191H14.9466C14.9466 21.0815 14.9008 21.3353 14.8799 21.406L14.1468 21.2604L13.3761 21.6764C13.1971 21.8025 13.0696 21.9888 13.0168 22.2011C12.9641 22.4135 12.9896 22.6377 13.0887 22.8328L13.1762 23.0199L13.297 23.282L13.5677 23.1697C13.5177 23.3018 13.5022 23.4444 13.5226 23.5841C13.543 23.7238 13.5987 23.8561 13.6844 23.9684L13.8468 24.1722L14.0635 24.4467L14.3051 24.1888C14.4629 24.0329 14.5888 23.8478 14.6758 23.6439L14.7258 23.4775L14.6092 23.3486V23.3236L14.7425 23.1073L15.7006 23.3319L15.9172 23.3818L16.0338 23.1905L16.0963 23.0865C16.0963 23.0657 16.0963 23.0615 16.1546 23.0615H16.2588C16.5853 23.1266 16.9172 23.1614 17.2502 23.1655C17.4739 23.1778 17.698 23.1511 17.9125 23.0865L18.4166 23.7105L18.0875 24.6797V24.7379C17.8537 24.7335 17.6217 24.7782 17.4063 24.8693C17.191 24.9603 16.9973 25.0955 16.8378 25.2662C16.3254 24.7587 15.9672 24.7088 14.5925 24.7088C12.9512 24.7088 11.839 23.7479 11.839 22.213V18.4692H21.8366V22.213C21.8595 22.7707 21.6825 23.3184 21.3374 23.7575C20.9923 24.1967 20.5017 24.4986 19.9537 24.609L19.9745 24.6131ZM22.1157 12.4043C21.9473 12.8085 21.8527 13.2397 21.8366 13.6772V16.4767C21.6594 16.4391 21.4992 16.3449 21.3805 16.2083C21.2617 16.0717 21.1908 15.9001 21.1784 15.7196V15.5907H21.0535C20.838 15.5721 20.6367 15.476 20.4869 15.3203C20.3027 15.1089 20.1994 14.8392 20.1953 14.559C20.1079 14.7016 20.0656 14.8671 20.0737 15.0341C20.0819 15.201 20.1402 15.3616 20.2411 15.495C20.4029 15.7012 20.6392 15.8356 20.8993 15.8694C20.935 16.1032 21.0457 16.3191 21.2147 16.4849C21.3836 16.6506 21.6018 16.7572 21.8366 16.7887V18.1614H20.1162C19.8957 18.0502 19.7265 17.8587 19.6435 17.6264C19.5605 17.3941 19.5702 17.1388 19.6705 16.9135L19.7371 16.7637L19.583 16.7055C19.3427 16.6211 19.1445 16.4469 19.0303 16.2196C18.9161 15.9922 18.8947 15.7295 18.9706 15.4867L19.0039 15.3619L18.8873 15.3078C18.6736 15.1833 18.5017 14.9982 18.3935 14.7761C18.2852 14.5539 18.2454 14.3046 18.2791 14.0599C18.1626 14.174 18.0857 14.3223 18.0594 14.4832C18.0332 14.6441 18.0591 14.8091 18.1333 14.9542C18.05 15.0457 17.9417 15.1622 17.8209 15.2828C17.6127 15.2374 17.4252 15.1248 17.2874 14.9625C17.1496 14.8001 17.0692 14.5969 17.0586 14.3843V14.2679L16.9628 14.2304C16.8362 14.191 16.7191 14.1259 16.6187 14.0393C16.5184 13.9527 16.437 13.8465 16.3796 13.7271C16.2989 13.5348 16.2843 13.3213 16.3379 13.1198C16.4202 13.1381 16.5038 13.1507 16.5879 13.1572C16.6725 13.1616 16.7573 13.1616 16.842 13.1572C17.1754 13.1565 17.5049 13.0857 17.8092 12.9495C18.1135 12.8134 18.3857 12.6149 18.6082 12.3669L22.1157 12.4043ZM19.4288 9.56737L20.112 9.98334L20.2828 10.0832C19.9285 10.1797 19.6073 10.371 19.3539 10.6364L19.3372 10.6489C19.2789 10.7113 19.2247 10.7737 19.1706 10.8402L19.1372 10.8818C19.0845 10.9484 19.0345 11.0177 18.9873 11.0898L18.9623 11.1273C18.904 11.2105 18.8498 11.302 18.7957 11.3935C18.6094 11.7639 18.3321 12.0811 17.9897 12.3153C17.6473 12.5496 17.251 12.6933 16.8378 12.7329C16.4261 12.6919 16.0315 12.5476 15.6906 12.3134C15.3498 12.0792 15.0738 11.7628 14.8883 11.3935C14.8341 11.302 14.78 11.2146 14.7258 11.1314L14.6925 11.0857L14.5467 10.886L14.5092 10.8402C14.455 10.7737 14.4009 10.7113 14.3467 10.6531L14.3384 10.6198C14.0846 10.3557 13.7634 10.1658 13.4094 10.0707L13.5844 9.97086L14.2676 9.55489L14.9674 9.13892L16.8378 10.1913L18.7123 9.17219L19.4288 9.56737ZM18.5041 8.73542L17.0086 9.52161V6.3311L19.0373 5.64474L18.5041 8.73542ZM16.8378 5.99L14.6175 5.11229C14.8049 4.6672 15.6797 4.28035 16.8378 4.28035C17.9959 4.28035 18.8706 4.66304 19.0623 5.11229L16.8378 5.99Z" fill="#222220"/>
</svg>
