<svg width="38" height="38" viewBox="0 0 38 38" fill="none" xmlns="http://www.w3.org/2000/svg">
<path d="M16.8737 24.015H14.2641L15.8951 13.9919H18.5049L16.8737 24.015ZM12.0688 13.9919L9.58104 20.8859L9.28665 19.4013L9.28692 19.4019L8.40885 14.8944C8.40885 14.8944 8.30268 13.9919 7.17098 13.9919H3.05815L3.00989 14.1616C3.00989 14.1616 4.2676 14.4233 5.73953 15.3073L8.00668 24.0153H10.7256L14.8773 13.9919H12.0688ZM32.5941 24.015H34.9902L32.9011 13.9916H30.8034C29.8347 13.9916 29.5988 14.7386 29.5988 14.7386L25.7069 24.015H28.4271L28.9711 22.5262H32.2885L32.5941 24.015ZM29.7227 20.4695L31.0938 16.7186L31.8651 20.4695H29.7227ZM25.9109 16.4022L26.2833 14.2498C26.2833 14.2498 25.1342 13.8128 23.9363 13.8128C22.6413 13.8128 19.566 14.3788 19.566 17.131C19.566 19.7204 23.1754 19.7526 23.1754 21.1127C23.1754 22.4728 19.9379 22.2291 18.8695 21.3714L18.4815 23.6219C18.4815 23.6219 19.6468 24.1879 21.427 24.1879C23.2078 24.1879 25.8943 23.2659 25.8943 20.7564C25.8943 18.1503 22.2525 17.9077 22.2525 16.7746C22.2528 15.6413 24.7942 15.7869 25.9109 16.4022Z" fill="#2566AF"/>
<path d="M9.28691 19.4016L8.40885 14.8941C8.40885 14.8941 8.30268 13.9917 7.17098 13.9917H3.05815L3.00989 14.1614C3.00989 14.1614 4.98667 14.5711 6.88276 16.106C8.69573 17.5731 9.28691 19.4016 9.28691 19.4016Z" fill="#E6A540"/>
</svg>
