<?xml version="1.0" encoding="utf-8"?><svg xmlns="http://www.w3.org/2000/svg" xmlns:xlink="http://www.w3.org/1999/xlink"><symbol viewBox="0 0 25 13" id="arrow-right" xmlns="http://www.w3.org/2000/svg"><path d="M24.714 5.809l-.001-.001L19.61.73a.977.977 0 00-1.378 1.384l3.426 3.41H.977a.977.977 0 100 1.953h20.681l-3.426 3.409a.977.977 0 101.378 1.384l5.103-5.078a.977.977 0 000-1.383z"/></symbol><symbol viewBox="0 0 30 30" id="bitcoin" xmlns="http://www.w3.org/2000/svg"><path d="M30 15c0 8.284-6.716 15-15 15-8.284 0-15-6.716-15-15C0 6.716 6.716 0 15 0c8.284 0 15 6.716 15 15z"/><path d="M20.118 19.117a3.41 3.41 0 01-.573 1.013 2.489 2.489 0 01-.77.625 2.96 2.96 0 01-.981.282 5.337 5.337 0 01-1.14.017 10.78 10.78 0 01-1.3-.209l-.596 2.222-1.34-.36.586-2.186a44.352 44.352 0 01-1.06-.294l-.589 2.195-1.34-.36.595-2.22a24.72 24.72 0 01-.47-.13 41.806 41.806 0 00-.478-.132l-1.741-.467.697-1.521.966.259c.29.077.498-.025.624-.31l.938-3.499.14.038a.916.916 0 00-.138-.046l.67-2.5c.03-.415-.176-.681-.616-.799l-.967-.26.383-1.427 1.843.504c.372.1.654.172.847.216l.588-2.194 1.342.36-.577 2.15c.48.116.836.205 1.067.267l.572-2.133 1.34.359-.587 2.195a8.2 8.2 0 011.167.521c.329.186.622.404.878.656s.434.543.536.872c.103.33.12.689.052 1.082-.18 1.084-.76 1.732-1.744 1.94.637.345 1.065.78 1.284 1.305.22.526.185 1.182-.108 1.97zm-4.85-7.46zm0 0l-.717 2.674.298.085a9.686 9.686 0 00.845.207 3.8 3.8 0 00.493.08 9.02 9.02 0 00.474.025 1.5 1.5 0 00.466-.048c.128-.037.257-.086.385-.148a.866.866 0 00.325-.272c.088-.12.153-.262.197-.424.051-.191.06-.37.027-.538a1.252 1.252 0 00-.167-.437 1.344 1.344 0 00-.352-.356 3.089 3.089 0 00-.44-.272 4.973 4.973 0 00-.517-.213 5.257 5.257 0 00-.5-.157 66.491 66.491 0 01-.818-.205zm2.273 6.49a1.2 1.2 0 00.02-.593 1.353 1.353 0 00-.216-.487 1.712 1.712 0 00-.429-.4 4.385 4.385 0 00-.527-.313 5.316 5.316 0 00-.623-.25 9.627 9.627 0 00-1.158-.33 27.1 27.1 0 01-.416-.102l-.789 2.943.32.09a11.714 11.714 0 001.401.33c.146.023.319.043.517.058.198.016.37.018.515.008a3.06 3.06 0 00.464-.073c.162-.036.3-.093.414-.169.113-.075.215-.172.305-.29.092-.119.159-.26.203-.422z"/></symbol><symbol viewBox="0 0 344.96 344.96" id="check" xmlns="http://www.w3.org/2000/svg"><g data-name="Слой 2"><path d="M321.85 86.24l-40-23.11-23.1-40H212.5L172.48 0l-40 23.11H86.24l-23.11 40-40 23.1v46.21L0 172.48l23.11 40v46.21l40 23.11 23.11 40h46.21l40 23.1 40-23.11h46.21l23.11-40 40-23.11V212.5l23.11-40-23.11-40V86.24zM156.91 243.07a16.79 16.79 0 01-23.34 0l-50.45-50.44a16.19 16.19 0 010-22.89l13.35-13.35a16.19 16.19 0 0122.89 0l25.87 25.87 80.34-80.35a16.19 16.19 0 0122.89 0l13.35 13.35a16.19 16.19 0 010 22.89z" data-name="Capa 1"/></g></symbol><symbol viewBox="0 0 30 18" id="chevron-down" xmlns="http://www.w3.org/2000/svg"><path d="M29.633 1.242a1.249 1.249 0 00-1.767 0L15 14.108 2.134 1.242A1.249 1.249 0 10.367 3.009l13.75 13.75a1.246 1.246 0 001.767 0l13.75-13.75a1.249 1.249 0 000-1.767z"/></symbol><symbol viewBox="0 0 12 12" id="chevron-left" xmlns="http://www.w3.org/2000/svg"><g clip-path="url(#eclip0)"><path d="M8.95.192l.396.393a.652.652 0 01.192.464.65.65 0 01-.192.464L4.862 5.997l4.49 4.49a.651.651 0 01.191.463.653.653 0 01-.192.465l-.393.393a.657.657 0 01-.928 0L2.666 6.463a.671.671 0 01-.21-.465v-.002a.67.67 0 01.21-.464l5.35-5.34a.663.663 0 01.935 0z"/></g><defs><clipPath id="eclip0"><path transform="matrix(0 -1 -1 0 12 12)" d="M0 0h12v12H0z"/></clipPath></defs></symbol><symbol viewBox="0 0 30 30" id="eth" xmlns="http://www.w3.org/2000/svg"><path d="M30 15c0 8.284-6.716 15-15 15-8.284 0-15-6.716-15-15C0 6.716 6.716 0 15 0c8.284 0 15 6.716 15 15z"/><path d="M15.01 18.147L9.32 15.44l5.69 9.945 5.691-9.945zm5.068-4.72L15.007 4.62 9.93 13.437l5.077-2.408z"/><path fill-opacity=".5" d="M10.37 14.58l4.637 2.196 4.644-2.2-4.644-2.196z"/></symbol><symbol viewBox="0 0 16 16" id="eye" xmlns="http://www.w3.org/2000/svg"><g clip-path="url(#gclip0)"><path d="M15.88 7.687c-.142-.159-3.577-3.906-7.88-3.906S.262 7.528.12 7.687a.469.469 0 000 .626c.142.159 3.578 3.906 7.88 3.906 4.303 0 7.738-3.747 7.88-3.906a.469.469 0 000-.626zM8 11.281A3.285 3.285 0 014.719 8 3.285 3.285 0 018 4.719 3.285 3.285 0 0111.281 8 3.285 3.285 0 018 11.281z"/><path d="M8.469 7.063c0-.472.234-.887.59-1.142A2.313 2.313 0 008 5.656 2.346 2.346 0 005.656 8 2.347 2.347 0 008 10.344a2.343 2.343 0 002.304-1.949 1.398 1.398 0 01-1.835-1.332z"/></g><defs><clipPath id="gclip0"><path d="M0 0h16v16H0z"/></clipPath></defs></symbol><symbol viewBox="0 0 9 16" id="facebook" xmlns="http://www.w3.org/2000/svg"><path d="M6.665 2.657h1.46V.113A18.861 18.861 0 005.997 0C3.891 0 2.45 1.325 2.45 3.76V6H.125v2.844h2.324V16h2.85V8.845h2.23L7.881 6H5.297V4.04c.001-.822.222-1.384 1.368-1.384z"/></symbol><symbol viewBox="0 0 16 16" id="instagram" xmlns="http://www.w3.org/2000/svg"><path d="M11.584 0H4.415A4.42 4.42 0 000 4.415v7.17A4.42 4.42 0 004.415 16h7.17A4.42 4.42 0 0016 11.585v-7.17A4.42 4.42 0 0011.584 0zm2.996 11.585a3 3 0 01-2.995 2.995h-7.17a3 3 0 01-2.995-2.995v-7.17A3 3 0 014.415 1.42h7.17a3 3 0 012.995 2.995v7.17z"/><path d="M8 3.877A4.127 4.127 0 003.877 8 4.127 4.127 0 008 12.123 4.127 4.127 0 0012.123 8 4.127 4.127 0 008 3.877zm0 6.826A2.706 2.706 0 015.297 8 2.706 2.706 0 018 5.297 2.706 2.706 0 0110.703 8 2.706 2.706 0 018 10.703zm4.296-8.029a1.045 1.045 0 00-1.041 1.04c0 .274.111.543.305.737.193.193.462.305.736.305.274 0 .542-.112.736-.305a1.046 1.046 0 000-1.473 1.046 1.046 0 00-.736-.304z"/></symbol><symbol viewBox="0 0 76.8 192.7" id="logo" xmlns="http://www.w3.org/2000/svg"><path d="M1 150c0-11.3.1-22.7-.1-34-.1-3.3.9-3.9 4-3.3 10 1.9 10 1.8 10 12 0 15.2.1 30.3-.1 45.5 0 3.5 1 4.7 4.5 5.5 21 4.9 35.7-9 40.5-23.9 6.3-19.2-1.6-38.6-19.3-47.3-9.8-4.9-20.7-5.9-31.1-8.7C1.1 93.4 1 93.6 1 85.3c.1-25.3.2-50.6 0-76 0-4.5 1.5-5.9 5.5-6.9C35.3-5 63.7 10.9 70.2 38.7c3.1 13.4 2.3 26.4-5.1 38.5-2.4 3.9-4.8 5.6-9.1 2.4-2-1.5-5.3-1.9-6.3-3.7-1.3-2.3 2.3-3.8 3.4-5.8 6.6-12.5 6.5-25.1-.7-37.1-7.1-12-18.2-17.6-32.2-17.2-3.5.1-5.5 1-5.4 5.5.3 18.8.2 37.6.1 56.5 0 3.2.7 4.6 4.1 5.3 10.2 2.1 20.4 4.7 29.8 9.7 18.5 9.8 29 29.3 27 50.6-2.1 23.2-15.2 41-34.9 46.5-12.3 3.4-24.7 2.5-37-.6-2.8-.7-3-2.4-2.9-4.7V150z"/></symbol><symbol viewBox="0 0 40 40" id="telegram" xmlns="http://www.w3.org/2000/svg"><path d="M9.151 19.567l19.283-7.435c.895-.324 1.677.218 1.387 1.571l.002-.001-3.284 15.468c-.243 1.097-.895 1.363-1.806.847l-5-3.685-2.412 2.323c-.267.267-.492.492-1.008.492l.355-5.089 9.267-8.371c.403-.355-.09-.555-.622-.202l-11.452 7.21-4.937-1.54c-1.071-.34-1.095-1.072.227-1.588z"/></symbol><symbol viewBox="0 0 16 14" id="twitter" xmlns="http://www.w3.org/2000/svg"><path d="M16 2.039a6.839 6.839 0 01-1.89.518A3.262 3.262 0 0015.553.744a6.555 6.555 0 01-2.08.794 3.28 3.28 0 00-5.674 2.243c0 .26.022.51.076.748a9.284 9.284 0 01-6.761-3.431 3.285 3.285 0 001.008 4.384A3.24 3.24 0 01.64 5.078v.036a3.295 3.295 0 002.628 3.223 3.274 3.274 0 01-.86.108 2.9 2.9 0 01-.621-.056 3.311 3.311 0 003.065 2.285 6.59 6.59 0 01-4.067 1.399c-.269 0-.527-.012-.785-.045A9.234 9.234 0 005.032 13.5c6.036 0 9.336-5 9.336-9.334 0-.145-.005-.285-.012-.424A6.544 6.544 0 0016 2.039z"/></symbol><symbol viewBox="0 0 16 10" id="vk" xmlns="http://www.w3.org/2000/svg"><path d="M15.857 8.578c-.043-.072-.309-.65-1.589-1.838-1.34-1.244-1.16-1.042.454-3.193.983-1.31 1.376-2.11 1.253-2.452-.117-.326-.84-.24-.84-.24l-2.404.014s-.178-.024-.31.055c-.13.078-.213.258-.213.258s-.38 1.014-.889 1.876c-1.071 1.819-1.5 1.915-1.675 1.802-.407-.263-.305-1.058-.305-1.622 0-1.763.267-2.498-.521-2.688C8.556.487 8.364.445 7.695.438 6.837.428 6.11.44 5.699.642c-.274.134-.485.433-.356.45.159.02.519.097.71.357.247.335.238 1.089.238 1.089s.142 2.075-.331 2.333c-.325.177-.77-.184-1.725-1.835-.49-.845-.86-1.78-.86-1.78s-.07-.174-.198-.267c-.154-.113-.37-.15-.37-.15L.521.855s-.343.01-.469.159c-.112.133-.009.407-.009.407s1.79 4.187 3.817 6.298c1.859 1.935 3.969 1.808 3.969 1.808h.956s.289-.032.436-.19c.136-.147.13-.42.13-.42s-.018-1.284.578-1.473c.587-.186 1.341 1.24 2.14 1.79.604.414 1.063.323 1.063.323l2.137-.03s1.118-.069.588-.948z"/></symbol><symbol class="nsvg-inline--fa nfa-youtube nfa-w-18" viewBox="0 0 576 512" id="youtube" xmlns="http://www.w3.org/2000/svg"><path d="M549.655 124.083c-6.281-23.65-24.787-42.276-48.284-48.597C458.781 64 288 64 288 64S117.22 64 74.629 75.486c-23.497 6.322-42.003 24.947-48.284 48.597-11.412 42.867-11.412 132.305-11.412 132.305s0 89.438 11.412 132.305c6.281 23.65 24.787 41.5 48.284 47.821C117.22 448 288 448 288 448s170.78 0 213.371-11.486c23.497-6.321 42.003-24.171 48.284-47.821 11.412-42.867 11.412-132.305 11.412-132.305s0-89.438-11.412-132.305zm-317.51 213.508V175.185l142.739 81.205-142.739 81.201z"/></symbol></svg>