<svg width="12" height="12" viewBox="0 0 12 12" fill="none" xmlns="http://www.w3.org/2000/svg">
<g clip-path="url(#clip0)">
<path d="M8.95057 0.191807L9.34638 0.584883C9.46999 0.708591 9.53809 0.873178 9.53809 1.04908C9.53809 1.22489 9.46999 1.38967 9.34638 1.51338L4.86225 5.99732L9.35136 10.4864C9.47497 10.6099 9.54297 10.7747 9.54297 10.9505C9.54297 11.1263 9.47497 11.2912 9.35136 11.4148L8.95799 11.808C8.70218 12.064 8.28549 12.064 8.02969 11.808L2.66564 6.46317C2.54213 6.33966 2.45511 6.17507 2.45511 5.99771L2.45511 5.99566C2.45511 5.81975 2.54223 5.65517 2.66564 5.53165L8.01515 0.191807C8.13867 0.068098 8.30823 0.000194496 8.48403 -4.62875e-08C8.65994 -3.85985e-08 8.82716 0.068098 8.95057 0.191807Z" fill="#0098DB"/>
</g>
<defs>
<clipPath id="clip0">
<rect width="12" height="12" fill="white" transform="matrix(4.37114e-08 -1 -1 -4.37114e-08 12 12)"/>
</clipPath>
</defs>
</svg>
