<svg width="16" height="16" viewBox="0 0 16 16" fill="none" xmlns="http://www.w3.org/2000/svg">
<path d="M11.5844 0H4.4153C1.98071 0 0 1.9808 0 4.4154V11.5845C0 14.0192 1.98071 15.9999 4.4153 15.9999H11.5844C14.0192 15.9999 15.9999 14.0191 15.9999 11.5845V4.4154C16 1.9808 14.0192 0 11.5844 0ZM14.5804 11.5845C14.5804 13.2364 13.2364 14.5803 11.5845 14.5803H4.4153C2.76347 14.5804 1.41959 13.2364 1.41959 11.5845V4.4154C1.41959 2.76356 2.76347 1.41959 4.4153 1.41959H11.5844C13.2363 1.41959 14.5803 2.76356 14.5803 4.4154V11.5845H14.5804Z" fill="white"/>
<path d="M7.99997 3.87744C5.72664 3.87744 3.8772 5.72688 3.8772 8.00021C3.8772 10.2734 5.72664 12.1228 7.99997 12.1228C10.2733 12.1228 12.1227 10.2734 12.1227 8.00021C12.1227 5.72688 10.2733 3.87744 7.99997 3.87744ZM7.99997 10.7031C6.50949 10.7031 5.29679 9.49059 5.29679 8.00012C5.29679 6.50955 6.5094 5.29694 7.99997 5.29694C9.49054 5.29694 10.7031 6.50955 10.7031 8.00012C10.7031 9.49059 9.49044 10.7031 7.99997 10.7031Z" fill="white"/>
<path d="M12.2957 2.67383C12.0222 2.67383 11.7535 2.78456 11.5603 2.97857C11.3662 3.17163 11.2546 3.44041 11.2546 3.71486C11.2546 3.98846 11.3663 4.25714 11.5603 4.45115C11.7534 4.64422 12.0222 4.75589 12.2957 4.75589C12.5701 4.75589 12.8379 4.64422 13.032 4.45115C13.226 4.25714 13.3367 3.98837 13.3367 3.71486C13.3367 3.44041 13.226 3.17163 13.032 2.97857C12.8389 2.78456 12.5701 2.67383 12.2957 2.67383Z" fill="white"/>
</svg>
