<?xml version="1.0" encoding="utf-8"?>
<!-- Generator: Adobe Illustrator 24.0.1, SVG Export Plug-In . SVG Version: 6.00 Build 0)  -->
<svg version="1.1" id="Слой_1" xmlns="http://www.w3.org/2000/svg" xmlns:xlink="http://www.w3.org/1999/xlink" x="0px" y="0px"
	 viewBox="0 0 76.8 192.7" style="enable-background:new 0 0 76.8 192.7;" xml:space="preserve">
<style type="text/css">
	.st0{fill:#0499DB;}
</style>
<g>
	<path class="st0" d="M1,150c0-11.3,0.1-22.7-0.1-34c-0.1-3.3,0.9-3.9,4-3.3c10,1.9,10,1.8,10,12c0,15.2,0.1,30.3-0.1,45.5
		c0,3.5,1,4.7,4.5,5.5c21,4.9,35.7-9,40.5-23.9c6.3-19.2-1.6-38.6-19.3-47.3c-9.8-4.9-20.7-5.9-31.1-8.7C1.1,93.4,1,93.6,1,85.3
		C1.1,60,1.2,34.7,1,9.3c0-4.5,1.5-5.9,5.5-6.9C35.3-5,63.7,10.9,70.2,38.7c3.1,13.4,2.3,26.4-5.1,38.5c-2.4,3.9-4.8,5.6-9.1,2.4
		c-2-1.5-5.3-1.9-6.3-3.7c-1.3-2.3,2.3-3.8,3.4-5.8c6.6-12.5,6.5-25.1-0.7-37.1c-7.1-12-18.2-17.6-32.2-17.2c-3.5,0.1-5.5,1-5.4,5.5
		c0.3,18.8,0.2,37.6,0.1,56.5c0,3.2,0.7,4.6,4.1,5.3c10.2,2.1,20.4,4.7,29.8,9.7c18.5,9.8,29,29.3,27,50.6
		c-2.1,23.2-15.2,41-34.9,46.5c-12.3,3.4-24.7,2.5-37-0.6c-2.8-0.7-3-2.4-2.9-4.7C1,173,1,161.5,1,150z"/>
</g>
</svg>
