<svg width="16" height="10" viewBox="0 0 16 10" fill="none" xmlns="http://www.w3.org/2000/svg">
<path d="M15.8574 8.57824C15.8144 8.50623 15.5484 7.92819 14.2683 6.7401C12.9282 5.49601 13.1082 5.69802 14.7223 3.54686C15.7054 2.23677 16.0984 1.43671 15.9754 1.09468C15.8584 0.768656 15.1353 0.854663 15.1353 0.854663L12.7312 0.868664C12.7312 0.868664 12.5531 0.844662 12.4201 0.923668C12.2911 1.00167 12.2081 1.18169 12.2081 1.18169C12.2081 1.18169 11.8271 2.19576 11.3191 3.05783C10.248 4.87696 9.81894 4.97297 9.64393 4.85996C9.2369 4.59694 9.33891 3.80188 9.33891 3.23784C9.33891 1.47471 9.60593 0.739654 8.81787 0.54964C8.55585 0.486635 8.36384 0.444632 7.69479 0.437632C6.83672 0.428631 6.10967 0.440632 5.69864 0.641647C5.42462 0.775657 5.2136 1.07468 5.34261 1.09168C5.50163 1.11268 5.86165 1.18869 6.05267 1.44871C6.29968 1.78373 6.29068 2.53779 6.29068 2.53779C6.29068 2.53779 6.43269 4.61294 5.95966 4.87096C5.63464 5.04797 5.1896 4.68695 4.23453 3.03582C3.7455 2.19076 3.37547 1.25569 3.37547 1.25569C3.37547 1.25569 3.30447 1.08168 3.17746 0.988673C3.02344 0.875664 2.80743 0.839662 2.80743 0.839662L0.521261 0.853663C0.521261 0.853663 0.178236 0.863664 0.0522271 1.01267C-0.0597811 1.14568 0.0432264 1.4197 0.0432264 1.4197C0.0432264 1.4197 1.83336 5.60701 3.85951 7.71817C5.71864 9.65331 7.8288 9.52631 7.8288 9.52631H8.78487C8.78487 9.52631 9.07389 9.4943 9.2209 9.33529C9.35691 9.18928 9.35191 8.91526 9.35191 8.91526C9.35191 8.91526 9.33291 7.63217 9.92895 7.44315C10.516 7.25714 11.27 8.68324 12.0691 9.23228C12.6732 9.64731 13.1322 9.55631 13.1322 9.55631L15.2693 9.52631C15.2693 9.52631 16.3874 9.4573 15.8574 8.57824Z" fill="white"/>
</svg>
